<svg width="40" height="20" viewBox="0 0 40 20" fill="none" xmlns="http://www.w3.org/2000/svg">
<path d="M20.8245 11.657C21.3685 11.2037 21.802 10.8268 22.125 10.5265C22.448 10.2205 22.7172 9.90317 22.9325 9.5745C23.1478 9.24583 23.2555 8.92283 23.2555 8.6055C23.2555 8.3165 23.1875 8.08983 23.0515 7.9255C22.9155 7.76117 22.7058 7.679 22.4225 7.679C22.1392 7.679 21.921 7.77533 21.768 7.968C21.615 8.155 21.5357 8.41283 21.53 8.7415H20.374C20.3967 8.0615 20.5978 7.54583 20.9775 7.1945C21.3628 6.84317 21.8502 6.6675 22.4395 6.6675C23.0855 6.6675 23.5813 6.84033 23.927 7.186C24.2727 7.526 24.4455 7.9765 24.4455 8.5375C24.4455 8.9795 24.3265 9.40167 24.0885 9.804C23.8505 10.2063 23.5785 10.5577 23.2725 10.858C22.9665 11.1527 22.567 11.5097 22.074 11.929H24.5815V12.915H20.3825V12.031L20.8245 11.657ZM25.3654 11.793V10.858L28.1449 6.88H29.5304V10.756H30.2784V11.793H29.5304V13H28.3404V11.793H25.3654ZM28.4169 8.155L26.6744 10.756H28.4169V8.155ZM34.4445 4.9505L32.1495 14.5385H30.985L33.28 4.9505H34.4445ZM39.2838 7.7045L37.0228 13H35.8158L38.0938 7.8405H35.1868V6.8205H39.2838V7.7045Z" fill="black"/>
<path d="M13.56 4.45852L14.5135 4.37848L14.4365 3.46101L11.8286 3.67989L12.0475 6.28786L12.9649 6.21086L12.8691 5.06847C14.0947 6.34964 14.7833 8.04856 14.7833 9.85194C14.7833 11.7034 14.0623 13.444 12.7532 14.7531C11.444 16.0623 9.70342 16.7832 7.85201 16.7832C6.00059 16.7832 4.25997 16.0623 2.95081 14.7532C1.64165 13.444 0.920689 11.7034 0.920689 9.85201C0.920689 8.00059 1.64168 6.25997 2.95081 4.95081C4.25994 3.64165 6.00056 2.92069 7.85201 2.92069V2C5.75468 2 3.78287 2.81674 2.29982 4.29982C0.816743 5.78284 0 7.75464 0 9.85201C0 11.9494 0.816743 13.9211 2.29982 15.4042C3.78287 16.8872 5.75468 17.704 7.85201 17.704C9.94933 17.704 11.9211 16.8873 13.4042 15.4042C14.8872 13.9211 15.704 11.9493 15.704 9.85201C15.704 7.82106 14.9332 5.90691 13.56 4.45852Z" fill="#18C0E5"/>
<path d="M7.85225 14.2633C10.2886 14.2633 12.2636 12.2883 12.2636 9.852C12.2636 7.41569 10.2886 5.44067 7.85225 5.44067C5.41594 5.44067 3.44092 7.41569 3.44092 9.852C3.44092 12.2883 5.41594 14.2633 7.85225 14.2633Z" fill="#F9F9F9"/>
<path d="M7.85205 5.44067V14.2634C10.2884 14.2634 12.2634 12.2883 12.2634 9.85203C12.2634 7.41574 10.2883 5.44067 7.85205 5.44067Z" fill="#ECEAE7"/>
<path d="M7.3916 5.44067H8.31229V6.76073H7.3916V5.44067Z" fill="white"/>
<path d="M7.85205 5.44067H8.31239V6.76073H7.85205V5.44067Z" fill="#DAD0CB"/>
<path d="M7.3916 12.9432H8.31229V14.2633H7.3916V12.9432Z" fill="white"/>
<path d="M10.9431 9.39172H12.2632V10.3124H10.9431V9.39172Z" fill="#DAD0CB"/>
<path d="M3.44043 9.39172H4.76048V10.3124H3.44043V9.39172Z" fill="white"/>
<path d="M7.8519 14.7236C5.16563 14.7236 2.98022 12.5382 2.98022 9.85196C2.98022 7.16569 5.16563 4.98029 7.8519 4.98029C10.5382 4.98029 12.7236 7.16569 12.7236 9.85196C12.7236 12.5382 10.5381 14.7236 7.8519 14.7236ZM7.8519 5.90094C5.6733 5.90094 3.90091 7.67333 3.90091 9.85193C3.90091 12.0305 5.6733 13.8029 7.8519 13.8029C10.0305 13.8029 11.8029 12.0305 11.8029 9.85193C11.8029 7.67333 10.0305 5.90094 7.8519 5.90094Z" fill="#7DD5F4"/>
<path d="M6.74881 11.3819L6.15601 10.6774L7.39166 9.63773V7.35077H8.31235V10.0662L6.74881 11.3819Z" fill="#454545"/>
<path d="M7.85205 4.98029V5.90097C10.0306 5.90097 11.803 7.67336 11.803 9.85196C11.803 12.0306 10.0306 13.8029 7.85205 13.8029V14.7236C10.5383 14.7236 12.7237 12.5382 12.7237 9.85196C12.7237 7.16569 10.5383 4.98029 7.85205 4.98029Z" fill="#6BA7FF"/>
<path d="M8.31239 7.35077H7.85205V10.4536L8.31239 10.0662V7.35077Z" fill="#2E2E2E"/>
</svg>
