<svg width="11" height="12" viewBox="0 0 11 12" fill="none" xmlns="http://www.w3.org/2000/svg">
<g id="Group 73">
<path id="Vector" d="M10.0981 0.958824H8.97285V0.456315C8.97285 0.200446 8.70346 0 8.35982 0C8.01569 0 7.74609 0.200446 7.74609 0.456315V0.958824H6.03472V0.456315C6.03472 0.200446 5.7651 0 5.42099 0C5.07688 0 4.80726 0.200446 4.80726 0.456315V0.958824H3.0965V0.456315C3.0965 0.200446 2.82695 0 2.48277 0C2.13859 0 1.86904 0.200446 1.86904 0.456315V0.958824H0.744487C0.547107 0.959041 0.357874 1.03754 0.218303 1.17711C0.0787324 1.31668 0.00022321 1.50591 0 1.70329V10.64C0.000229385 10.8373 0.0787398 11.0266 0.218309 11.1661C0.357877 11.3057 0.547107 11.3842 0.744487 11.3845H10.0981C10.2955 11.3842 10.4846 11.3056 10.624 11.166C10.7635 11.0265 10.8419 10.8373 10.842 10.64V1.70329C10.8419 1.50599 10.7635 1.3168 10.624 1.17723C10.4846 1.03766 10.2954 0.959109 10.0981 0.958824ZM8.12093 0.459126C8.13241 0.43453 8.21861 0.374797 8.35987 0.374797C8.5007 0.374797 8.58666 0.434624 8.5981 0.459126V0.958824H8.12093V0.459126ZM5.18206 0.459337C5.19377 0.434671 5.28007 0.374797 5.42099 0.374797C5.56191 0.374797 5.64821 0.434671 5.65992 0.459337V0.958824H5.18206V0.459337ZM2.24388 0.459337C2.2556 0.434671 2.34187 0.374797 2.48282 0.374797C2.62376 0.374797 2.71004 0.434671 2.72175 0.459337V0.958824H2.24388V0.459337Z" fill="#EAE8E8"/>
<path id="Vector_2" d="M5.00204 4.50133V5.3426C5.00204 5.3923 4.9823 5.43997 4.94716 5.47511C4.91201 5.51026 4.86435 5.53 4.81464 5.53H3.86125C3.81155 5.53 3.76389 5.51026 3.72874 5.47511C3.6936 5.43997 3.67386 5.3923 3.67386 5.3426V4.50133C3.67386 4.45162 3.6936 4.40396 3.72874 4.36881C3.76389 4.33367 3.81155 4.31393 3.86125 4.31393H4.81464C4.86435 4.31393 4.91201 4.33367 4.94716 4.36881C4.9823 4.40396 5.00204 4.45162 5.00204 4.50133ZM6.9806 4.31393H6.02721C5.9775 4.31393 5.92984 4.33367 5.8947 4.36881C5.85955 4.40396 5.83981 4.45162 5.83981 4.50133V5.3426C5.83981 5.3923 5.85955 5.43997 5.8947 5.47511C5.92984 5.51026 5.9775 5.53 6.02721 5.53H6.9806C7.0303 5.53 7.07796 5.51026 7.11311 5.47511C7.14825 5.43997 7.16799 5.3923 7.16799 5.3426V4.50133C7.16799 4.45162 7.14825 4.40396 7.11311 4.36881C7.07796 4.33367 7.0303 4.31393 6.9806 4.31393ZM2.64935 6.37229H1.69521C1.64551 6.37229 1.59784 6.39203 1.5627 6.42718C1.52756 6.46232 1.50781 6.50998 1.50781 6.55969V7.40096C1.50781 7.45066 1.52756 7.49833 1.5627 7.53347C1.59784 7.56862 1.64551 7.58836 1.69521 7.58836H2.64937C2.69907 7.58836 2.74674 7.56862 2.78188 7.53347C2.81703 7.49833 2.83677 7.45066 2.83677 7.40096V6.55969C2.83677 6.50998 2.81703 6.46232 2.78188 6.42718C2.74674 6.39203 2.69905 6.37229 2.64935 6.37229ZM4.81462 6.37229H3.86123C3.81153 6.37229 3.76386 6.39203 3.72872 6.42718C3.69358 6.46232 3.67383 6.50998 3.67383 6.55969V7.40096C3.67383 7.45066 3.69358 7.49833 3.72872 7.53347C3.76386 7.56862 3.81153 7.58836 3.86123 7.58836H4.81462C4.86432 7.58836 4.91199 7.56862 4.94713 7.53347C4.98228 7.49833 5.00202 7.45066 5.00202 7.40096V6.55969C5.00202 6.50999 4.98228 6.46233 4.94714 6.42718C4.912 6.39204 4.86434 6.37229 4.81464 6.37229H4.81462ZM6.98057 6.37229H6.02718C5.97748 6.37229 5.92982 6.39203 5.89467 6.42718C5.85953 6.46232 5.83978 6.50998 5.83978 6.55969V7.40096C5.83978 7.45066 5.85953 7.49833 5.89467 7.53347C5.92982 7.56862 5.97748 7.58836 6.02718 7.58836H6.98057C7.03027 7.58836 7.07794 7.56862 7.11308 7.53347C7.14823 7.49833 7.16797 7.45066 7.16797 7.40096V6.55969C7.16797 6.50999 7.14823 6.46233 7.11309 6.42718C7.07795 6.39204 7.03029 6.37229 6.9806 6.37229H6.98057ZM2.64933 8.43133H1.69521C1.64551 8.43133 1.59784 8.45107 1.5627 8.48621C1.52756 8.52136 1.50781 8.56902 1.50781 8.61873V9.45932C1.50781 9.50903 1.52756 9.55669 1.5627 9.59184C1.59784 9.62698 1.64551 9.64672 1.69521 9.64672H2.64937C2.69907 9.64672 2.74674 9.62698 2.78188 9.59184C2.81703 9.55669 2.83677 9.50903 2.83677 9.45932V8.61875C2.83677 8.56905 2.81703 8.52138 2.78188 8.48624C2.74674 8.45109 2.69907 8.43135 2.64937 8.43135L2.64933 8.43133ZM4.8146 8.43133H3.86121C3.81151 8.43133 3.76384 8.45107 3.7287 8.48621C3.69355 8.52136 3.67381 8.56902 3.67381 8.61873V9.45932C3.67381 9.50903 3.69355 9.55669 3.7287 9.59184C3.76384 9.62698 3.81151 9.64672 3.86121 9.64672H4.8146C4.8643 9.64672 4.91196 9.62698 4.94711 9.59184C4.98225 9.55669 5.002 9.50903 5.002 9.45932V8.61875C5.002 8.56906 4.98226 8.5214 4.94712 8.48625C4.91199 8.45111 4.86434 8.43136 4.81464 8.43135L4.8146 8.43133ZM2.64937 4.31393H1.69521C1.64551 4.31393 1.59784 4.33367 1.5627 4.36881C1.52756 4.40396 1.50781 4.45162 1.50781 4.50133V5.3426C1.50781 5.3923 1.52756 5.43997 1.5627 5.47511C1.59784 5.51026 1.64551 5.53 1.69521 5.53H2.64937C2.69907 5.53 2.74674 5.51026 2.78188 5.47511C2.81703 5.43997 2.83677 5.3923 2.83677 5.3426V4.50133C2.83677 4.45162 2.81703 4.40396 2.78188 4.36881C2.74674 4.33367 2.69907 4.31393 2.64937 4.31393ZM9.14655 6.37229H8.19316C8.14346 6.37229 8.09579 6.39203 8.06065 6.42718C8.0255 6.46232 8.00576 6.50998 8.00576 6.55969V7.40096C8.00576 7.45066 8.0255 7.49833 8.06065 7.53347C8.09579 7.56862 8.14346 7.58836 8.19316 7.58836H9.14655C9.19625 7.58836 9.24391 7.56862 9.27906 7.53347C9.3142 7.49833 9.33394 7.45066 9.33394 7.40096V6.55969C9.33394 6.50998 9.3142 6.46232 9.27906 6.42718C9.24391 6.39203 9.19625 6.37229 9.14655 6.37229ZM6.9806 8.43133H6.02721C5.9775 8.43133 5.92984 8.45107 5.8947 8.48621C5.85955 8.52136 5.83981 8.56902 5.83981 8.61873V9.45932C5.83981 9.50903 5.85955 9.55669 5.8947 9.59184C5.92984 9.62698 5.9775 9.64672 6.02721 9.64672H6.9806C7.0303 9.64672 7.07796 9.62698 7.11311 9.59184C7.14825 9.55669 7.16799 9.50903 7.16799 9.45932V8.61875C7.16799 8.56905 7.14825 8.52138 7.11311 8.48624C7.07796 8.45109 7.0303 8.43133 6.9806 8.43133Z" fill="#484868"/>
<g id="Group">
<path id="Vector_3" d="M2.64929 4.31393H2.41504C2.46474 4.31393 2.51241 4.33367 2.54755 4.36881C2.58269 4.40396 2.60244 4.45162 2.60244 4.50133V5.3426C2.60244 5.3923 2.58269 5.43997 2.54755 5.47511C2.51241 5.51026 2.46474 5.53 2.41504 5.53H2.64929C2.69899 5.53 2.74665 5.51026 2.7818 5.47511C2.81694 5.43997 2.83669 5.3923 2.83669 5.3426V4.50133C2.83669 4.45162 2.81694 4.40396 2.7818 4.36881C2.74665 4.33367 2.69899 4.31393 2.64929 4.31393Z" fill="#3D3D54"/>
<path id="Vector_4" d="M4.81433 8.43127H4.58008C4.62978 8.43127 4.67744 8.45102 4.71259 8.48616C4.74773 8.52131 4.76748 8.56897 4.76748 8.61867V9.45927C4.76748 9.50897 4.74773 9.55664 4.71259 9.59178C4.67744 9.62693 4.62978 9.64667 4.58008 9.64667H4.81433C4.86403 9.64667 4.91169 9.62693 4.94684 9.59178C4.98198 9.55664 5.00172 9.50897 5.00172 9.45927V8.61867C5.00172 8.56897 4.98198 8.52131 4.94684 8.48616C4.91169 8.45102 4.86403 8.43127 4.81433 8.43127Z" fill="#3D3D54"/>
<path id="Vector_5" d="M4.81433 6.37223H4.58008C4.62978 6.37223 4.67744 6.39197 4.71259 6.42712C4.74773 6.46226 4.76748 6.50993 4.76748 6.55963V7.40091C4.76748 7.45061 4.74773 7.49827 4.71259 7.53342C4.67744 7.56856 4.62978 7.58831 4.58008 7.58831H4.81433C4.86403 7.58831 4.91169 7.56856 4.94684 7.53342C4.98198 7.49827 5.00172 7.45061 5.00172 7.40091V6.55963C5.00172 6.50993 4.98198 6.46226 4.94684 6.42712C4.91169 6.39197 4.86403 6.37223 4.81433 6.37223Z" fill="#3D3D54"/>
<path id="Vector_6" d="M2.64929 8.43127H2.41504C2.46474 8.43127 2.51241 8.45102 2.54755 8.48616C2.58269 8.52131 2.60244 8.56897 2.60244 8.61867V9.45927C2.60244 9.50897 2.58269 9.55664 2.54755 9.59178C2.51241 9.62693 2.46474 9.64667 2.41504 9.64667H2.64929C2.69899 9.64667 2.74665 9.62693 2.7818 9.59178C2.81694 9.55664 2.83669 9.50897 2.83669 9.45927V8.61867C2.83669 8.56897 2.81694 8.52131 2.7818 8.48616C2.74665 8.45102 2.69899 8.43127 2.64929 8.43127Z" fill="#3D3D54"/>
<path id="Vector_7" d="M2.64929 6.37223H2.41504C2.46474 6.37223 2.51241 6.39197 2.54755 6.42712C2.58269 6.46226 2.60244 6.50993 2.60244 6.55963V7.40091C2.60244 7.45061 2.58269 7.49827 2.54755 7.53342C2.51241 7.56856 2.46474 7.58831 2.41504 7.58831H2.64929C2.69899 7.58831 2.74665 7.56856 2.7818 7.53342C2.81694 7.49827 2.83669 7.45061 2.83669 7.40091V6.55963C2.83669 6.50993 2.81694 6.46226 2.7818 6.42712C2.74665 6.39197 2.69899 6.37223 2.64929 6.37223Z" fill="#3D3D54"/>
<path id="Vector_8" d="M6.98034 8.43127H6.74609C6.79579 8.43127 6.84346 8.45102 6.8786 8.48616C6.91375 8.52131 6.93349 8.56897 6.93349 8.61867V9.45927C6.93349 9.50897 6.91375 9.55664 6.8786 9.59178C6.84346 9.62693 6.79579 9.64667 6.74609 9.64667H6.98034C7.03004 9.64667 7.07771 9.62693 7.11285 9.59178C7.148 9.55664 7.16774 9.50897 7.16774 9.45927V8.61867C7.16774 8.56897 7.148 8.52131 7.11285 8.48616C7.07771 8.45102 7.03004 8.43127 6.98034 8.43127Z" fill="#3D3D54"/>
<path id="Vector_9" d="M6.98034 4.31388H6.74609C6.79579 4.31388 6.84346 4.33362 6.8786 4.36877C6.91375 4.40391 6.93349 4.45158 6.93349 4.50128V5.34256C6.93349 5.39226 6.91375 5.43992 6.8786 5.47507C6.84346 5.51021 6.79579 5.52996 6.74609 5.52996H6.98034C7.03004 5.52996 7.07771 5.51021 7.11285 5.47507C7.148 5.43992 7.16774 5.39226 7.16774 5.34256V4.50128C7.16774 4.45158 7.148 4.40391 7.11285 4.36877C7.07771 4.33362 7.03004 4.31388 6.98034 4.31388Z" fill="#3D3D54"/>
<path id="Vector_10" d="M4.81433 4.31388H4.58008C4.62978 4.31388 4.67744 4.33362 4.71259 4.36877C4.74773 4.40391 4.76748 4.45158 4.76748 4.50128V5.34256C4.76748 5.39226 4.74773 5.43992 4.71259 5.47507C4.67744 5.51021 4.62978 5.52996 4.58008 5.52996H4.81433C4.86403 5.52996 4.91169 5.51021 4.94684 5.47507C4.98198 5.43992 5.00172 5.39226 5.00172 5.34256V4.50128C5.00172 4.45158 4.98198 4.40391 4.94684 4.36877C4.91169 4.33362 4.86403 4.31388 4.81433 4.31388Z" fill="#3D3D54"/>
<path id="Vector_11" d="M9.14636 6.37223H8.91211C8.96181 6.37223 9.00948 6.39197 9.04462 6.42712C9.07976 6.46226 9.09951 6.50993 9.09951 6.55963V7.40091C9.09951 7.45061 9.07976 7.49827 9.04462 7.53342C9.00948 7.56856 8.96181 7.58831 8.91211 7.58831H9.14636C9.19606 7.58831 9.24372 7.56856 9.27887 7.53342C9.31401 7.49827 9.33376 7.45061 9.33376 7.40091V6.55963C9.33376 6.50993 9.31401 6.46226 9.27887 6.42712C9.24372 6.39197 9.19606 6.37223 9.14636 6.37223Z" fill="#3D3D54"/>
<path id="Vector_12" d="M6.98034 6.37223H6.74609C6.79579 6.37223 6.84346 6.39197 6.8786 6.42712C6.91375 6.46226 6.93349 6.50993 6.93349 6.55963V7.40091C6.93349 7.45061 6.91375 7.49827 6.8786 7.53342C6.84346 7.56856 6.79579 7.58831 6.74609 7.58831H6.98034C7.03004 7.58831 7.07771 7.56856 7.11285 7.53342C7.148 7.49827 7.16774 7.45061 7.16774 7.40091V6.55963C7.16774 6.50993 7.148 6.46226 7.11285 6.42712C7.07771 6.39197 7.03004 6.37223 6.98034 6.37223Z" fill="#3D3D54"/>
</g>
<path id="Vector_13" d="M8.5519 5.47628C8.50248 5.47628 8.45507 5.45677 8.41997 5.42198L8.03487 5.04016C7.99982 5.00511 7.98009 4.95761 7.97998 4.90805C7.97987 4.85849 7.99941 4.8109 8.0343 4.77571C8.0692 4.74051 8.11661 4.72057 8.16617 4.72026C8.21573 4.71994 8.2634 4.73926 8.29875 4.77401L8.54002 5.01313L9.03051 4.43404C9.06264 4.39612 9.10852 4.37251 9.15805 4.36841C9.20758 4.36431 9.25672 4.38005 9.29464 4.41218C9.33257 4.4443 9.35618 4.49018 9.36028 4.53971C9.36438 4.58924 9.34863 4.63838 9.31651 4.6763L8.695 5.41001C8.67829 5.42973 8.65768 5.44579 8.63447 5.45716C8.61126 5.46853 8.58594 5.47498 8.56012 5.47609C8.55733 5.47621 8.55462 5.47628 8.5519 5.47628Z" fill="#D22E2E"/>
<path id="Vector_14" d="M9.20283 10.7811C9.18543 10.7985 9.16477 10.8123 9.14203 10.8218C9.11929 10.8312 9.09491 10.836 9.07029 10.836H0.744487C0.547107 10.8358 0.357877 10.7573 0.218309 10.6177C0.0787398 10.4782 0.000229385 10.2889 0 10.0916V10.64C0.000229385 10.8374 0.0787398 11.0266 0.218309 11.1662C0.357877 11.3057 0.547107 11.3843 0.744487 11.3845H10.0981C10.2955 11.3842 10.4846 11.3057 10.624 11.1661C10.7635 11.0265 10.8419 10.8373 10.842 10.64V9.06367C10.842 9.11336 10.8222 9.161 10.7871 9.19614L9.20283 10.7811Z" fill="#D1C9C9"/>
<path id="Vector_15" d="M10.8418 9.06363V9.03906H9.42509C9.32569 9.03906 9.23036 9.07855 9.16007 9.14884C9.08978 9.21913 9.05029 9.31446 9.05029 9.41386V10.836H9.07013C9.09475 10.836 9.11913 10.8311 9.14187 10.8217C9.16461 10.8123 9.18527 10.7985 9.20267 10.7811L10.787 9.1961C10.8221 9.16096 10.8418 9.11332 10.8418 9.06363Z" fill="#BCB3B3"/>
<path id="Vector_16" d="M10.0981 0.958786H8.12093V1.66814C8.13194 1.69273 8.21786 1.75291 8.35987 1.75291C8.40957 1.75291 8.45723 1.77265 8.49238 1.8078C8.52752 1.84294 8.54726 1.89061 8.54726 1.94031C8.54726 1.99001 8.52752 2.03768 8.49238 2.07282C8.45723 2.10796 8.40957 2.12771 8.35987 2.12771C8.01573 2.12771 7.74614 1.92698 7.74614 1.67071V0.958786H5.18206V1.668C5.19325 1.69268 5.27929 1.75291 5.42099 1.75291C5.47069 1.75291 5.51836 1.77265 5.5535 1.8078C5.58865 1.84294 5.60839 1.89061 5.60839 1.94031C5.60839 1.99001 5.58865 2.03768 5.5535 2.07282C5.51836 2.10796 5.47069 2.12771 5.42099 2.12771C5.07686 2.12771 4.80726 1.92698 4.80726 1.67071V0.958786H2.24393V1.668C2.25513 1.69268 2.34117 1.75291 2.48286 1.75291C2.53257 1.75291 2.58023 1.77265 2.61538 1.8078C2.65052 1.84294 2.67026 1.89061 2.67026 1.94031C2.67026 1.99001 2.65052 2.03768 2.61538 2.07282C2.58023 2.10796 2.53257 2.12771 2.48286 2.12771C2.13875 2.12771 1.86913 1.92698 1.86913 1.67071V0.958786H0.744487C0.547107 0.959003 0.357874 1.03751 0.218303 1.17707C0.0787324 1.31664 0.00022321 1.50587 0 1.70325V3.30098H10.842V1.70325C10.8419 1.50595 10.7635 1.31676 10.624 1.17719C10.4846 1.03762 10.2954 0.959071 10.0981 0.958786Z" fill="#D22E2E"/>
<path id="Vector_17" d="M0 3.30099H10.842V3.59362H0V3.30099Z" fill="#D1C9C9"/>
<path id="Vector_18" d="M5.60844 1.94035C5.60844 1.99005 5.5887 2.03771 5.55355 2.07286C5.51841 2.108 5.47074 2.12774 5.42104 2.12774C5.07691 2.12774 4.80731 1.92702 4.80731 1.67075V0.456315C4.80731 0.200446 5.07691 0 5.42104 0C5.76518 0 6.03477 0.200446 6.03477 0.456315V0.958824H5.65998V0.459337C5.64826 0.434671 5.56194 0.374797 5.42104 0.374797C5.28014 0.374797 5.19382 0.434671 5.18211 0.459337V1.66806C5.19331 1.69275 5.27935 1.75297 5.42104 1.75297C5.47074 1.75297 5.5184 1.77271 5.55355 1.80785C5.58869 1.84299 5.60844 1.89065 5.60844 1.94035ZM2.48287 1.75295C2.34122 1.75295 2.25518 1.69272 2.24394 1.66803V0.459313C2.25565 0.434647 2.34192 0.374773 2.48287 0.374773C2.62382 0.374773 2.71009 0.434647 2.7218 0.459313V0.958824H3.0966V0.456315C3.0966 0.200446 2.82705 0 2.48287 0C2.13869 0 1.86914 0.200446 1.86914 0.456315V1.67075C1.86914 1.92702 2.13871 2.12774 2.48287 2.12774C2.53257 2.12774 2.58024 2.108 2.61538 2.07286C2.65052 2.03771 2.67027 1.99005 2.67027 1.94035C2.67027 1.89065 2.65052 1.84298 2.61538 1.80784C2.58024 1.77269 2.53257 1.75295 2.48287 1.75295ZM8.35987 1.75295C8.21792 1.75295 8.13199 1.69277 8.12094 1.66817V0.459126C8.13242 0.43453 8.21862 0.374797 8.35987 0.374797C8.5007 0.374797 8.58667 0.434624 8.5981 0.459126V0.958824H8.9729V0.456315C8.9729 0.200446 8.70351 0 8.35987 0C8.01574 0 7.74614 0.200446 7.74614 0.456315V1.67075C7.74614 1.92702 8.01569 2.12774 8.35987 2.12774C8.40957 2.12774 8.45724 2.108 8.49238 2.07286C8.52753 2.03771 8.54727 1.99005 8.54727 1.94035C8.54727 1.89065 8.52753 1.84298 8.49238 1.80784C8.45724 1.77269 8.40957 1.75295 8.35987 1.75295Z" fill="#484868"/>
<path id="Vector_19" d="M2.48387 1.58898C2.39788 1.58899 2.31491 1.62068 2.25081 1.678C2.27583 1.70597 2.35747 1.75296 2.48272 1.75296C2.53242 1.75296 2.58009 1.7727 2.61523 1.80784C2.65037 1.84299 2.67012 1.89065 2.67012 1.94035C2.67012 1.99005 2.65037 2.03772 2.61523 2.07286C2.58009 2.10801 2.53242 2.12775 2.48272 2.12775C2.36918 2.12879 2.25677 2.10508 2.15332 2.05827C2.17496 2.11887 2.21283 2.17236 2.2628 2.21289C2.31277 2.25343 2.37292 2.27946 2.43667 2.28814C2.50043 2.29682 2.56534 2.28782 2.62433 2.26212C2.68332 2.23641 2.73411 2.195 2.77116 2.1424C2.80821 2.08979 2.8301 2.02802 2.83444 1.96382C2.83877 1.89962 2.82538 1.83547 2.79574 1.77836C2.76609 1.72125 2.72132 1.67339 2.66633 1.63999C2.61133 1.60659 2.54821 1.58895 2.48387 1.58898Z" fill="#AD1E1E"/>
<path id="Vector_20" d="M5.42116 1.58898C5.33549 1.58896 5.25279 1.62039 5.18876 1.67732C5.2131 1.70522 5.29499 1.75293 5.42116 1.75293C5.47086 1.75293 5.51853 1.77268 5.55367 1.80782C5.58882 1.84296 5.60856 1.89063 5.60856 1.94033C5.60856 1.99003 5.58882 2.0377 5.55367 2.07284C5.51853 2.10798 5.47086 2.12773 5.42116 2.12773C5.30709 2.12878 5.19417 2.10484 5.09033 2.05759C5.11184 2.11828 5.14961 2.17188 5.19952 2.21254C5.24943 2.25321 5.30956 2.27937 5.37334 2.28817C5.43711 2.29697 5.50208 2.28807 5.56114 2.26244C5.6202 2.23682 5.67108 2.19545 5.70821 2.14286C5.74535 2.09027 5.76732 2.02848 5.77171 1.96425C5.7761 1.90002 5.76276 1.83582 5.73313 1.77866C5.7035 1.72151 5.65873 1.67359 5.60371 1.64016C5.54869 1.60673 5.48554 1.58907 5.42116 1.5891V1.58898Z" fill="#AD1E1E"/>
<path id="Vector_21" d="M8.35922 1.58901C8.2736 1.58898 8.19094 1.62037 8.12694 1.67725C8.1509 1.70503 8.2328 1.75296 8.35955 1.75296C8.40925 1.75296 8.45691 1.7727 8.49206 1.80784C8.5272 1.84299 8.54695 1.89065 8.54695 1.94035C8.54695 1.99005 8.5272 2.03772 8.49206 2.07286C8.45691 2.10801 8.40925 2.12775 8.35955 2.12775C8.24533 2.12882 8.13227 2.10483 8.02832 2.05748C8.04983 2.11816 8.0876 2.17176 8.1375 2.21242C8.18741 2.25309 8.24754 2.27925 8.31131 2.28805C8.37508 2.29686 8.44005 2.28796 8.4991 2.26234C8.55816 2.23671 8.60904 2.19535 8.64618 2.14277C8.68332 2.09018 8.70529 2.0284 8.70969 1.96418C8.7141 1.89995 8.70076 1.83575 8.67114 1.77859C8.64152 1.72143 8.59676 1.67352 8.54175 1.64008C8.48674 1.60664 8.4236 1.58898 8.35922 1.58901Z" fill="#AD1E1E"/>
</g>
</svg>
