<svg width="24" height="26" viewBox="0 0 24 26" fill="none" xmlns="http://www.w3.org/2000/svg">
<path opacity="0.65" d="M13.7143 20.5714C13.7143 17.4156 16.2726 14.8571 19.4286 14.8571C20.2417 14.8571 21.0143 15.0298 21.7143 15.3357V8.00009H0V20.5715C0 22.1501 1.27857 23.4287 2.85714 23.4287H14.4844C13.9975 22.587 13.7143 21.6131 13.7143 20.5714ZM14.8571 11.7144C14.8571 11.2406 15.2405 10.8573 15.7143 10.8573H17.4286C17.9024 10.8573 18.2857 11.2406 18.2857 11.7144V13.4287C18.2857 13.9025 17.9024 14.2859 17.4286 14.2859H15.7143C15.2405 14.2859 14.8571 13.9025 14.8571 13.4287V11.7144ZM6.85714 19.7144C6.85714 20.1883 6.47381 20.5716 6 20.5716H4.28571C3.8119 20.5716 3.42857 20.1883 3.42857 19.7144V18.0002C3.42857 17.5263 3.8119 17.143 4.28571 17.143H6C6.47381 17.143 6.85714 17.5263 6.85714 18.0002V19.7144ZM6.85714 13.4287C6.85714 13.9025 6.47381 14.2859 6 14.2859H4.28571C3.8119 14.2859 3.42857 13.9025 3.42857 13.4287V11.7144C3.42857 11.2406 3.8119 10.8573 4.28571 10.8573H6C6.47381 10.8573 6.85714 11.2406 6.85714 11.7144V13.4287ZM12.5714 19.7144C12.5714 20.1883 12.1881 20.5716 11.7143 20.5716H10C9.52619 20.5716 9.14286 20.1883 9.14286 19.7144V18.0002C9.14286 17.5263 9.52619 17.143 10 17.143H11.7143C12.1881 17.143 12.5714 17.5263 12.5714 18.0002V19.7144ZM12.5714 13.4287C12.5714 13.9025 12.1881 14.2859 11.7143 14.2859H10C9.52619 14.2859 9.14286 13.9025 9.14286 13.4287V11.7144C9.14286 11.2406 9.52619 10.8573 10 10.8573H11.7143C12.1881 10.8573 12.5714 11.2406 12.5714 11.7144V13.4287Z" fill="black"/>
<path opacity="0.65" d="M21.7143 6.85715V4.57144C21.7143 2.99286 20.4357 1.71429 18.8571 1.71429H18.2857V2.85715C18.2857 4.11786 17.2607 5.14287 16 5.14287C14.7393 5.14287 13.7143 4.11786 13.7143 2.85715V1.71429H8V2.85715C8 4.11786 6.97499 5.14287 5.71429 5.14287C4.45358 5.14287 3.42857 4.11786 3.42857 2.85715V1.71429H2.85714C1.27857 1.71429 0 2.99286 0 4.57144V6.85715H21.7143Z" fill="black"/>
<path opacity="0.65" d="M5.71439 0C6.34534 0 6.85725 0.630949 6.85725 1.14286V2.85714C6.85725 3.48809 6.34534 4 5.71439 4C5.08344 4 4.57153 3.36905 4.57153 2.85714V1.14286C4.57153 0.511909 5.08344 0 5.71439 0Z" fill="black"/>
<path opacity="0.65" d="M16 0C16.631 0 17.1429 0.630949 17.1429 1.14286V2.85714C17.1429 3.48809 16.631 4 16 4C15.3691 4 14.8572 3.36905 14.8572 2.85714V1.14286C14.8572 0.511909 15.3691 0 16 0Z" fill="black"/>
<path opacity="0.65" d="M19.4286 16C16.9036 16 14.8572 18.0464 14.8572 20.5714C14.8572 23.0964 16.9036 25.1429 19.4286 25.1429C21.9536 25.1429 24 23.0964 24 20.5714C24 18.0464 21.9536 16 19.4286 16ZM21.5465 19.8321L19.2607 22.1178C19.1488 22.2297 19.0024 22.2856 18.8572 22.2856C18.7107 22.2856 18.5643 22.2297 18.4536 22.1178L17.3108 20.9749C17.0881 20.7523 17.0881 20.3904 17.3108 20.1666C17.5334 19.944 17.8953 19.944 18.1191 20.1666L18.8584 20.9059L20.7405 19.0238C20.9631 18.8011 21.325 18.8011 21.5488 19.0238C21.7715 19.2464 21.7715 19.6083 21.5488 19.8321H21.5465Z" fill="black"/>
</svg>
