<svg width="30" height="30" viewBox="0 0 30 30" fill="none" xmlns="http://www.w3.org/2000/svg">
<circle cx="15" cy="15" r="15" fill="#22FF7A"/>
<path d="M14.9837 20.8636H8.18917C7.53246 20.8636 7.00012 20.3313 7.00012 19.6746V18.4855H16.1258L14.9837 20.8636Z" fill="#D3DCFB"/>
<path d="M22.4595 11.3509V16.3465V19.6745H8.18917C7.53246 19.6745 7.00012 19.1422 7.00012 18.4855V11.3509L15.3244 8.37817L22.4595 11.3509Z" fill="#EBF5FC"/>
<path d="M9.09996 13.7291H8.46827C8.31436 13.7291 8.18958 13.6043 8.18958 13.4504V12.8187C8.18958 12.6648 8.31436 12.54 8.46827 12.54H9.09996C9.25387 12.54 9.37866 12.6648 9.37866 12.8187V13.4504C9.37866 13.6043 9.25387 13.7291 9.09996 13.7291Z" fill="#3C58A0"/>
<path d="M11.478 13.7291H10.8463C10.6924 13.7291 10.5676 13.6043 10.5676 13.4504V12.8187C10.5676 12.6648 10.6924 12.54 10.8463 12.54H11.478C11.6319 12.54 11.7567 12.6648 11.7567 12.8187V13.4504C11.7567 13.6043 11.6319 13.7291 11.478 13.7291Z" fill="#3C58A0"/>
<path d="M13.8562 13.7291H13.2245C13.0706 13.7291 12.9458 13.6043 12.9458 13.4504V12.8187C12.9458 12.6648 13.0706 12.54 13.2245 12.54H13.8562C14.0101 12.54 14.1349 12.6648 14.1349 12.8187V13.4504C14.1349 13.6043 14.0101 13.7291 13.8562 13.7291Z" fill="#3C58A0"/>
<path d="M16.2344 13.7291H15.6027C15.4488 13.7291 15.324 13.6043 15.324 13.4504V12.8187C15.324 12.6648 15.4488 12.54 15.6027 12.54H16.2344C16.3883 12.54 16.5131 12.6648 16.5131 12.8187V13.4504C16.5131 13.6043 16.3883 13.7291 16.2344 13.7291Z" fill="#3C58A0"/>
<path d="M18.6122 13.7291H17.9805C17.8266 13.7291 17.7018 13.6043 17.7018 13.4504V12.8187C17.7018 12.6648 17.8266 12.54 17.9805 12.54H18.6122C18.7661 12.54 18.8909 12.6648 18.8909 12.8187V13.4504C18.8909 13.6043 18.7661 13.7291 18.6122 13.7291Z" fill="#3C58A0"/>
<path d="M20.9903 13.7291H20.3586C20.2047 13.7291 20.08 13.6043 20.08 13.4504V12.8187C20.08 12.6648 20.2047 12.54 20.3586 12.54H20.9903C21.1443 12.54 21.269 12.6648 21.269 12.8187V13.4504C21.269 13.6043 21.1443 13.7291 20.9903 13.7291Z" fill="#3C58A0"/>
<path d="M9.09984 16.1073H8.46815C8.31424 16.1073 8.18945 15.9825 8.18945 15.8286V15.1969C8.18945 15.043 8.31424 14.9182 8.46815 14.9182H9.09984C9.25375 14.9182 9.37854 15.043 9.37854 15.1969V15.8286C9.37854 15.9825 9.25375 16.1073 9.09984 16.1073Z" fill="#3C58A0"/>
<path d="M11.478 16.1073H10.8463C10.6924 16.1073 10.5676 15.9825 10.5676 15.8286V15.1969C10.5676 15.043 10.6924 14.9182 10.8463 14.9182H11.478C11.6319 14.9182 11.7567 15.043 11.7567 15.1969V15.8286C11.7567 15.9825 11.6319 16.1073 11.478 16.1073Z" fill="#3C58A0"/>
<path d="M13.8562 16.1073H13.2245C13.0706 16.1073 12.9458 15.9825 12.9458 15.8286V15.1969C12.9458 15.043 13.0706 14.9182 13.2245 14.9182H13.8562C14.0101 14.9182 14.1349 15.043 14.1349 15.1969V15.8286C14.1349 15.9825 14.0101 16.1073 13.8562 16.1073Z" fill="#3C58A0"/>
<path d="M16.5131 16.1073V15.2155C16.5131 15.0513 16.38 14.9182 16.2158 14.9182H15.6212C15.4571 14.9182 15.324 15.0513 15.324 15.2155V15.81C15.324 15.9742 15.4571 16.1073 15.6212 16.1073H16.5131Z" fill="#3C58A0"/>
<path d="M9.09984 18.4855H8.46815C8.31424 18.4855 8.18945 18.3607 8.18945 18.2068V17.5751C8.18945 17.4212 8.31424 17.2964 8.46815 17.2964H9.09984C9.25375 17.2964 9.37854 17.4212 9.37854 17.5751V18.2068C9.37854 18.3607 9.25375 18.4855 9.09984 18.4855Z" fill="#3C58A0"/>
<path d="M11.478 18.4855H10.8463C10.6924 18.4855 10.5676 18.3607 10.5676 18.2068V17.5751C10.5676 17.4212 10.6924 17.2964 10.8463 17.2964H11.478C11.6319 17.2964 11.7567 17.4212 11.7567 17.5751V18.2068C11.7567 18.3607 11.6319 18.4855 11.478 18.4855Z" fill="#3C58A0"/>
<path d="M13.8562 18.4855H13.2245C13.0706 18.4855 12.9458 18.3607 12.9458 18.2068V17.5751C12.9458 17.4212 13.0706 17.2964 13.2245 17.2964H13.8562C14.0101 17.2964 14.1349 17.4212 14.1349 17.5751V18.2068C14.1349 18.3607 14.0101 18.4855 13.8562 18.4855Z" fill="#3C58A0"/>
<path d="M20.9821 12.54H20.3672C20.33 12.54 20.2946 12.5474 20.262 12.5602C20.3684 12.6022 20.4438 12.7058 20.4438 12.8271V13.442C20.4438 13.5634 20.3684 13.6669 20.262 13.7089C20.2946 13.7218 20.33 13.7291 20.3672 13.7291H20.9821C21.1407 13.7291 21.2692 13.6006 21.2692 13.442V12.8272C21.2692 12.6686 21.1406 12.54 20.9821 12.54Z" fill="#2A428C"/>
<path d="M18.6039 12.54H17.9891C17.9519 12.54 17.9164 12.5474 17.8838 12.5602C17.9902 12.6022 18.0656 12.7058 18.0656 12.8271V13.442C18.0656 13.5634 17.9902 13.6669 17.8838 13.7089C17.9164 13.7218 17.9519 13.7291 17.9891 13.7291H18.6039C18.7625 13.7291 18.891 13.6006 18.891 13.442V12.8272C18.891 12.6686 18.7625 12.54 18.6039 12.54Z" fill="#2A428C"/>
<path d="M16.2261 12.54H15.6113C15.5741 12.54 15.5386 12.5474 15.506 12.5602C15.6124 12.6022 15.6878 12.7058 15.6878 12.8271V13.442C15.6878 13.5634 15.6124 13.6669 15.506 13.7089C15.5386 13.7218 15.5741 13.7291 15.6113 13.7291H16.2261C16.3847 13.7291 16.5133 13.6006 16.5133 13.442V12.8272C16.5132 12.6686 16.3847 12.54 16.2261 12.54Z" fill="#2A428C"/>
<path d="M13.848 12.54H13.2331C13.1959 12.54 13.1604 12.5474 13.1278 12.5602C13.2342 12.6022 13.3097 12.7058 13.3097 12.8271V13.442C13.3097 13.5634 13.2342 13.6669 13.1278 13.7089C13.1604 13.7218 13.1959 13.7291 13.2331 13.7291H13.848C14.0065 13.7291 14.1351 13.6006 14.1351 13.442V12.8272C14.135 12.6686 14.0065 12.54 13.848 12.54Z" fill="#2A428C"/>
<path d="M11.4697 12.54H10.8548C10.8176 12.54 10.7822 12.5474 10.7495 12.5602C10.8559 12.6022 10.9313 12.7058 10.9313 12.8271V13.442C10.9313 13.5634 10.8559 13.6669 10.7495 13.7089C10.7822 13.7218 10.8176 13.7291 10.8548 13.7291H11.4697C11.6282 13.7291 11.7568 13.6006 11.7568 13.442V12.8272C11.7568 12.6686 11.6282 12.54 11.4697 12.54Z" fill="#2A428C"/>
<path d="M9.09148 12.54H8.47661C8.43941 12.54 8.40398 12.5474 8.37134 12.5602C8.47776 12.6022 8.55319 12.7058 8.55319 12.8271V13.442C8.55319 13.5634 8.47776 13.6669 8.37134 13.7089C8.40398 13.7218 8.43941 13.7291 8.47661 13.7291H9.09148C9.25006 13.7291 9.37861 13.6006 9.37861 13.442V12.8272C9.37857 12.6686 9.25003 12.54 9.09148 12.54Z" fill="#2A428C"/>
<path d="M9.09148 14.9182H8.47661C8.43941 14.9182 8.40398 14.9255 8.37134 14.9384C8.47776 14.9804 8.55319 15.0839 8.55319 15.2053V15.8202C8.55319 15.9416 8.47776 16.0451 8.37134 16.0871C8.40398 16.1 8.43941 16.1073 8.47661 16.1073H9.09148C9.25006 16.1073 9.37861 15.9788 9.37861 15.8202V15.2053C9.37857 15.0468 9.25003 14.9182 9.09148 14.9182Z" fill="#2A428C"/>
<path d="M9.09148 17.2964H8.47661C8.43941 17.2964 8.40398 17.3037 8.37134 17.3166C8.47776 17.3586 8.55319 17.4621 8.55319 17.5835V18.1984C8.55319 18.3198 8.47776 18.4233 8.37134 18.4653C8.40398 18.4782 8.43941 18.4855 8.47661 18.4855H9.09148C9.25006 18.4855 9.37861 18.357 9.37861 18.1984V17.5835C9.37857 17.4249 9.25003 17.2964 9.09148 17.2964Z" fill="#2A428C"/>
<path d="M11.4697 14.9182H10.8548C10.8176 14.9182 10.7822 14.9255 10.7495 14.9384C10.8559 14.9804 10.9313 15.0839 10.9313 15.2053V15.8202C10.9313 15.9416 10.8559 16.0451 10.7495 16.0871C10.7822 16.1 10.8176 16.1073 10.8548 16.1073H11.4697C11.6282 16.1073 11.7568 15.9788 11.7568 15.8202V15.2053C11.7568 15.0468 11.6282 14.9182 11.4697 14.9182Z" fill="#2A428C"/>
<path d="M11.4697 17.2964H10.8548C10.8176 17.2964 10.7822 17.3037 10.7495 17.3166C10.8559 17.3586 10.9313 17.4621 10.9313 17.5835V18.1984C10.9313 18.3198 10.8559 18.4233 10.7495 18.4653C10.7822 18.4782 10.8176 18.4855 10.8548 18.4855H11.4697C11.6282 18.4855 11.7568 18.357 11.7568 18.1984V17.5835C11.7568 17.4249 11.6282 17.2964 11.4697 17.2964Z" fill="#2A428C"/>
<path d="M13.848 14.9182H13.2331C13.1959 14.9182 13.1604 14.9255 13.1278 14.9384C13.2342 14.9804 13.3097 15.0839 13.3097 15.2053V15.8202C13.3097 15.9416 13.2342 16.0451 13.1278 16.0871C13.1604 16.1 13.1959 16.1073 13.2331 16.1073H13.848C14.0065 16.1073 14.1351 15.9788 14.1351 15.8202V15.2053C14.135 15.0468 14.0065 14.9182 13.848 14.9182Z" fill="#2A428C"/>
<path d="M16.5133 16.1073V15.2053C16.5133 15.0467 16.3847 14.9182 16.2261 14.9182H15.6113C15.5741 14.9182 15.5386 14.9255 15.506 14.9384C15.6124 14.9804 15.6878 15.0839 15.6878 15.2053V15.8202C15.6878 15.9416 15.6124 16.0451 15.506 16.0871C15.5386 16.1 15.5741 16.1073 15.6113 16.1073H16.5133V16.1073Z" fill="#2A428C"/>
<path d="M13.848 17.2964H13.2331C13.1959 17.2964 13.1604 17.3037 13.1278 17.3166C13.2342 17.3586 13.3097 17.4621 13.3097 17.5835V18.1984C13.3097 18.3198 13.2342 18.4233 13.1278 18.4653C13.1604 18.4782 13.1959 18.4855 13.2331 18.4855H13.848C14.0065 18.4855 14.1351 18.357 14.1351 18.1984V17.5835C14.135 17.4249 14.0065 17.2964 13.848 17.2964Z" fill="#2A428C"/>
<path d="M21.6334 11.0068V16.3465V19.6746H22.4594V16.3465V11.351L21.6334 11.0068Z" fill="#D3DCFB"/>
<path d="M22.4595 11.351V8.37826C22.4595 7.72155 21.9271 7.18921 21.2704 7.18921H8.18917C7.53246 7.18921 7.00012 7.72155 7.00012 8.37826V11.351H22.4595Z" fill="#FF4155"/>
<path d="M10.7469 8.64743H9.97288C9.8242 8.64743 9.70374 8.52693 9.70374 8.37828C9.70374 8.22963 9.82424 8.10913 9.97288 8.10913H10.7469C10.8955 8.10913 11.016 8.22963 11.016 8.37828C11.016 8.52693 10.8955 8.64743 10.7469 8.64743Z" fill="#E80054"/>
<path d="M12.6482 8.64743H11.8743C11.7256 8.64743 11.6051 8.52693 11.6051 8.37828C11.6051 8.22963 11.7256 8.10913 11.8743 8.10913H12.6482C12.7969 8.10913 12.9174 8.22963 12.9174 8.37828C12.9174 8.52693 12.7969 8.64743 12.6482 8.64743Z" fill="#E80054"/>
<path d="M17.5845 8.64743H16.8105C16.6618 8.64743 16.5414 8.52693 16.5414 8.37828C16.5414 8.22963 16.6619 8.10913 16.8105 8.10913H17.5845C17.7332 8.10913 17.8537 8.22963 17.8537 8.37828C17.8537 8.52693 17.7332 8.64743 17.5845 8.64743Z" fill="#E80054"/>
<path d="M19.486 8.64743H18.712C18.5633 8.64743 18.4429 8.52693 18.4429 8.37828C18.4429 8.22963 18.5634 8.10913 18.712 8.10913H19.486C19.6347 8.10913 19.7552 8.22963 19.7552 8.37828C19.7552 8.52693 19.6347 8.64743 19.486 8.64743Z" fill="#E80054"/>
<path d="M12.0536 8.22955C12.0536 8.64 11.7209 8.97272 11.3104 8.97272C10.9 8.97272 10.5673 8.64 10.5673 8.22955V6.74317C10.5672 6.33273 10.9 6 11.3104 6C11.7208 6 12.0536 6.33273 12.0536 6.74317V8.22955H12.0536Z" fill="#EBF5FC"/>
<path d="M18.8914 8.22955C18.8914 8.64 18.5587 8.97272 18.1482 8.97272C17.7378 8.97272 17.405 8.64 17.405 8.22955V6.74317C17.405 6.33273 17.7378 6 18.1482 6C18.5586 6 18.8914 6.33273 18.8914 6.74317V8.22955H18.8914Z" fill="#EBF5FC"/>
<path d="M18.1482 6C17.9956 6 17.8539 6.04612 17.7358 6.12499C17.9353 6.25828 18.0667 6.48531 18.0667 6.74321V8.22955C18.0667 8.48741 17.9353 8.71448 17.7358 8.84776C17.8538 8.9266 17.9956 8.97276 18.1482 8.97276C18.5586 8.97276 18.8913 8.64003 18.8913 8.22959V6.74317C18.8914 6.33273 18.5586 6 18.1482 6Z" fill="#D3DCFB"/>
<path d="M11.3104 6C11.1578 6 11.0161 6.04612 10.8981 6.12499C11.0975 6.25828 11.229 6.48531 11.229 6.74321V8.22955C11.229 8.48741 11.0975 8.71448 10.8981 8.84776C11.0161 8.9266 11.1578 8.97276 11.3104 8.97276C11.7208 8.97276 12.0536 8.64003 12.0536 8.22959V6.74317C12.0536 6.33273 11.7209 6 11.3104 6Z" fill="#D3DCFB"/>
<path d="M21.2703 7.18909H20.4446C21.1013 7.18909 21.6336 7.72143 21.6336 8.37813V11.3509H22.4593V8.37817C22.4594 7.72146 21.927 7.18909 21.2703 7.18909Z" fill="#E80054"/>
<path d="M7.00012 9.89258H22.4595V10.4309H7.00012V9.89258Z" fill="#E80054"/>
<path d="M19.1888 23.8364C21.6515 23.8364 23.6479 21.84 23.6479 19.3773C23.6479 16.9146 21.6515 14.9182 19.1888 14.9182C16.7261 14.9182 14.7297 16.9146 14.7297 19.3773C14.7297 21.84 16.7261 23.8364 19.1888 23.8364Z" fill="#4FABF7"/>
<path d="M19.1887 22.6473C20.9947 22.6473 22.4587 21.1833 22.4587 19.3773C22.4587 17.5713 20.9947 16.1073 19.1887 16.1073C17.3827 16.1073 15.9187 17.5713 15.9187 19.3773C15.9187 21.1833 17.3827 22.6473 19.1887 22.6473Z" fill="#EBF5FC"/>
<path d="M19.1888 19.0519C19.0401 19.0519 18.9197 18.9314 18.9197 18.7827V17.2964C18.9197 17.1477 19.0402 17.0272 19.1888 17.0272C19.3375 17.0272 19.458 17.1477 19.458 17.2964V18.7827C19.458 18.9314 19.3375 19.0519 19.1888 19.0519Z" fill="#3C58A0"/>
<path d="M20.6752 19.6465H19.7833C19.6346 19.6465 19.5142 19.526 19.5142 19.3773C19.5142 19.2287 19.6347 19.1082 19.7833 19.1082H20.6752C20.8238 19.1082 20.9443 19.2287 20.9443 19.3773C20.9443 19.526 20.8238 19.6465 20.6752 19.6465Z" fill="#3C58A0"/>
<path d="M19.1889 14.9182C19.0497 14.9182 18.9121 14.9249 18.7762 14.9374C21.0453 15.1457 22.8225 17.0538 22.8225 19.3773C22.8225 21.7008 21.0453 23.6089 18.7761 23.8172C18.9121 23.8297 19.0497 23.8364 19.1888 23.8364C21.6515 23.8364 23.6479 21.84 23.6479 19.3773C23.6479 16.9146 21.6515 14.9182 19.1889 14.9182Z" fill="#1886EA"/>
<path d="M19.1889 16.1073C19.0492 16.1073 18.9116 16.1161 18.7765 16.1331C20.3878 16.3359 21.6341 17.711 21.6341 19.3773C21.6341 21.0436 20.3878 22.4187 18.7765 22.6215C18.9116 22.6385 19.0492 22.6473 19.1889 22.6473C20.9949 22.6473 22.4589 21.1833 22.4589 19.3773C22.4589 17.5713 20.9949 16.1073 19.1889 16.1073Z" fill="#D3DCFB"/>
<path d="M19.1888 19.9718C19.5172 19.9718 19.7834 19.7056 19.7834 19.3773C19.7834 19.0489 19.5172 18.7827 19.1888 18.7827C18.8604 18.7827 18.5942 19.0489 18.5942 19.3773C18.5942 19.7056 18.8604 19.9718 19.1888 19.9718Z" fill="#FFDD40"/>
</svg>
