<svg width="25" height="22" viewBox="0 0 25 22" fill="none" xmlns="http://www.w3.org/2000/svg">
<g opacity="0.75">
<path fill-rule="evenodd" clip-rule="evenodd" d="M20.146 0.839395V5.31617C20.146 5.77951 20.522 6.15556 20.9854 6.15556C21.4487 6.15556 21.8248 5.77951 21.8248 5.31617V0.839395C21.8248 0.376049 21.4487 0 20.9854 0C20.522 0 20.146 0.376049 20.146 0.839395Z" fill="black"/>
<path fill-rule="evenodd" clip-rule="evenodd" d="M18.7466 3.91719H23.2234C23.6867 3.91719 24.0628 3.54114 24.0628 3.0778C24.0628 2.61445 23.6867 2.2384 23.2234 2.2384H18.7466C18.2833 2.2384 17.9072 2.61445 17.9072 3.0778C17.9072 3.54114 18.2833 3.91719 18.7466 3.91719Z" fill="black"/>
<path fill-rule="evenodd" clip-rule="evenodd" d="M14.2697 0.559631H8.80581C8.06378 0.559631 7.38555 0.979329 7.05427 1.64189L5.9944 3.76276C5.94627 3.85677 5.85002 3.91721 5.7437 3.91721H3.07778C1.37773 3.91721 0 5.29494 0 6.99499V18.1869C0 19.0028 0.324566 19.7862 0.90095 20.3637C1.47845 20.9401 2.26189 21.2647 3.07778 21.2647H20.9849C21.8008 21.2647 22.5842 20.9401 23.1617 20.3637C23.7381 19.7862 24.0626 19.0028 24.0626 18.1869C24.0626 14.7767 24.0626 8.67378 24.0626 8.67378C24.0626 8.21043 23.6866 7.83438 23.2232 7.83438C22.7599 7.83438 22.3839 8.21043 22.3839 8.67378V18.1869C22.3839 18.5585 22.2361 18.9133 21.9742 19.1763C21.7112 19.4382 21.3564 19.5859 20.9849 19.5859H3.07778C2.70621 19.5859 2.35142 19.4382 2.08841 19.1763C1.82652 18.9133 1.67879 18.5585 1.67879 18.1869V6.99499C1.67879 6.22275 2.30554 5.596 3.07778 5.596H5.7437C6.48572 5.596 7.16395 5.1763 7.49523 4.51374L8.55511 2.39287C8.60323 2.29886 8.69949 2.23842 8.80581 2.23842H14.2697C14.7331 2.23842 15.1091 1.86237 15.1091 1.39903C15.1091 0.93568 14.7331 0.559631 14.2697 0.559631Z" fill="black"/>
<path fill-rule="evenodd" clip-rule="evenodd" d="M12.0315 6.71515C9.09697 6.71515 6.71533 9.09679 6.71533 12.0313C6.71533 14.9658 9.09697 17.3475 12.0315 17.3475C14.966 17.3475 17.3477 14.9658 17.3477 12.0313C17.3477 9.09679 14.966 6.71515 12.0315 6.71515ZM12.0315 8.39394C14.0393 8.39394 15.6689 10.0235 15.6689 12.0313C15.6689 14.0391 14.0393 15.6687 12.0315 15.6687C10.0237 15.6687 8.39412 14.0391 8.39412 12.0313C8.39412 10.0235 10.0237 8.39394 12.0315 8.39394Z" fill="black"/>
</g>
</svg>
