<svg width="58" height="57" viewBox="0 0 58 57" fill="none" xmlns="http://www.w3.org/2000/svg">
<path d="M1.99991 56.5002C1.96323 56.5001 1.92667 56.4959 1.89091 56.4877C1.7615 56.4589 1.64882 56.3799 1.57765 56.2681C1.50649 56.1562 1.48266 56.0207 1.51141 55.8912L3.51141 46.8912C3.54218 46.7639 3.62172 46.6537 3.7329 46.5844C3.84409 46.5151 3.97804 46.4922 4.10594 46.5206C4.23384 46.549 4.34547 46.6265 4.41681 46.7364C4.48815 46.8463 4.5135 46.9799 4.48741 47.1083L2.48741 56.1082C2.46285 56.2193 2.40116 56.3186 2.31254 56.3899C2.22391 56.4611 2.11364 56.5001 1.99991 56.5002Z" fill="#CCCCCC"/>
<path d="M12 56.5C11.8863 56.4999 11.7761 56.461 11.6875 56.3898C11.5989 56.3186 11.5372 56.2194 11.5125 56.1084L9.51252 47.1084C9.49692 47.0438 9.49434 46.9768 9.50494 46.9112C9.51553 46.8456 9.53909 46.7828 9.57424 46.7265C9.60938 46.6701 9.65541 46.6213 9.70963 46.5829C9.76385 46.5445 9.82517 46.5173 9.89002 46.5029C9.95486 46.4885 10.0219 46.4871 10.0873 46.4989C10.1527 46.5107 10.2151 46.5354 10.2708 46.5716C10.3265 46.6078 10.3744 46.6547 10.4118 46.7096C10.4492 46.7645 10.4753 46.8263 10.4885 46.8914L12.4885 55.8914C12.5046 55.9645 12.5042 56.0403 12.4871 56.1132C12.4701 56.1861 12.4369 56.2543 12.39 56.3127C12.3432 56.3711 12.2838 56.4182 12.2163 56.4507C12.1488 56.4831 12.0749 56.4999 12 56.5Z" fill="#CCCCCC"/>
<path d="M56 56.5001C55.8863 56.5 55.776 56.4611 55.6874 56.3899C55.5988 56.3187 55.5371 56.2195 55.5125 56.1085L53.5125 47.1085C53.4864 46.9801 53.5117 46.8466 53.5831 46.7367C53.6544 46.6268 53.766 46.5493 53.8939 46.5209C54.0218 46.4924 54.1558 46.5153 54.267 46.5847C54.3781 46.654 54.4577 46.7642 54.4885 46.8915L56.4884 55.8915C56.5046 55.9646 56.5041 56.0404 56.4871 56.1133C56.47 56.1863 56.4368 56.2544 56.39 56.3128C56.3431 56.3712 56.2837 56.4184 56.2162 56.4508C56.1487 56.4832 56.0748 56.5001 56 56.5001Z" fill="#CCCCCC"/>
<path d="M43.9999 56.5002C43.9632 56.5001 43.9267 56.4959 43.8909 56.4877C43.7615 56.4589 43.6488 56.3799 43.5777 56.2681C43.5065 56.1562 43.4827 56.0207 43.5114 55.8912L45.5114 46.8912C45.5422 46.7639 45.6217 46.6537 45.7329 46.5844C45.8441 46.5151 45.978 46.4922 46.1059 46.5206C46.2338 46.549 46.3455 46.6265 46.4168 46.7364C46.4881 46.8463 46.5135 46.9799 46.4874 47.1083L44.4874 56.1082C44.4628 56.2193 44.4012 56.3186 44.3125 56.3899C44.2239 56.4611 44.1136 56.5001 43.9999 56.5002Z" fill="#CCCCCC"/>
<path d="M2.99999 40.7963V32.55C3.0048 32.1509 2.8537 31.7656 2.57882 31.4761C2.30395 31.1867 1.92699 31.0159 1.52812 31C1.32879 30.9963 1.1307 31.0323 0.945457 31.106C0.76021 31.1798 0.591516 31.2897 0.449235 31.4293C0.306955 31.569 0.193945 31.7356 0.11681 31.9194C0.0396755 32.1033 -3.50257e-05 32.3007 2.31806e-08 32.5V45.4771C-1.63944e-05 45.6771 0.0393627 45.8752 0.115888 46.0599C0.192414 46.2447 0.304587 46.4126 0.446002 46.554C0.587417 46.6954 0.755304 46.8076 0.940075 46.8841C1.12485 46.9606 1.32288 47 1.52287 47H12.5882C12.9626 46.9998 13.3215 46.851 13.5863 46.5863C13.851 46.3216 13.9998 45.9626 14 45.5883V44H6.20374C5.35405 44 4.53917 43.6625 3.93835 43.0617C3.33753 42.4608 2.99999 41.646 2.99999 40.7963Z" fill="#999999"/>
<path d="M56.4718 31C56.073 31.0159 55.696 31.1867 55.4211 31.4761C55.1463 31.7656 54.9952 32.1509 55 32.55V40.7963C55 41.646 54.6624 42.4608 54.0616 43.0617C53.4608 43.6625 52.6459 44 51.7962 44H42V45.5883C42.0002 45.9626 42.149 46.3216 42.4137 46.5863C42.6784 46.851 43.0374 46.9998 43.4117 47H56.4771C56.6771 47 56.8751 46.9606 57.0599 46.8841C57.2447 46.8076 57.4125 46.6954 57.554 46.554C57.6954 46.4126 57.8076 46.2447 57.8841 46.0599C57.9606 45.8752 58 45.6771 58 45.4771V32.5C58 32.3007 57.9603 32.1033 57.8832 31.9194C57.806 31.7356 57.693 31.569 57.5507 31.4293C57.4084 31.2897 57.2398 31.1798 57.0545 31.106C56.8693 31.0323 56.6712 30.9963 56.4718 31Z" fill="#999999"/>
<path d="M11 0.999924C12.3132 0.999924 13.6135 1.25858 14.8268 1.76113C16.0401 2.26367 17.1424 3.00027 18.071 3.92885C18.9996 4.85743 19.7362 5.95982 20.2388 7.17308C20.7413 8.38633 21 9.68669 21 10.9999V17.1383C21 18.4276 20.4878 19.6642 19.576 20.5759C18.6643 21.4877 17.4277 21.9999 16.1383 21.9999H5.86161C4.57223 21.9999 3.33566 21.4877 2.42393 20.5759C1.5122 19.6642 1 18.4276 1 17.1383V10.9999C1 8.34774 2.05357 5.80421 3.92893 3.92885C5.80429 2.05349 8.34782 0.999924 11 0.999924Z" fill="#534741"/>
<path d="M9 18.9999H13V23.9999H9V18.9999Z" fill="#F5C199"/>
<path d="M11 22C12.1046 22 13 21.1045 13 20C13 18.8954 12.1046 18 11 18C9.89543 18 9 18.8954 9 20C9 21.1045 9.89543 22 11 22Z" fill="#E6AE8A"/>
<path d="M52.0001 26.9999L49.1802 23.1102L45.0001 13H41.9266C41.1118 13 40.3239 12.7083 39.7055 12.1778C39.0871 11.6473 38.679 10.9129 38.5551 10.1076C38.3628 8.85736 38.4431 7.58032 38.7905 6.36401C39.1379 5.1477 39.7442 4.0209 40.5679 3.06085C41.3915 2.1008 42.413 1.3302 43.5623 0.801879C44.7117 0.273561 45.9617 1.6854e-05 47.2266 0C49.5535 0 51.7851 0.924346 53.4304 2.56969C55.0758 4.21504 56.0001 6.44661 56.0001 8.77348V22.9999C56.0001 24.0608 55.5787 25.0782 54.8285 25.8284C54.0784 26.5785 53.061 26.9999 52.0001 26.9999Z" fill="#333333"/>
<path d="M45 18.2499H49V22.9999H45V18.2499Z" fill="#D8946C"/>
<path d="M47 19.9998C48.1046 19.9998 49 19.1044 49 17.9999C49 16.8953 48.1046 15.9999 47 15.9999C45.8954 15.9999 45 16.8953 45 17.9999C45 19.1044 45.8954 19.9998 47 19.9998Z" fill="#C17E5D"/>
<path d="M11 19.9999C9.40869 19.9999 7.88257 19.3678 6.75736 18.2425C5.63214 17.1173 5 15.5912 5 13.9999V11.322C4.99998 11.1484 5.03417 10.9765 5.10061 10.8161C5.16704 10.6557 5.26443 10.5099 5.3872 10.3871C5.50998 10.2643 5.65573 10.167 5.81615 10.1005C5.97656 10.0341 6.14849 9.9999 6.32212 9.99992C8.41737 9.99989 10.4893 9.56021 12.404 8.7093L14 7.99992L16.4112 9.60742C16.5923 9.72814 16.7408 9.8917 16.8435 10.0836C16.9462 10.2755 17 10.4898 17 10.7074V13.9999C17 15.5912 16.3678 17.1173 15.2426 18.2425C14.1174 19.3678 12.5913 19.9999 11 19.9999Z" fill="#F5C199"/>
<path d="M47 19C48.5913 19 50.1174 18.3678 51.2426 17.2426C52.3678 16.1174 53 14.5913 53 13V10.3221C53 10.1485 52.9658 9.97656 52.8994 9.81614C52.8329 9.65573 52.7355 9.50997 52.6128 9.3872C52.49 9.26443 52.3442 9.16704 52.1838 9.1006C52.0234 9.03416 51.8515 8.99998 51.6779 9C49.5826 8.99997 47.5107 8.56029 45.596 7.70937L44 7L41.5887 8.6075C41.4076 8.72822 41.2592 8.89178 41.1564 9.08367C41.0537 9.27556 41 9.48985 41 9.70749V13C41 14.5913 41.6321 16.1174 42.7574 17.2426C43.8826 18.3678 45.4087 19 47 19Z" fill="#D8946C"/>
<path d="M8.74983 14.0575C9.22922 14.0575 9.61783 13.6689 9.61783 13.1895C9.61783 12.7101 9.22922 12.3215 8.74983 12.3215C8.27045 12.3215 7.88184 12.7101 7.88184 13.1895C7.88184 13.6689 8.27045 14.0575 8.74983 14.0575Z" fill="#534741"/>
<path d="M13.2572 14.0575C13.7365 14.0575 14.1252 13.6689 14.1252 13.1895C14.1252 12.7101 13.7365 12.3215 13.2572 12.3215C12.7778 12.3215 12.3892 12.7101 12.3892 13.1895C12.3892 13.6689 12.7778 14.0575 13.2572 14.0575Z" fill="#534741"/>
<path d="M23 54.9999H18.4096C18.0358 54.9999 17.6772 54.8514 17.4129 54.587C17.1485 54.3227 17 53.9641 17 53.5903V39.9999H21V51.9999C21.5304 51.9999 22.0391 52.2106 22.4142 52.5857C22.7893 52.9607 23 53.4694 23 53.9999V54.9999Z" fill="#F5C199"/>
<path d="M23.1613 43.9998H9.26312C8.3978 43.9998 7.56793 43.6561 6.956 43.0442C6.34407 42.4324 6.0002 41.6026 6 40.7373V25.116C6 24.5547 6.22295 24.0165 6.6198 23.6197C7.01665 23.2228 7.55489 22.9999 8.11612 22.9999H14.1145C15.145 22.9999 16.1333 23.4092 16.8619 24.1379C17.5906 24.8666 18 25.8548 18 26.8853V29.9998C19.6766 30.2793 21.1997 31.1444 22.2984 32.4413C23.397 33.7382 24 35.3828 24 37.0826V43.1612C24 43.2713 23.9783 43.3804 23.9361 43.4821C23.894 43.5839 23.8322 43.6763 23.7543 43.7542C23.6765 43.8321 23.584 43.8938 23.4823 43.936C23.3805 43.9781 23.2715 43.9998 23.1613 43.9998Z" fill="#BD9FCA"/>
<path d="M13 27.9999C13 26.8953 12.1046 25.9999 11 25.9999C9.89543 25.9999 9 26.8953 9 27.9999V37.9999C9 39.1044 9.89543 39.9999 11 39.9999C12.1046 39.9999 13 39.1044 13 37.9999V27.9999Z" fill="#F5C199"/>
<path d="M44.7493 12.9326C45.2287 12.9326 45.6173 12.544 45.6173 12.0646C45.6173 11.5852 45.2287 11.1966 44.7493 11.1966C44.27 11.1966 43.8813 11.5852 43.8813 12.0646C43.8813 12.544 44.27 12.9326 44.7493 12.9326Z" fill="#333333"/>
<path d="M49.2493 12.9326C49.7287 12.9326 50.1173 12.544 50.1173 12.0646C50.1173 11.5852 49.7287 11.1966 49.2493 11.1966C48.77 11.1966 48.3813 11.5852 48.3813 12.0646C48.3813 12.544 48.77 12.9326 49.2493 12.9326Z" fill="#333333"/>
<path d="M37.5604 54.5116L35.305 55.0116C34.8249 55.1178 34.3222 55.0291 33.9075 54.7648C33.4929 54.5005 33.2001 54.0823 33.0937 53.6022C33.0193 53.266 33.04 52.9157 33.1534 52.5906C33.2668 52.2655 33.4685 51.9784 33.7359 51.7614L34.5825 51.0739L31.5551 37.4052C31.4404 36.8873 31.5362 36.3451 31.8213 35.8978C32.1064 35.4505 32.5575 35.1348 33.0754 35.0201C33.5932 34.9054 34.1355 35.0011 34.5828 35.2862C35.03 35.5713 35.3458 36.0224 35.4605 36.5402L38.9557 52.3219C39.0079 52.5573 39.0132 52.8007 38.9713 53.0381C38.9294 53.2756 38.8412 53.5025 38.7116 53.7058C38.582 53.9091 38.4137 54.0849 38.2161 54.2232C38.0186 54.3614 37.7958 54.4594 37.5604 54.5116Z" fill="#D8946C"/>
<path d="M46.287 43.9999H34.6995C34.5761 43.9999 34.4569 43.9542 34.365 43.8718C34.2732 43.7893 34.215 43.6758 34.2017 43.553L33.3047 35.2552C33.2975 35.1892 33.3036 35.1224 33.3225 35.0588C33.3414 34.9952 33.3727 34.9359 33.4147 34.8845C33.4567 34.8331 33.5085 34.7905 33.567 34.7593C33.6256 34.7281 33.6898 34.7088 33.7559 34.7027L51.9995 32.9999V38.2874C51.9995 39.8024 51.3976 41.2554 50.3263 42.3267C49.255 43.398 47.802 43.9999 46.287 43.9999Z" fill="#716079"/>
<path d="M51.9995 36.9999L42.3479 35.3913C41.6917 35.2819 41.0955 34.9433 40.6655 34.4357C40.2355 33.928 39.9995 33.2843 39.9995 32.6191V27.9999C39.9995 26.3711 40.6466 24.809 41.7984 23.6572C42.9502 22.5054 44.5123 21.8584 46.1411 21.8583H49.5735C49.8921 21.8583 50.2075 21.9211 50.5019 22.043C50.7962 22.1649 51.0637 22.3436 51.2889 22.5689C51.5142 22.7942 51.6929 23.0616 51.8148 23.3559C51.9367 23.6503 51.9995 23.9657 51.9995 24.2843V36.9999Z" fill="#E6E6E6"/>
<path d="M43.0001 22.7499L26.5161 29.284C26.2834 29.3753 26.0724 29.5143 25.8967 29.692C25.721 29.8698 25.5844 30.0824 25.4958 30.3161C25.4071 30.5498 25.3684 30.7995 25.3821 31.0491C25.3957 31.2986 25.4615 31.5426 25.5751 31.7652C25.7779 32.1623 26.1214 32.4694 26.5386 32.6266C26.9558 32.7838 27.4167 32.7798 27.831 32.6152L40.0391 27.7687L43.0001 22.7499Z" fill="#D8946C"/>
<path d="M47 23.9998H52V27.9998H47V23.9998Z" fill="#E6E6E6"/>
<path d="M47.9995 28H51.9995V41C51.9995 41.5304 51.7888 42.0391 51.4137 42.4142C51.0386 42.7893 50.5299 43 49.9995 43C49.4691 43 48.9604 42.7893 48.5853 42.4142C48.2102 42.0391 47.9995 41.5304 47.9995 41V28Z" fill="#D8946C"/>
<path d="M8.00048 15.625H7.00049C6.83473 15.625 6.67576 15.5591 6.55855 15.4419C6.44134 15.3247 6.37549 15.1657 6.37549 15C6.37549 14.8342 6.44134 14.6752 6.55855 14.558C6.67576 14.4408 6.83473 14.375 7.00049 14.375H8.00048C8.16624 14.375 8.32522 14.4408 8.44243 14.558C8.55964 14.6752 8.62548 14.8342 8.62548 15C8.62548 15.1657 8.55964 15.3247 8.44243 15.4419C8.32522 15.5591 8.16624 15.625 8.00048 15.625Z" fill="#E6AE8A"/>
<path d="M15 15.625H14C13.8342 15.625 13.6753 15.5591 13.5581 15.4419C13.4408 15.3247 13.375 15.1657 13.375 15C13.375 14.8342 13.4408 14.6752 13.5581 14.558C13.6753 14.4408 13.8342 14.375 14 14.375H15C15.1658 14.375 15.3247 14.4408 15.4419 14.558C15.5591 14.6752 15.625 14.8342 15.625 15C15.625 15.1657 15.5591 15.3247 15.4419 15.4419C15.3247 15.5591 15.1658 15.625 15 15.625Z" fill="#E6AE8A"/>
<path d="M43.9995 14.6251H42.9995C42.8338 14.6251 42.6748 14.5592 42.5576 14.442C42.4404 14.3248 42.3745 14.1658 42.3745 14.0001C42.3745 13.8343 42.4404 13.6753 42.5576 13.5581C42.6748 13.4409 42.8338 13.3751 42.9995 13.3751H43.9995C44.1653 13.3751 44.3242 13.4409 44.4414 13.5581C44.5587 13.6753 44.6245 13.8343 44.6245 14.0001C44.6245 14.1658 44.5587 14.3248 44.4414 14.442C44.3242 14.5592 44.1653 14.6251 43.9995 14.6251Z" fill="#C17E5D"/>
<path d="M50.9995 14.6251H49.9995C49.8338 14.6251 49.6748 14.5592 49.5576 14.442C49.4404 14.3248 49.3745 14.1658 49.3745 14.0001C49.3745 13.8343 49.4404 13.6753 49.5576 13.5581C49.6748 13.4409 49.8338 13.3751 49.9995 13.3751H50.9995C51.1653 13.3751 51.3242 13.4409 51.4414 13.5581C51.5587 13.6753 51.6245 13.8343 51.6245 14.0001C51.6245 14.1658 51.5587 14.3248 51.4414 14.442C51.3242 14.5592 51.1653 14.6251 50.9995 14.6251Z" fill="#C17E5D"/>
<path d="M10.9997 16.9134C10.7484 16.9138 10.4994 16.8646 10.2671 16.7685C10.0348 16.6724 9.82383 16.5314 9.64621 16.3535C9.55514 16.2592 9.50474 16.1329 9.50588 16.0018C9.50702 15.8707 9.5596 15.7453 9.65231 15.6526C9.74501 15.5599 9.87042 15.5073 10.0015 15.5062C10.1326 15.505 10.2589 15.5554 10.3532 15.6465C10.5248 15.8177 10.7573 15.9138 10.9997 15.9138C11.2421 15.9138 11.4746 15.8177 11.6462 15.6465C11.7405 15.5554 11.8668 15.505 11.9979 15.5062C12.129 15.5073 12.2544 15.5599 12.3471 15.6526C12.4398 15.7453 12.4924 15.8707 12.4935 16.0018C12.4947 16.1329 12.4443 16.2592 12.3532 16.3535C12.1756 16.5314 11.9646 16.6724 11.7323 16.7685C11.5 16.8646 11.2511 16.9138 10.9997 16.9134Z" fill="#D8946C"/>
<path d="M31.2157 33.0093C30.7803 33.0094 30.3459 32.9661 29.919 32.8799L25.9388 32.075C25.8737 32.0627 25.8118 32.0376 25.7565 32.0012C25.7013 31.9648 25.6538 31.9178 25.6169 31.8629C25.5799 31.808 25.5543 31.7463 25.5414 31.6813C25.5284 31.6164 25.5285 31.5496 25.5416 31.4848C25.5547 31.4199 25.5806 31.3583 25.6177 31.3035C25.6548 31.2487 25.7024 31.2018 25.7578 31.1655C25.8131 31.1292 25.8751 31.1043 25.9402 31.0922C26.0052 31.0801 26.0721 31.081 26.1368 31.0949L30.117 31.8992C30.9766 32.0713 31.8645 32.0398 32.7097 31.8073C33.5549 31.5747 34.334 31.1475 34.9845 30.5599L45.6642 20.8791C45.7625 20.79 45.8921 20.7436 46.0246 20.7501C46.157 20.7566 46.2815 20.8154 46.3706 20.9137C46.4597 21.012 46.5061 21.1416 46.4996 21.274C46.4931 21.4065 46.4342 21.531 46.336 21.6201L35.6561 31.3009C34.4386 32.4005 32.8563 33.0093 31.2157 33.0093Z" fill="#CCCCCC"/>
<path d="M48.1095 21.5H45.3333C44.1535 21.4983 43.0148 21.0667 42.1303 20.2859C41.2459 19.5051 40.6763 18.4287 40.5284 17.2582L40.0034 13.062C39.9947 12.9966 39.999 12.9301 40.0161 12.8664C40.0333 12.8026 40.0628 12.7429 40.1031 12.6906C40.1434 12.6384 40.1937 12.5946 40.251 12.5619C40.3083 12.5292 40.3715 12.5081 40.437 12.4999C40.5025 12.4917 40.569 12.4966 40.6326 12.5142C40.6962 12.5318 40.7556 12.5619 40.8076 12.6026C40.8595 12.6433 40.9029 12.6939 40.9351 12.7515C40.9674 12.8091 40.988 12.8725 40.9956 12.938L41.5206 17.1342C41.638 18.063 42.0899 18.9171 42.7917 19.5367C43.4935 20.1562 44.3971 20.4987 45.3333 20.5H48.1095C48.9666 20.501 49.7994 20.2149 50.475 19.6874C51.1506 19.1599 51.6301 18.4214 51.837 17.5896L53.0147 12.8788C53.0307 12.815 53.059 12.7551 53.0981 12.7023C53.1372 12.6496 53.1863 12.605 53.2426 12.5712C53.2989 12.5374 53.3613 12.5151 53.4262 12.5054C53.4912 12.4957 53.5574 12.499 53.6211 12.5149C53.6848 12.5308 53.7448 12.5591 53.7975 12.5982C53.8503 12.6373 53.8948 12.6864 53.9286 12.7427C53.9624 12.799 53.9848 12.8614 53.9945 12.9264C54.0041 12.9913 54.0009 13.0575 53.985 13.1213L52.8072 17.832C52.5465 18.8803 51.9422 19.8111 51.0907 20.4759C50.2393 21.1407 49.1897 21.5012 48.1095 21.5Z" fill="#999999"/>
<path d="M25.6644 34.669L24.9946 35.4121C24.9341 35.4792 24.8586 35.531 24.7741 35.5632C24.6897 35.5954 24.5988 35.607 24.509 35.5972C24.4192 35.5874 24.333 35.5563 24.2575 35.5067C24.182 35.457 24.1194 35.3901 24.0749 35.3115L22.1981 31.9998C22.1536 31.9212 22.1284 31.8331 22.1245 31.7428C22.1207 31.6525 22.1384 31.5626 22.1761 31.4805C22.2139 31.3984 22.2706 31.3264 22.3416 31.2705C22.4126 31.2146 22.4958 31.1764 22.5845 31.159L23.5661 30.9663C24.0281 30.8757 24.5069 30.9327 24.9347 31.1292C25.3625 31.3258 25.7176 31.652 25.9496 32.0616C26.1817 32.4712 26.2791 32.9434 26.2279 33.4113C26.1767 33.8793 25.9795 34.3193 25.6644 34.669Z" fill="#999999"/>
<path d="M47.0002 15.9132C46.7488 15.9136 46.4999 15.8644 46.2676 15.7683C46.0353 15.6722 45.8243 15.5312 45.6467 15.3533C45.5556 15.259 45.5052 15.1327 45.5064 15.0016C45.5075 14.8705 45.5601 14.7451 45.6528 14.6524C45.7455 14.5597 45.8709 14.5071 46.002 14.506C46.1331 14.5048 46.2594 14.5552 46.3537 14.6463C46.5253 14.8175 46.7578 14.9136 47.0002 14.9136C47.2426 14.9136 47.4751 14.8175 47.6467 14.6463C47.741 14.5552 47.8673 14.5048 47.9984 14.506C48.1295 14.5071 48.2549 14.5597 48.3476 14.6524C48.4403 14.7451 48.4929 14.8705 48.494 15.0016C48.4952 15.1327 48.4448 15.259 48.3537 15.3533C48.1761 15.5312 47.9651 15.6722 47.7328 15.7683C47.5005 15.8644 47.2516 15.9136 47.0002 15.9132Z" fill="#C47857"/>
</svg>
