<svg width="11" height="10" viewBox="0 0 11 10" fill="none" xmlns="http://www.w3.org/2000/svg">
<g id="Group">
<path id="Vector" d="M5.8418 10C8.60322 10 10.8418 7.76142 10.8418 5C10.8418 2.23858 8.60322 0 5.8418 0C3.08037 0 0.841797 2.23858 0.841797 5C0.841797 7.76142 3.08037 10 5.8418 10Z" fill="#EAB14D"/>
<path id="Vector_2" d="M5.84174 0C5.75248 0 5.66379 0.00244141 5.57568 0.00705078C8.21342 0.145371 10.3096 2.32783 10.3096 5C10.3096 7.67217 8.21342 9.85463 5.57568 9.99295C5.66379 9.99756 5.75248 10 5.84174 10C8.60316 10 10.8417 7.76143 10.8417 5C10.8417 2.23857 8.60316 0 5.84174 0Z" fill="#E49542"/>
<path id="Vector_3" d="M5.84154 8.89624C7.99337 8.89624 9.73777 7.15183 9.73777 5.00001C9.73777 2.84818 7.99337 1.10378 5.84154 1.10378C3.68971 1.10378 1.94531 2.84818 1.94531 5.00001C1.94531 7.15183 3.68971 8.89624 5.84154 8.89624Z" fill="#F4FBFF"/>
<path id="Vector_4" d="M5.84189 1.10378C5.73398 1.10378 5.62717 1.10836 5.52148 1.11696C7.52342 1.27993 9.09732 2.95608 9.09732 5.00001C9.09732 7.04393 7.52342 8.72006 5.52148 8.88305C5.62717 8.89167 5.73398 8.89626 5.84189 8.89626C7.99373 8.89626 9.73812 7.15184 9.73812 5.00003C9.73812 2.84821 7.99373 1.10378 5.84189 1.10378Z" fill="#DAF1F4"/>
<g id="Group_2">
<g id="Group_3">
<path id="Vector_5" d="M5.8423 2.30302C5.75896 2.30302 5.69141 2.23546 5.69141 2.15212V1.93064C5.69141 1.8473 5.75896 1.77974 5.8423 1.77974C5.92564 1.77974 5.99322 1.8473 5.99322 1.93064V2.15212C5.99322 2.23546 5.92564 2.30302 5.8423 2.30302Z" fill="#2B4D66"/>
</g>
<g id="Group_4">
<path id="Vector_6" d="M7.84769 3.1406C7.80906 3.1406 7.77044 3.12586 7.74097 3.0964C7.68204 3.03746 7.68204 2.94193 7.74099 2.88299L7.89761 2.72638C7.95654 2.66744 8.05208 2.66746 8.11103 2.72638C8.16995 2.78533 8.16995 2.88086 8.11101 2.9398L7.95439 3.09642C7.92491 3.12586 7.8863 3.1406 7.84769 3.1406Z" fill="#2B4D66"/>
</g>
<g id="Group_5">
<path id="Vector_7" d="M8.89484 5.15099H8.67336C8.59 5.15099 8.52246 5.08344 8.52246 5.0001C8.52246 4.91676 8.59002 4.8492 8.67336 4.8492H8.89484C8.9782 4.8492 9.04574 4.91676 9.04574 5.0001C9.04574 5.08344 8.97818 5.15099 8.89484 5.15099Z" fill="#2B4D66"/>
</g>
<g id="Group_6">
<path id="Vector_8" d="M7.99257 7.31323C7.95396 7.31323 7.91533 7.29848 7.88585 7.26903L7.72925 7.11243C7.67033 7.05348 7.67033 6.95796 7.72925 6.89899C7.7882 6.84009 7.88373 6.84009 7.94269 6.89899L8.09929 7.05559C8.15822 7.11454 8.15822 7.21007 8.09929 7.26903C8.06982 7.29848 8.03119 7.31323 7.99257 7.31323Z" fill="#2B4D66"/>
</g>
<g id="Group_7">
<path id="Vector_9" d="M5.8257 8.20407C5.74236 8.20407 5.6748 8.13651 5.6748 8.05317V7.83168C5.6748 7.74832 5.74236 7.68079 5.8257 7.68079C5.90904 7.68079 5.9766 7.74834 5.9766 7.83168V8.05317C5.9766 8.13651 5.90904 8.20407 5.8257 8.20407Z" fill="#2B4D66"/>
</g>
<g id="Group_8">
<path id="Vector_10" d="M3.66311 7.30155C3.62449 7.30155 3.58586 7.2868 3.55641 7.25733C3.49746 7.1984 3.49748 7.10286 3.55641 7.04391L3.71303 6.88731C3.77198 6.8284 3.8675 6.82838 3.92645 6.88733C3.98537 6.94625 3.98537 7.0418 3.92643 7.10075L3.76981 7.25735C3.74035 7.28682 3.70172 7.30155 3.66311 7.30155Z" fill="#2B4D66"/>
</g>
<g id="Group_9">
<path id="Vector_11" d="M2.99396 5.1346H2.77248C2.68914 5.1346 2.62158 5.06704 2.62158 4.9837C2.62158 4.90036 2.68914 4.8328 2.77248 4.8328H2.99396C3.0773 4.8328 3.14486 4.90036 3.14486 4.9837C3.14488 5.06704 3.0773 5.1346 2.99396 5.1346Z" fill="#2B4D66"/>
</g>
<g id="Group_10">
<path id="Vector_12" d="M3.83145 3.12901C3.79284 3.12901 3.75422 3.11428 3.72475 3.08481L3.56813 2.92821C3.5092 2.86926 3.50918 2.77373 3.56811 2.71479C3.62706 2.65586 3.72258 2.65584 3.78153 2.71477L3.93815 2.87139C3.99708 2.93032 3.99709 3.02586 3.93817 3.08481C3.90868 3.11426 3.87006 3.12901 3.83145 3.12901Z" fill="#2B4D66"/>
</g>
</g>
<g id="Group_11">
<path id="Vector_13" d="M5.84172 5.1509H4.56008C4.47674 5.1509 4.40918 5.08332 4.40918 4.99998C4.40918 4.91664 4.47674 4.84908 4.56008 4.84908H5.6908V2.92922C5.6908 2.84588 5.75836 2.77832 5.8417 2.77832C5.92504 2.77832 5.9926 2.84588 5.9926 2.92922V4.99998C5.99262 5.08332 5.92506 5.1509 5.84172 5.1509Z" fill="#2B4D66"/>
</g>
<g id="Group_12">
<path id="Vector_14" d="M7.39001 5.94712C7.36677 5.94712 7.34322 5.94173 7.32113 5.93038L5.77285 5.13421C5.69872 5.0961 5.66954 5.00512 5.70765 4.931C5.74576 4.85688 5.83673 4.82768 5.91087 4.86581L7.45915 5.66196C7.53328 5.70009 7.56247 5.79106 7.52435 5.86516C7.49757 5.91721 7.44476 5.94712 7.39001 5.94712Z" fill="#DA4A54"/>
</g>
<path id="Vector_15" d="M5.84174 5.4028C6.06418 5.4028 6.24451 5.22247 6.24451 5.00003C6.24451 4.77758 6.06418 4.59725 5.84174 4.59725C5.61929 4.59725 5.43896 4.77758 5.43896 5.00003C5.43896 5.22247 5.61929 5.4028 5.84174 5.4028Z" fill="#365E7D"/>
</g>
</svg>
