<svg width="62" height="62" viewBox="0 0 62 62" fill="none" xmlns="http://www.w3.org/2000/svg">
<path d="M36.1667 56.8333H25.8333C14.4667 56.8333 5.16666 47.5333 5.16666 36.1666V25.8333C5.16666 14.4666 14.4667 5.16663 25.8333 5.16663H36.1667C47.5333 5.16663 56.8333 14.4666 56.8333 25.8333V36.1666C56.8333 47.5333 47.5333 56.8333 36.1667 56.8333Z" fill="url(#paint0_linear_562_1492)"/>
<path d="M49.0833 11.625C49.0833 32.2916 32.2917 49.0833 11.625 49.0833C10.85 49.0833 10.3333 49.0833 9.55833 49.0833C6.975 45.4666 5.16666 41.075 5.16666 36.1666V25.8333C5.16666 14.4666 14.4667 5.16663 25.8333 5.16663H36.1667C41.075 5.16663 45.4667 6.97496 49.0833 9.55829V11.625Z" fill="url(#paint1_linear_562_1492)"/>
<path d="M25.56 24.92C25.7467 24.92 26.02 24.92 26.38 24.92C26.7533 24.9067 27.1333 24.8933 27.52 24.88C27.9067 24.8667 28.2533 24.86 28.56 24.86C28.8667 24.8467 29.0533 24.84 29.12 24.84L29.24 25.04L29.14 27.62H28.24L28.16 27.54C28.1333 27.2867 28.0933 27.0867 28.04 26.94C28 26.7933 27.88 26.6867 27.68 26.62C27.48 26.5533 27.1667 26.5133 26.74 26.5C26.3267 26.4867 25.7467 26.48 25 26.48H23.86L23.84 26.66C23.8267 26.8467 23.8133 27.02 23.8 27.18C23.8 27.34 23.7933 27.5267 23.78 27.74C23.78 27.9533 23.78 28.2133 23.78 28.52C23.78 28.8267 23.78 29.22 23.78 29.7V30.38C24.1 30.3667 24.4067 30.3667 24.7 30.38C24.9933 30.38 25.2667 30.3733 25.52 30.36C25.7733 30.3467 25.9867 30.3267 26.16 30.3C26.3467 30.26 26.48 30.2 26.56 30.12C26.6933 29.9867 26.76 29.8 26.76 29.56L26.86 29.46L27.6 29.42L27.68 29.46C27.6533 29.7667 27.6267 30.0333 27.6 30.26C27.5867 30.4867 27.58 30.7467 27.58 31.04C27.58 31.36 27.5867 31.66 27.6 31.94C27.6267 32.2067 27.6533 32.5 27.68 32.82L27.6 32.86L26.84 32.82L26.76 32.76C26.76 32.4267 26.7 32.18 26.58 32.02C26.4733 31.8733 26.1667 31.7933 25.66 31.78C25.1667 31.7533 24.6133 31.74 24 31.74H23.78V33.38C23.78 33.7667 23.78 34.0867 23.78 34.34C23.7933 34.5933 23.8 34.8133 23.8 35C23.8133 35.1733 23.8267 35.34 23.84 35.5C23.8533 35.66 23.8667 35.8467 23.88 36.06C23.8933 36.3133 24.0267 36.44 24.28 36.44H25.18C25.94 36.44 26.5333 36.4267 26.96 36.4C27.4 36.3733 27.7333 36.3133 27.96 36.22C28.1867 36.1133 28.3467 35.9667 28.44 35.78C28.5467 35.5933 28.64 35.34 28.72 35.02L28.8 34.94H29.74L29.36 37.88L29.2 38.08C29.1333 38.08 28.9667 38.0733 28.7 38.06C28.4467 38.06 28.16 38.0533 27.84 38.04C27.52 38.0267 27.2 38.0133 26.88 38C26.56 38 26.3067 38 26.12 38H22.08C21.9867 38 21.8333 38.0067 21.62 38.02C21.4067 38.0333 21.1867 38.0467 20.96 38.06C20.7333 38.0733 20.5133 38.0867 20.3 38.1C20.0867 38.1133 19.9333 38.12 19.84 38.12L19.8 38.04L19.86 37.28L19.96 37.2C20.1733 37.2 20.3733 37.1933 20.56 37.18C20.7467 37.1533 20.9 37.0933 21.02 37C21.1267 36.9067 21.2267 36.7867 21.32 36.64C21.4267 36.4933 21.4933 36.2333 21.52 35.86C21.52 35.7667 21.52 35.66 21.52 35.54C21.5333 35.4067 21.54 35.2467 21.54 35.06C21.5533 34.8733 21.56 34.6467 21.56 34.38C21.56 34.1133 21.56 33.78 21.56 33.38V30.12C21.56 29.6533 21.56 29.26 21.56 28.94C21.56 28.62 21.56 28.3467 21.56 28.12C21.56 27.8933 21.5533 27.7 21.54 27.54C21.54 27.38 21.5333 27.22 21.52 27.06C21.4933 26.7 21.4267 26.44 21.32 26.28C21.2267 26.12 21.1267 26 21.02 25.92C20.9 25.8133 20.7467 25.7533 20.56 25.74C20.3733 25.7267 20.1733 25.72 19.96 25.72L19.86 25.64L19.8 24.88L19.84 24.8C19.9333 24.8 20.0867 24.8067 20.3 24.82C20.5133 24.8333 20.74 24.8467 20.98 24.86C21.2333 24.8733 21.4733 24.8867 21.7 24.9C21.94 24.9133 22.1333 24.92 22.28 24.92H25.56ZM34.7839 30.54C35.0906 29.9533 35.5106 29.4667 36.0439 29.08C36.5772 28.6933 37.2039 28.5 37.9239 28.5C38.3372 28.5 38.7439 28.5533 39.1439 28.66C39.5439 28.7667 39.9039 28.9333 40.2239 29.16C40.5572 29.3867 40.8306 29.68 41.0439 30.04C41.2706 30.3867 41.4172 30.8 41.4839 31.28C41.5239 31.6267 41.5439 31.9933 41.5439 32.38C41.5572 32.7667 41.5639 33.1533 41.5639 33.54C41.5772 33.9933 41.5839 34.4133 41.5839 34.8C41.5839 35.1733 41.5839 35.5867 41.5839 36.04C41.5839 36.3467 41.6172 36.58 41.6839 36.74C41.7639 36.8867 41.8572 36.9867 41.9639 37.04C42.1106 37.12 42.2639 37.1733 42.4239 37.2C42.5972 37.2267 42.7906 37.24 43.0039 37.24L43.0639 37.32L43.1039 38L43.0639 38.08C42.7839 38.0533 42.4706 38.0333 42.1239 38.02C41.7906 38.0067 41.4639 38 41.1439 38C40.8239 38 40.5039 38 40.1839 38C39.8639 38.0133 39.5639 38.0333 39.2839 38.06L39.1439 37.66C39.1839 37.4867 39.2172 37.2267 39.2439 36.88C39.2839 36.5333 39.3106 36.2533 39.3239 36.04C39.3506 35.5333 39.3706 35.06 39.3839 34.62C39.3972 34.18 39.4039 33.7867 39.4039 33.44C39.4039 33.1333 39.3972 32.8 39.3839 32.44C39.3706 32.08 39.3239 31.7667 39.2439 31.5C39.1372 31.0733 38.9172 30.76 38.5839 30.56C38.2639 30.3467 37.8906 30.24 37.4639 30.24C37.0639 30.24 36.6972 30.3133 36.3639 30.46C36.0306 30.6067 35.7439 30.7867 35.5039 31C35.2772 31.2 35.0972 31.4133 34.9639 31.64C34.8306 31.8667 34.7639 32.0667 34.7639 32.24V34.3C34.7639 34.5667 34.7639 34.7867 34.7639 34.96C34.7639 35.12 34.7639 35.26 34.7639 35.38C34.7772 35.5 34.7839 35.6133 34.7839 35.72C34.7972 35.8133 34.8106 35.92 34.8239 36.04C34.8506 36.32 34.9039 36.5333 34.9839 36.68C35.0772 36.8133 35.1772 36.9267 35.2839 37.02C35.3906 37.1267 35.5172 37.1933 35.6639 37.22C35.8106 37.2333 35.9839 37.24 36.1839 37.24L36.2839 37.34L36.3239 38L36.2839 38.08C36.1906 38.08 36.0506 38.0733 35.8639 38.06C35.6772 38.0467 35.4772 38.0333 35.2639 38.02C35.0506 38.02 34.8506 38.0133 34.6639 38C34.4772 38 34.3372 38 34.2439 38H33.1439C33.0506 38 32.9039 38 32.7039 38C32.5172 38.0133 32.3172 38.02 32.1039 38.02C31.9039 38.0333 31.7039 38.0467 31.5039 38.06C31.3172 38.0733 31.1772 38.08 31.0839 38.08L31.0639 38L31.1039 37.32L31.1639 37.24C31.3772 37.24 31.5639 37.2333 31.7239 37.22C31.8972 37.1933 32.0372 37.1267 32.1439 37.02C32.2372 36.9267 32.3239 36.8067 32.4039 36.66C32.4839 36.5133 32.5372 36.3067 32.5639 36.04C32.5772 35.9467 32.5839 35.8533 32.5839 35.76C32.5972 35.6667 32.6039 35.5667 32.6039 35.46C32.6172 35.3533 32.6239 35.2267 32.6239 35.08C32.6239 34.9333 32.6239 34.7533 32.6239 34.54V32.48C32.6239 32.2267 32.6239 32.0133 32.6239 31.84C32.6239 31.6667 32.6172 31.5133 32.6039 31.38C32.6039 31.2467 32.5972 31.1267 32.5839 31.02C32.5839 30.9133 32.5772 30.8 32.5639 30.68C32.5372 30.5467 32.4972 30.42 32.4439 30.3C32.3906 30.18 32.3439 30.1 32.3039 30.06C32.1706 29.8867 32.0039 29.7867 31.8039 29.76C31.6039 29.7333 31.3972 29.72 31.1839 29.72L31.1039 29.64V28.96L31.1839 28.9H32.2039C32.5106 28.9 32.8372 28.9 33.1839 28.9C33.5439 28.8867 33.8572 28.86 34.1239 28.82L34.8239 28.72L34.9439 29.1C34.8372 29.2467 34.7706 29.4533 34.7439 29.72C34.7306 29.9733 34.7239 30.2333 34.7239 30.5L34.7839 30.54Z" fill="black"/>
<defs>
<linearGradient id="paint0_linear_562_1492" x1="5.16666" y1="31" x2="56.8333" y2="31" gradientUnits="userSpaceOnUse">
<stop stop-color="#4BA59E"/>
<stop offset="1" stop-color="#B5FCB7"/>
</linearGradient>
<linearGradient id="paint1_linear_562_1492" x1="1.74891" y1="42.1987" x2="46.7299" y2="8.03929" gradientUnits="userSpaceOnUse">
<stop stop-color="#4BA59E"/>
<stop offset="1" stop-color="#B5FCB7"/>
</linearGradient>
</defs>
</svg>
