<svg width="44" height="44" viewBox="0 0 44 44" fill="none" xmlns="http://www.w3.org/2000/svg">
<path d="M0.733334 30.8H16.8667V28.6901L16.2825 26.3534C15.6049 26.2473 14.9699 25.9563 14.4471 25.5124C13.9244 25.0685 13.5344 24.4889 13.32 23.8375L9.56734 11.9542C9.5216 11.8093 9.52198 11.6538 9.56843 11.5091C9.61489 11.3645 9.70512 11.2378 9.82667 11.1467L18.4433 4.68417L19.8376 0.501417C19.8863 0.355396 19.9797 0.228394 20.1045 0.138401C20.2294 0.0484089 20.3794 -1.14054e-05 20.5333 2.01516e-09H23.4667C23.6206 7.83373e-06 23.7706 0.048437 23.8954 0.138428C24.0203 0.228419 24.1137 0.355411 24.1623 0.501417L25.5567 4.68417L34.1733 11.1467C34.2949 11.2378 34.3851 11.3645 34.4316 11.5091C34.478 11.6538 34.4784 11.8093 34.4327 11.9542L30.68 23.8375C30.4656 24.4889 30.0756 25.0685 29.5529 25.5124C29.0301 25.9563 28.3951 26.2473 27.7175 26.3534L27.1333 28.6903V30.8H43.2667C43.4612 30.8 43.6477 30.8773 43.7852 31.0148C43.9227 31.1523 44 31.3388 44 31.5333V43.2667C44 43.4612 43.9227 43.6477 43.7852 43.7852C43.6477 43.9227 43.4612 44 43.2667 44H0.733334C0.538841 44 0.352314 43.9227 0.214787 43.7852C0.0772591 43.6477 0 43.4612 0 43.2667V31.5333C0 31.3388 0.0772591 31.1523 0.214787 31.0148C0.352314 30.8773 0.538841 30.8 0.733334 30.8ZM25.6667 40.6879V38.7059L23.2888 38.1114C23.1302 38.0718 22.9893 37.9802 22.8887 37.8513C22.788 37.7224 22.7333 37.5635 22.7333 37.4V37.1199L21.8268 36.6667H17.3199L17.1371 37.0323L25.6667 40.6879ZM24.2 36.8274L26.4383 37.3866L27.0001 37.3063L26.6801 36.6667H24.2V36.8274ZM22 40.7122L17.7029 42.5333H26.2972L22 40.7122ZM18.3333 40.6878L20.1383 39.9143L18.3333 39.1408V40.6878ZM15.4775 37.072L16.2108 35.6054C16.2717 35.4836 16.3653 35.3811 16.4812 35.3095C16.597 35.2379 16.7305 35.2 16.8667 35.2H27.1333C27.2695 35.2 27.403 35.2379 27.5188 35.3095C27.6347 35.3811 27.7283 35.4836 27.7892 35.6054L28.5225 37.072C28.5253 37.0773 28.5271 37.0829 28.5297 37.0882L31.4297 36.674C31.464 36.6691 31.4986 36.6667 31.5333 36.6667H31.8358C30.2628 35.3442 27.9757 33.7333 26.4 33.7333H17.6C16.0275 33.7333 13.7398 35.3441 12.1657 36.6667H12.4667C12.5349 36.6667 12.6027 36.6762 12.6683 36.6949L15.4051 37.4768C15.3901 37.3377 15.4152 37.1973 15.4775 37.072ZM22 6.81413L14.7889 12.7142L17.3953 20.5333H18.3354C17.8574 19.8996 17.5992 19.1272 17.6 18.3333V16.1333C17.6 14.8133 18.2078 13.6544 19.1174 13.0086C19.0375 12.5848 19.0521 12.1487 19.1601 11.7312C19.2681 11.3137 19.4667 10.9252 19.742 10.5932C20.0172 10.2613 20.3623 9.99412 20.7526 9.81074C21.1429 9.62737 21.5688 9.53229 22 9.53229C22.4312 9.53229 22.8571 9.62737 23.2474 9.81074C23.6377 9.99412 23.9828 10.2613 24.258 10.5932C24.5333 10.9252 24.7319 11.3137 24.8399 11.7312C24.9479 12.1487 24.9625 12.5848 24.8826 13.0086C25.7922 13.6544 26.4 14.8133 26.4 16.1333V18.3333C26.4008 19.1272 26.1426 19.8996 25.6646 20.5333H26.6048L29.2111 12.7142L22 6.81413ZM26.4 25.5764V22H24.8743C24.6018 23.6715 23.4168 24.9333 22 24.9333C20.5832 24.9333 19.3982 23.6715 19.1257 22H17.6V25.5766L18.1726 27.8667H25.8274L26.4 25.5764ZM23.4667 12.4667C23.4667 12.0777 23.3121 11.7046 23.0371 11.4296C22.762 11.1545 22.389 11 22 11C21.611 11 21.238 11.1545 20.9629 11.4296C20.6879 11.7046 20.5333 12.0777 20.5333 12.4667C20.5333 12.4706 20.5333 12.4746 20.5333 12.4786C20.614 12.4714 20.6951 12.4667 20.7773 12.4667H23.2222C23.3047 12.4667 23.3855 12.4714 23.4662 12.4786C23.4662 12.4746 23.4667 12.4706 23.4667 12.4667ZM23.2222 13.9333H20.7778C19.8343 13.9333 19.0667 14.9203 19.0667 16.1333V16.2298L20.1265 15.5232C20.215 15.4642 20.3152 15.4252 20.4202 15.4088C20.5253 15.3924 20.6326 15.399 20.7348 15.4282L24.9333 16.6283V16.1333C24.9333 14.9203 24.1657 13.9333 23.2222 13.9333ZM20.6579 16.9317L19.0667 17.9924V18.3333C19.0673 18.9166 19.2993 19.4758 19.7118 19.8882C20.1242 20.3007 20.6834 20.5327 21.2667 20.5333H22.7333C23.3166 20.5327 23.8758 20.3007 24.2882 19.8882C24.7007 19.4758 24.9327 18.9166 24.9333 18.3333V18.1532L20.6579 16.9317ZM20.6068 21.9393C20.8014 22.8148 21.3606 23.4667 22 23.4667C22.6394 23.4667 23.1986 22.8148 23.3933 21.9393C23.1756 21.9794 22.9547 21.9997 22.7333 22H21.2667C21.0453 21.9997 20.8244 21.9794 20.6067 21.9393H20.6068ZM25.6667 29.3333H18.3333V32.2667H25.6667V29.3333ZM19.7624 5.36525C19.7152 5.50676 19.626 5.63051 19.5067 5.72L11.1225 12.0083L14.7185 23.396C14.8273 23.7262 15.012 24.0263 15.2577 24.2722C15.5033 24.5181 15.8033 24.7031 16.1333 24.8122V21.3858L13.2376 12.6988C13.1906 12.5578 13.1876 12.4058 13.2289 12.263C13.2703 12.1203 13.354 11.9934 13.469 11.8993L21.2667 5.51916V1.46667H21.0619L19.7624 5.36525ZM27.8667 24.8122C28.1968 24.703 28.4967 24.5181 28.7424 24.2721C28.9881 24.0262 29.1727 23.726 29.2815 23.3958L32.8775 12.0083L24.4933 5.72C24.374 5.6305 24.2848 5.50675 24.2377 5.36525L22.9381 1.46667H22.7333V5.51916L30.531 11.8992C30.6461 11.9933 30.7298 12.1201 30.7711 12.2629C30.8124 12.4057 30.8093 12.5576 30.7623 12.6986L27.8667 21.3858V24.8122ZM42.5333 32.2667H27.1333V32.3364C28.3823 32.5581 29.8821 33.3199 31.6067 34.6133C32.4584 35.2554 33.2727 35.9457 34.0455 36.6809C34.6977 36.7361 35.3231 36.9651 35.8568 37.3439C36.3905 37.7227 36.813 38.2376 37.0804 38.835C37.3477 39.4324 37.4502 40.0905 37.3771 40.7409C37.3039 41.3913 37.058 42.0102 36.6646 42.5333H42.5333V32.2667ZM33.7333 42.5333C34.3168 42.5333 34.8764 42.3015 35.289 41.889C35.7015 41.4764 35.9333 40.9168 35.9333 40.3333C35.9333 39.7499 35.7015 39.1903 35.289 38.7777C34.8764 38.3651 34.3168 38.1333 33.7333 38.1333H31.5854L27.1333 38.7693V41.2469L31.6361 42.5333H33.7333ZM12.364 42.5333L16.8667 41.2469V39.4198L12.364 38.1333H10.2667C9.68319 38.1333 9.12361 38.3651 8.71103 38.7777C8.29845 39.1903 8.06667 39.7499 8.06667 40.3333C8.06667 40.9168 8.29845 41.4764 8.71103 41.889C9.12361 42.3015 9.68319 42.5333 10.2667 42.5333H12.364ZM1.46667 42.5333H7.33535C6.94205 42.0102 6.69605 41.3913 6.62294 40.7409C6.54984 40.0905 6.65228 39.4324 6.91962 38.835C7.18697 38.2376 7.60946 37.7227 8.14316 37.3439C8.67686 36.9651 9.3023 36.7361 9.95445 36.6809C10.7273 35.9457 11.5416 35.2554 12.3933 34.6133C14.1179 33.3199 15.6177 32.5581 16.8667 32.3364V32.2667H1.46667V42.5333Z" fill="#811A74"/>
</svg>
