<svg width="42" height="42" viewBox="0 0 42 42" fill="none" xmlns="http://www.w3.org/2000/svg">
<g opacity="0.85">
<path d="M33.127 21.6955C32.0006 21.5483 30.9987 21.0535 30.306 20.3019C30.023 19.9953 29.7113 19.7123 29.379 19.461C26.9329 17.6081 23.473 17.5624 21.0022 19.3267C20.9648 19.3487 20.085 19.8809 19.3302 20.9853C17.2953 23.9637 17.5983 27.6348 20.0845 30.121C20.1952 30.2317 20.309 30.3379 20.4249 30.4394C21.1268 31.0531 21.559 31.8786 21.6411 32.7641C21.8938 35.4671 23.19 37.9195 25.2916 39.6689C27.1595 41.2239 29.4749 41.9976 31.7904 41.9976C34.2089 41.9976 36.6274 41.1532 38.5331 39.4715C40.6763 37.5806 41.9053 34.9734 41.994 32.1293C42.0817 29.3247 40.9947 26.5786 39.011 24.5954C37.4072 22.9916 35.3727 21.9887 33.127 21.6955ZM37.8389 38.6839C34.4929 41.6357 29.3878 41.7126 25.9633 38.8618C24.077 37.2914 22.9131 35.0913 22.687 32.6666C22.5794 31.5125 22.0215 30.4409 21.1166 29.6493C21.0176 29.5626 20.9212 29.4729 20.8269 29.3786C18.7093 27.2605 18.4561 24.1258 20.1967 21.5781C20.8146 20.6741 21.5344 20.2316 21.576 20.205C23.712 18.6812 26.6606 18.7202 28.7453 20.2978C29.0278 20.5121 29.2934 20.7526 29.5339 21.0135C30.3932 21.9462 31.6212 22.5579 32.9912 22.7363C35.0051 22.9993 36.8299 23.8991 38.2686 25.3378C40.0739 27.1431 41.0245 29.5432 40.9445 32.0965C40.865 34.6478 39.7621 36.9873 37.8389 38.6839Z" fill="#811A74"/>
<path d="M32.1042 26.432C30.586 26.432 29.1581 27.0232 28.085 28.0968C25.8685 30.3133 25.8685 33.9193 28.085 36.1357C29.1581 37.2094 30.586 37.8011 32.1042 37.8011C33.6229 37.8011 35.0503 37.2094 36.1239 36.1357C38.3404 33.9193 38.3404 30.3133 36.1239 28.0968C35.0503 27.0232 33.6229 26.432 32.1042 26.432ZM35.3815 35.3933C34.5063 36.2685 33.3424 36.751 32.1042 36.751C30.8665 36.751 29.7026 36.2685 28.8274 35.3933C27.0206 33.5865 27.0206 30.6461 28.8274 28.8392C29.7026 27.964 30.8665 27.4821 32.1042 27.4821C33.3424 27.4821 34.5063 27.964 35.3815 28.8392C37.1883 30.6461 37.1883 33.5865 35.3815 35.3933Z" fill="#811A74"/>
<path d="M39.771 1.41592C37.3305 -0.633932 33.602 -0.42423 31.284 1.89326C30.3395 2.83769 30.339 4.37329 31.2824 5.3167L32.0966 6.13089L30.2857 7.79877C29.9206 8.13512 29.714 8.594 29.7038 9.0898C29.6935 9.58509 29.8812 10.0512 30.2314 10.4013L31.5706 11.7406C31.9115 12.082 32.3622 12.2687 32.8437 12.2687C32.8565 12.2687 32.8693 12.2687 32.8816 12.2682C33.3779 12.2579 33.8368 12.0513 34.1726 11.6862L35.841 9.87529L36.6552 10.6895C37.5981 11.6324 39.1337 11.6324 40.0797 10.6869L40.175 10.591C41.4066 9.36001 42.0696 7.65572 41.9942 5.91606C41.9183 4.15436 41.1282 2.55621 39.771 1.41592ZM39.4316 9.84965L39.3362 9.94553C38.8015 10.4808 37.9314 10.4813 37.3976 9.94707L36.1969 8.74628C36.0958 8.64527 35.9554 8.58631 35.8149 8.59246C35.6718 8.59554 35.5365 8.65655 35.4396 8.76166L33.4005 10.9746C33.2595 11.1279 33.0677 11.214 32.8606 11.2181C32.6458 11.236 32.4591 11.1448 32.313 10.9981L30.9738 9.65892C30.8277 9.5128 30.7492 9.31796 30.7538 9.11134C30.7579 8.90368 30.8446 8.71193 30.9974 8.57093L33.2103 6.53235C33.3154 6.43545 33.3764 6.30009 33.3795 6.15704C33.382 6.01399 33.3266 5.87607 33.2256 5.77507L32.0249 4.57428C31.4911 4.04002 31.4916 3.17045 32.0264 2.63568C33.0739 1.5882 34.4639 1.05445 35.84 1.05445C37.0075 1.05445 38.1652 1.43848 39.0953 2.21987C40.2248 3.16891 40.8821 4.49737 40.9452 5.96118C41.0082 7.40808 40.4565 8.82473 39.4316 9.84965Z" fill="#811A74"/>
<path d="M15.26 19.7388C15.3585 19.8373 15.4918 19.8926 15.6312 19.8926C15.7707 19.8926 15.904 19.8373 16.0024 19.7388L19.7386 16.0021C19.9437 15.797 19.9437 15.4648 19.7386 15.2597C18.0043 13.5253 16.9332 11.6569 16.5543 10.9375C16.5996 10.8964 16.6494 10.8627 16.6931 10.819C17.5996 9.91254 17.9656 8.62305 17.6867 7.38689C19.047 5.91333 19.0121 3.60763 17.5821 2.17714C16.3296 0.925588 14.394 0.73742 12.9369 1.64647C12.8092 1.46394 12.6662 1.29372 12.5093 1.13683C10.9937 -0.378772 8.52647 -0.379285 7.00984 1.13734C6.74756 1.39998 6.52629 1.69672 6.34933 2.02204C6.13707 1.985 5.92083 1.96295 5.70087 1.96282C4.7026 1.96282 3.7633 2.35197 3.0578 3.05799C2.1641 3.95166 1.82112 5.18898 2.02367 6.34863C1.69762 6.52577 1.40017 6.7474 1.13664 7.01055C-0.378964 8.52666 -0.378964 10.9934 1.13715 12.51C1.29404 12.6669 1.46426 12.8094 1.64628 12.9371C0.737227 14.3947 0.925908 16.3308 2.17695 17.5818C2.91013 18.315 3.87302 18.6816 4.83642 18.6816C5.75214 18.6816 6.66837 18.3499 7.38669 17.6864C8.62337 17.9664 9.91286 17.5998 10.8188 16.6928C10.8626 16.649 10.8964 16.5991 10.9376 16.5536C11.6558 16.9312 13.5201 17.9989 15.26 19.7388ZM18.6306 15.6253L15.6256 18.6308C13.977 17.0768 12.316 16.0976 11.5322 15.6788C12.0153 14.6747 12.0314 13.49 11.5382 12.4664C11.7197 12.3408 11.8889 12.1998 12.0442 12.0444C12.2001 11.8891 12.3411 11.7194 12.4667 11.5379C13.4898 12.0319 14.6749 12.016 15.6794 11.5325C16.0983 12.3166 17.0773 13.9774 18.6306 15.6253ZM7.38567 16.5989C7.1893 16.5359 6.97447 16.5933 6.83552 16.7466C6.83347 16.7492 6.79809 16.7891 6.79604 16.7912L6.75297 16.8394C5.69523 17.8971 3.97608 17.8961 2.91936 16.8394C1.90931 15.8293 1.8606 14.1999 2.80862 13.1299C2.91731 13.0068 2.96243 12.8402 2.93013 12.6792C2.89834 12.5182 2.79272 12.3813 2.64506 12.3095C2.35742 12.1701 2.09952 11.987 1.87905 11.7671C0.773118 10.6606 0.773118 8.85942 1.87854 7.75348C2.02451 7.6078 2.18848 7.48469 2.36175 7.37471C2.53652 7.72413 2.76677 8.05259 3.0578 8.34362C3.16034 8.44617 3.29467 8.49744 3.42901 8.49744C3.56334 8.49744 3.69767 8.44617 3.80022 8.34362C4.0053 8.13853 4.0053 7.80629 3.80022 7.6012C2.75222 6.5532 2.75222 4.84841 3.80022 3.80041C4.30781 3.29282 4.98255 3.01287 5.70036 3.01287C6.41817 3.01287 7.09342 3.29282 7.60101 3.80041C7.8061 4.0055 8.13834 4.0055 8.34343 3.80041C8.54852 3.59532 8.54852 3.26308 8.34343 3.05799C8.05576 2.77035 7.7281 2.53848 7.37496 2.36095C7.48482 2.18816 7.60768 2.0246 7.75278 1.87925C8.85974 0.77331 10.6599 0.772285 11.7669 1.87925C11.9868 2.0992 12.1693 2.3571 12.3103 2.64576C12.3821 2.79291 12.5185 2.89853 12.6795 2.93032C12.842 2.96365 13.0076 2.91699 13.1302 2.80881C14.1997 1.86079 15.8281 1.90898 16.8397 2.91956C17.8959 3.97627 17.8959 5.69645 16.8397 6.75316L16.7443 6.83827C16.5931 6.97671 16.5367 7.19051 16.5992 7.38586C16.9048 8.33952 16.6567 9.3706 15.9507 10.0766C15.0478 10.9795 13.6275 11.1118 12.5749 10.3904C12.4493 10.3043 12.2919 10.2761 12.1442 10.3161C11.9971 10.3545 11.8735 10.4555 11.8063 10.5924C11.6761 10.8585 11.5064 11.0974 11.3018 11.302C11.0978 11.5056 10.8593 11.6753 10.5927 11.8065C10.4558 11.8737 10.3548 11.9968 10.3164 12.1444C10.2774 12.2916 10.3046 12.4485 10.3907 12.5741C11.1116 13.6277 10.9793 15.0474 10.0764 15.9503C9.37092 16.6553 8.33984 16.905 7.38567 16.5989Z" fill="#811A74"/>
<path d="M9.71415 33.849C9.71005 33.8454 9.70646 33.8418 9.70236 33.8377C10.4986 32.9548 10.7396 31.6904 10.2986 30.6404C10.1571 30.302 9.9582 30.0056 9.70492 29.7539C10.7621 28.631 10.8216 26.9103 9.82695 25.7962C9.36909 25.2835 8.74921 24.9559 8.07857 24.8625C7.77863 23.5854 6.62809 22.6409 5.27912 22.6409C3.92964 22.6409 2.7791 23.5854 2.47967 24.8625C1.80903 24.9559 1.18864 25.2835 0.730783 25.7962C-0.263894 26.9103 -0.204419 28.631 0.853323 29.7539C0.599526 30.0056 0.400591 30.302 0.25908 30.6404C-0.181859 31.6904 0.0591195 32.9553 0.855374 33.8377C0.851785 33.8413 0.848195 33.8449 0.844606 33.8485C0.530309 34.1628 0.299072 34.5335 0.156536 34.9508C-0.281839 36.2331 0.345217 37.6913 1.61522 38.3435L4.7541 39.9543V41.469C4.7541 41.7592 4.98892 41.9941 5.27912 41.9941C5.56932 41.9941 5.80415 41.7592 5.80415 41.469V39.9543L8.94302 38.3435C10.2125 37.6913 10.8396 36.2331 10.4017 34.9503C10.2587 34.533 10.0269 34.1623 9.71415 33.849ZM8.46311 37.4093L5.80415 38.7739V28.8946C5.80415 28.6044 5.56932 28.3696 5.27912 28.3696C4.98892 28.3696 4.7541 28.6044 4.7541 28.8946V38.7739L2.09513 37.4093C1.28555 36.994 0.878959 36.0829 1.15019 35.2902C1.24043 35.0257 1.38758 34.7909 1.58805 34.5904C1.68188 34.496 1.79211 34.4089 1.91619 34.332C2.05257 34.2474 2.1423 34.1053 2.16076 33.9464C2.17922 33.787 2.12384 33.6285 2.01104 33.5152L1.71059 33.2142C1.12353 32.6272 0.929205 31.7561 1.2271 31.0465C1.36912 30.7076 1.59472 30.4456 1.9167 30.2456C2.05257 30.1605 2.14281 30.0185 2.16076 29.8595C2.17922 29.7006 2.12384 29.5416 2.01053 29.4283L1.66034 29.0781C0.946125 28.3634 0.880497 27.2052 1.51422 26.4956C1.86184 26.1059 2.35764 25.8849 2.87908 25.8849C2.89344 25.8849 2.90779 25.8849 2.92215 25.8854C3.20619 25.9013 3.43999 25.6757 3.45845 25.3953C3.52254 24.4396 4.32187 23.691 5.27912 23.691C6.23586 23.691 7.0357 24.4396 7.09979 25.3958C7.11927 25.6762 7.36794 25.8988 7.6361 25.8854C8.18163 25.8654 8.68666 26.0951 9.04351 26.4956C9.67723 27.2052 9.61161 28.3634 8.8979 29.0781L8.54771 29.4283C8.4344 29.5416 8.37903 29.7006 8.39748 29.8595C8.41543 30.0185 8.50567 30.1605 8.64154 30.2456C8.96301 30.445 9.1881 30.707 9.33064 31.0465C9.62852 31.7561 9.4342 32.6272 8.84663 33.2148L8.5472 33.5152C8.43389 33.6285 8.37903 33.787 8.39748 33.9459C8.41594 34.1048 8.50567 34.2469 8.64103 34.3315C8.76562 34.4089 8.87585 34.496 8.97071 34.5909C9.17015 34.7903 9.3173 35.0262 9.40806 35.2902C9.67877 36.0829 9.2727 36.9935 8.46311 37.4093Z" fill="#811A74"/>
<path d="M39.9184 16.579C39.9184 14.7522 38.432 13.2658 36.6052 13.2658C34.7779 13.2658 33.2915 14.7522 33.2915 16.579C33.2915 18.4063 34.7779 19.8927 36.6052 19.8927C38.432 19.8927 39.9184 18.4063 39.9184 16.579ZM34.3416 16.579C34.3416 15.331 35.3573 14.3159 36.6052 14.3159C37.8532 14.3159 38.8684 15.331 38.8684 16.579C38.8684 17.827 37.8532 18.8427 36.6052 18.8427C35.3573 18.8427 34.3416 17.827 34.3416 16.579Z" fill="#811A74"/>
<path d="M23.788 12.2845C25.6154 12.2845 27.1018 10.7981 27.1018 8.97128C27.1018 7.14446 25.6154 5.65808 23.788 5.65808C21.9612 5.65808 20.4749 7.14446 20.4749 8.97128C20.4749 10.7981 21.9612 12.2845 23.788 12.2845ZM23.788 6.70813C25.036 6.70813 26.0517 7.72332 26.0517 8.97128C26.0517 10.2192 25.036 11.2344 23.788 11.2344C22.5401 11.2344 21.5249 10.2192 21.5249 8.97128C21.5249 7.72332 22.5401 6.70813 23.788 6.70813Z" fill="#811A74"/>
<path d="M16.1664 31.4556C14.1119 31.4556 12.4404 33.1271 12.4404 35.1821C12.4404 37.2365 14.1119 38.908 16.1664 38.908C18.2208 38.908 19.8923 37.2365 19.8923 35.1821C19.8923 33.1271 18.2208 31.4556 16.1664 31.4556ZM16.1664 37.858C14.6908 37.858 13.4905 36.6577 13.4905 35.1821C13.4905 33.7065 14.6908 32.5057 16.1664 32.5057C17.642 32.5057 18.8423 33.7065 18.8423 35.1821C18.8423 36.6577 17.642 37.858 16.1664 37.858Z" fill="#811A74"/>
</g>
</svg>
