<svg width="57" height="56" viewBox="0 0 57 56" fill="none" xmlns="http://www.w3.org/2000/svg">
<g filter="url(#filter0_d_601_1041)">
<circle cx="28.5" cy="24" r="24" fill="white"/>
<path d="M36.6646 11H20.3354C17.6662 11.0031 15.5031 13.1662 15.5 15.8354V32.1646C15.4981 34.8332 17.6598 36.9981 20.3284 37C20.3307 37 20.3331 37 20.3353 37H36.6646C39.3338 36.9969 41.4969 34.8338 41.5 32.1646V15.8354C41.4969 13.1662 39.3338 11.0031 36.6646 11ZM20.3354 12.7949H36.6646C38.343 12.7967 39.7032 14.1569 39.7051 15.8354V24.6392L35.4279 20.4573C35.0763 20.1136 34.5136 20.1167 34.1659 20.4644L26.141 28.4895L22.139 24.5677C21.7876 24.2233 21.2243 24.2262 20.8763 24.5741L17.2949 28.1554V15.8354C17.2967 14.1569 18.6569 12.7967 20.3354 12.7949ZM36.6646 35.2051H20.3354C18.6581 35.2071 17.2968 33.849 17.2949 32.1717C17.2949 32.1694 17.2949 32.167 17.2949 32.1647V30.6938L21.5171 26.4715L25.5191 30.3933C25.8705 30.7378 26.4339 30.7349 26.7818 30.3869L34.8077 22.3611L39.7051 27.1496V32.1647C39.7032 33.843 38.343 35.2032 36.6646 35.2051Z" fill="black"/>
<path d="M20.9252 19.0294C22.4122 19.0294 23.6176 17.824 23.6176 16.337C23.6176 14.8501 22.4122 13.6448 20.9252 13.6448C19.4383 13.6448 18.2329 14.8502 18.2329 16.3371C18.2346 17.8233 19.439 19.0277 20.9252 19.0294ZM20.9252 15.4396C21.4209 15.4396 21.8227 15.8414 21.8227 16.3371C21.8227 16.8328 21.4209 17.2346 20.9252 17.2346C20.4296 17.2346 20.0278 16.8328 20.0278 16.3371C20.0284 15.8417 20.4299 15.4402 20.9252 15.4396Z" fill="black"/>
</g>
<defs>
<filter id="filter0_d_601_1041" x="0.5" y="0" width="56" height="56" filterUnits="userSpaceOnUse" color-interpolation-filters="sRGB">
<feFlood flood-opacity="0" result="BackgroundImageFix"/>
<feColorMatrix in="SourceAlpha" type="matrix" values="0 0 0 0 0 0 0 0 0 0 0 0 0 0 0 0 0 0 127 0" result="hardAlpha"/>
<feOffset dy="4"/>
<feGaussianBlur stdDeviation="2"/>
<feComposite in2="hardAlpha" operator="out"/>
<feColorMatrix type="matrix" values="0 0 0 0 0 0 0 0 0 0 0 0 0 0 0 0 0 0 0.25 0"/>
<feBlend mode="normal" in2="BackgroundImageFix" result="effect1_dropShadow_601_1041"/>
<feBlend mode="normal" in="SourceGraphic" in2="effect1_dropShadow_601_1041" result="shape"/>
</filter>
</defs>
</svg>
