<svg width="35" height="35" viewBox="0 0 35 35" fill="none" xmlns="http://www.w3.org/2000/svg">
<path d="M11.7818 0.959753C15.6091 -0.354163 19.7709 -0.318025 23.5747 1.06216C25.6638 1.84419 27.5778 3.03116 29.2069 4.55491C28.6534 5.14719 28.0694 5.70071 27.5048 6.27638C26.4309 7.34838 25.358 8.41669 24.286 9.4813C23.2173 8.45932 21.9246 7.70114 20.511 7.26719C18.702 6.72098 16.7775 6.68358 14.9486 7.1591C13.1198 7.63462 11.4572 8.60469 10.1434 9.96287C8.99659 11.1295 8.12808 12.5401 7.60271 14.0894L1.8654 9.64736C3.91901 5.57496 7.47471 2.45988 11.7818 0.959753Z" fill="#E33629"/>
<path d="M0.343179 14.0479C0.651552 12.5196 1.16352 11.0395 1.86538 9.64734L7.60269 14.1005C6.85215 16.3107 6.85215 18.7069 7.60269 20.9172C5.69117 22.3932 3.77874 23.8767 1.86538 25.3675C0.108347 21.8701 -0.427517 17.8852 0.343179 14.0479Z" fill="#F8BD00"/>
<path d="M17.5053 14.2278H33.9782C34.5417 17.319 34.3893 20.4983 33.5326 23.5215C32.7445 26.3015 31.2136 28.8142 29.1044 30.7893C27.2529 29.3446 25.393 27.911 23.5415 26.4663C24.4594 25.8471 25.2429 25.0489 25.845 24.1197C26.4471 23.1904 26.8553 22.1492 27.0453 21.0583H17.5053C17.5025 18.7833 17.5053 16.5055 17.5053 14.2278Z" fill="#587DBD"/>
<path d="M1.86253 25.3675C3.77589 23.8914 5.68833 22.4079 7.59984 20.9171C8.33938 23.0875 9.74588 24.9686 11.6185 26.2919C12.7864 27.1173 14.1136 27.6904 15.5153 27.9746C16.8965 28.2314 18.3132 28.2314 19.6944 27.9746C21.0716 27.7415 22.3848 27.223 23.5497 26.4524C25.4013 27.8971 27.2611 29.3307 29.1127 30.7754C27.0865 32.6179 24.6164 33.9025 21.9445 34.5034C18.9953 35.1968 15.9219 35.1635 12.9884 34.4066C10.6683 33.7871 8.50119 32.6951 6.62287 31.1989C4.63477 29.6205 3.01098 27.6313 1.86253 25.3675Z" fill="#319F43"/>
</svg>
