<svg width="22" height="22" viewBox="0 0 22 22" fill="none" xmlns="http://www.w3.org/2000/svg">
<path opacity="0.65" d="M0 11C0 11.3242 0.128769 11.635 0.357981 11.8642C0.587192 12.0935 0.898069 12.2222 1.22222 12.2222H8.55556C8.87971 12.2222 9.19059 12.0935 9.4198 11.8642C9.64901 11.635 9.77778 11.3242 9.77778 11V1.22222C9.77778 0.898069 9.64901 0.587192 9.4198 0.357981C9.19059 0.128769 8.87971 0 8.55556 0H1.22222C0.898069 0 0.587192 0.128769 0.357981 0.357981C0.128769 0.587192 0 0.898069 0 1.22222V11ZM0 20.7778C0 21.1019 0.128769 21.4128 0.357981 21.642C0.587192 21.8712 0.898069 22 1.22222 22H8.55556C8.87971 22 9.19059 21.8712 9.4198 21.642C9.64901 21.4128 9.77778 21.1019 9.77778 20.7778V15.8889C9.77778 15.5647 9.64901 15.2539 9.4198 15.0246C9.19059 14.7954 8.87971 14.6667 8.55556 14.6667H1.22222C0.898069 14.6667 0.587192 14.7954 0.357981 15.0246C0.128769 15.2539 0 15.5647 0 15.8889V20.7778ZM12.2222 20.7778C12.2222 21.1019 12.351 21.4128 12.5802 21.642C12.8094 21.8712 13.1203 22 13.4444 22H20.7778C21.1019 22 21.4128 21.8712 21.642 21.642C21.8712 21.4128 22 21.1019 22 20.7778V11C22 10.6758 21.8712 10.365 21.642 10.1358C21.4128 9.90655 21.1019 9.77778 20.7778 9.77778H13.4444C13.1203 9.77778 12.8094 9.90655 12.5802 10.1358C12.351 10.365 12.2222 10.6758 12.2222 11V20.7778ZM13.4444 0C13.1203 0 12.8094 0.128769 12.5802 0.357981C12.351 0.587192 12.2222 0.898069 12.2222 1.22222V6.11111C12.2222 6.43527 12.351 6.74614 12.5802 6.97535C12.8094 7.20456 13.1203 7.33333 13.4444 7.33333H20.7778C21.1019 7.33333 21.4128 7.20456 21.642 6.97535C21.8712 6.74614 22 6.43527 22 6.11111V1.22222C22 0.898069 21.8712 0.587192 21.642 0.357981C21.4128 0.128769 21.1019 0 20.7778 0H13.4444Z" fill="black"/>
</svg>
