<svg width="42" height="42" viewBox="0 0 42 42" fill="none" xmlns="http://www.w3.org/2000/svg">
<g opacity="0.85">
<path d="M2.02124 18.69V21.7207C2.02124 22.0029 2.24286 22.2264 2.527 22.2264H8.58839C8.87062 22.2264 9.09415 22.0048 9.09415 21.7207V18.69C9.09415 18.4077 8.87253 18.1842 8.58839 18.1842L5.55769 18.1861H2.527C2.24477 18.1861 2.02124 18.4077 2.02124 18.69ZM6.06341 19.1957H8.08452V21.2168H6.06341V19.1957ZM3.03272 19.1957H5.05382V21.2168H3.03272V19.1957Z" fill="#811A74"/>
<path d="M8.58839 23.236H2.527C2.24477 23.236 2.02124 23.4576 2.02124 23.7417V26.7724C2.02124 27.0546 2.24286 27.2782 2.527 27.2782H8.58839C8.87062 27.2782 9.09415 27.0566 9.09415 26.7724V23.7417C9.09415 23.4595 8.87063 23.236 8.58839 23.236ZM5.05193 26.2667H3.03082V24.2455H5.05193V26.2667ZM8.08263 26.2667H6.06152V24.2455H8.08263V26.2667Z" fill="#811A74"/>
<path d="M8.58839 28.2878H2.527C2.24477 28.2878 2.02124 28.5094 2.02124 28.7935V31.8242C2.02124 32.1065 2.24286 32.33 2.527 32.33H8.58839C8.87062 32.33 9.09415 32.1084 9.09415 31.8242V28.7935C9.09415 28.5094 8.87063 28.2878 8.58839 28.2878ZM5.05193 31.3185H3.03082V29.2974H5.05193V31.3185ZM8.08263 31.3185H6.06152V29.2974H8.08263V31.3185Z" fill="#811A74"/>
<path d="M40.9161 16.165H39.4008V7.07296H39.9047C40.1869 7.07296 40.4104 6.85134 40.4104 6.5672V4.54798C40.4104 4.26575 40.1888 4.04222 39.9047 4.04222H31.3184V3.03263H31.8241C32.1063 3.03263 32.3299 2.81101 32.3299 2.52687L32.328 0.505762C32.328 0.223529 32.1064 0 31.8222 0L9.59779 0.00189465C9.31556 0.00189465 9.09203 0.223513 9.09203 0.507656V2.52876C9.09203 2.811 9.31365 3.03453 9.59779 3.03453H10.1036V4.04411L1.51724 4.04222C1.23311 4.04222 1.01148 4.26383 1.01148 4.54798V6.56909C1.01148 6.85132 1.23309 7.07485 1.51724 7.07485H2.023V16.1669L0.505762 16.165C0.223529 16.165 0 16.3867 0 16.6708V40.9163C0 41.1986 0.221619 41.4221 0.505762 41.4221H40.9124C41.1946 41.4221 41.4182 41.2005 41.4182 40.9163L41.4201 16.6708C41.4201 16.3867 41.1984 16.165 40.9161 16.165ZM10.1035 40.4106H1.01138V17.1746H10.1035V40.4106ZM10.1035 16.165H3.03249V7.07296H10.1035V16.165ZM10.1035 6.06337H2.02097V5.05379H10.1035V6.06337ZM39.4008 5.0519V6.06148L38.895 6.06338H31.3183V5.05379L39.4008 5.0519ZM38.3893 7.07301V16.1651H31.3184V7.07301H38.3893ZM20.2052 40.4106H17.1745V35.3588H20.2052V40.4106ZM24.2473 40.4106H21.2166V35.3588H24.2473V40.4106ZM30.3087 4.54808V40.4106H25.2569V34.855C25.2569 34.5728 25.0353 34.3492 24.7512 34.3492H16.6706C16.3884 34.3492 16.1648 34.5709 16.1648 34.855V40.4106H11.113V3.03273H30.3068L30.3087 4.54808ZM10.6092 2.02125H10.1035V1.01167H31.3183V2.02125H10.6092ZM40.4104 40.4107H31.3183V17.1747H40.4104V40.4107Z" fill="#811A74"/>
<path d="M35.8646 18.1862H32.8339C32.5517 18.1862 32.3281 18.4078 32.3281 18.6919V21.7226C32.3281 22.0048 32.5497 22.2284 32.8339 22.2284H38.8953C39.1775 22.2284 39.401 22.0068 39.401 21.7226V18.6919C39.401 18.4097 39.1794 18.1862 38.8953 18.1862H35.8646ZM35.3588 21.2168H33.3377V19.1957H35.3588V21.2168ZM38.3895 21.2168H36.3684V19.1957H38.3895V21.2168Z" fill="#811A74"/>
<path d="M38.8953 23.236H32.8339C32.5517 23.236 32.3281 23.4576 32.3281 23.7417V26.7724C32.3281 27.0546 32.5497 27.2782 32.8339 27.2782H38.8953C39.1775 27.2782 39.401 27.0566 39.401 26.7724V23.7417C39.401 23.4595 39.1775 23.236 38.8953 23.236ZM35.3588 26.2667H33.3377V24.2455H35.3588V26.2667ZM38.3895 26.2667H36.3684V24.2455H38.3895V26.2667Z" fill="#811A74"/>
<path d="M38.8953 28.2878H32.8339C32.5517 28.2878 32.3281 28.5094 32.3281 28.7935V31.8242C32.3281 32.1065 32.5497 32.33 32.8339 32.33H38.8953C39.1775 32.33 39.401 32.1084 39.401 31.8242V28.7935C39.401 28.5094 39.1775 28.2878 38.8953 28.2878ZM35.3588 31.3185H33.3377V29.2974H35.3588V31.3185ZM38.3895 31.3185H36.3684V29.2974H38.3895V31.3185Z" fill="#811A74"/>
<path d="M4.548 11.1132H8.58827C8.87051 11.1132 9.09404 10.8916 9.09404 10.6074V8.58633C9.09404 8.3041 8.87242 8.08057 8.58827 8.08057L4.548 8.08246C4.26577 8.08246 4.04224 8.30408 4.04224 8.58822V10.6093C4.04224 10.8916 4.26385 11.1132 4.548 11.1132ZM5.05187 9.09398H8.08256V10.1036H5.05187V9.09398Z" fill="#811A74"/>
<path d="M4.548 15.1554H8.58827C8.87051 15.1554 9.09404 14.9338 9.09404 14.6497V12.6286C9.09404 12.3463 8.87242 12.1228 8.58827 12.1228L4.548 12.1247C4.26577 12.1247 4.04224 12.3463 4.04224 12.6305V14.6516C4.04224 14.9319 4.26385 15.1554 4.548 15.1554ZM5.05187 13.1343H8.08256V14.1439H5.05187V13.1343Z" fill="#811A74"/>
<path d="M32.8339 11.1132H36.8742C37.1564 11.1132 37.3799 10.8916 37.3799 10.6074V8.58633C37.3799 8.3041 37.1583 8.08057 36.8742 8.08057H32.8339C32.5517 8.08057 32.3281 8.30219 32.3281 8.58633V10.6074C32.3281 10.8916 32.5516 11.1132 32.8339 11.1132ZM33.3396 9.09398H36.3703V10.1036H33.3396V9.09398Z" fill="#811A74"/>
<path d="M32.8339 15.1554H36.8742C37.1564 15.1554 37.3799 14.9338 37.3799 14.6497V12.6286C37.3799 12.3463 37.1583 12.1228 36.8742 12.1228H32.8339C32.5517 12.1228 32.3281 12.3444 32.3281 12.6286V14.6497C32.3281 14.9319 32.5516 15.1554 32.8339 15.1554ZM33.3396 13.1343H36.3703V14.1439H33.3396V13.1343Z" fill="#811A74"/>
<path d="M20.7109 17.1746C24.3269 17.1746 27.2781 14.2254 27.2781 10.6074C27.2781 6.99146 24.327 4.04224 20.7109 4.04224C17.0949 4.04224 14.1438 6.99146 14.1438 10.6094C14.1438 14.2254 17.0949 17.1746 20.7109 17.1746ZM20.7109 5.05182C23.7719 5.05182 26.2666 7.54644 26.2666 10.6074C26.2666 13.6684 23.7719 16.1631 20.7109 16.1631C17.6499 16.1631 15.1553 13.6684 15.1553 10.6074C15.1553 7.54834 17.6499 5.05182 20.7109 5.05182Z" fill="#811A74"/>
<path d="M17.1745 12.6286H18.6898V14.1439C18.6898 14.4261 18.9114 14.6497 19.1956 14.6497H22.2263C22.5085 14.6497 22.732 14.4281 22.732 14.1439V12.6286H24.2474C24.5296 12.6286 24.7531 12.407 24.7531 12.1228V9.09211C24.7531 8.80988 24.5315 8.58635 24.2474 8.58635L22.732 8.58825V7.0729C22.732 6.79067 22.5104 6.56714 22.2263 6.56714H19.1956C18.9133 6.56714 18.6898 6.78876 18.6898 7.0729V8.58825H17.1745C16.8922 8.58825 16.6687 8.80987 16.6687 9.09401V12.1247C16.6706 12.4069 16.8922 12.6286 17.1745 12.6286ZM17.6802 9.59788H19.1956C19.4778 9.59788 19.7013 9.37626 19.7013 9.09211V7.57866H21.7224V9.09401C21.7224 9.37624 21.9441 9.59977 22.2282 9.59977L23.7417 9.59787V11.619H22.2263C21.9441 11.619 21.7205 11.8406 21.7205 12.1247V13.6401H19.6994V12.1247C19.6994 11.8425 19.4778 11.619 19.1937 11.619H17.6802V9.59788Z" fill="#811A74"/>
<path d="M12.6286 22.2264H18.6899C18.9722 22.2264 19.1957 22.0048 19.1957 21.7207V18.69C19.1957 18.4077 18.9741 18.1842 18.6899 18.1842H12.6286C12.3463 18.1842 12.1228 18.4058 12.1228 18.69V21.7207C12.1247 22.0048 12.3463 22.2264 12.6286 22.2264ZM16.165 19.1957H18.1861V21.2168H16.165V19.1957ZM13.1343 19.1957H15.1554V21.2168H13.1343V19.1957Z" fill="#811A74"/>
<path d="M22.7323 18.1862C22.4501 18.1862 22.2266 18.4078 22.2266 18.6919V21.7226C22.2266 22.0048 22.4482 22.2284 22.7323 22.2284H28.7937C29.0759 22.2284 29.2995 22.0068 29.2995 21.7226V18.6919C29.2995 18.4097 29.0779 18.1862 28.7937 18.1862H22.7323ZM25.2573 21.2168H23.2361V19.1957H25.2573V21.2168ZM26.2668 19.1957H28.2879V21.2168H26.2668V19.1957Z" fill="#811A74"/>
<path d="M12.6286 27.2782H18.6899C18.9722 27.2782 19.1957 27.0566 19.1957 26.7724V23.7417C19.1957 23.4595 18.9741 23.236 18.6899 23.236H12.6286C12.3463 23.236 12.1228 23.4576 12.1228 23.7417V26.7724C12.1247 27.0546 12.3463 27.2782 12.6286 27.2782ZM16.165 24.2475H18.1861V26.2686H16.165V24.2475ZM13.1343 24.2475H15.1554V26.2686H13.1343V24.2475Z" fill="#811A74"/>
<path d="M28.7937 23.236H22.7323C22.4501 23.236 22.2266 23.4576 22.2266 23.7417V26.7724C22.2266 27.0546 22.4482 27.2782 22.7323 27.2782H28.7937C29.0759 27.2782 29.2995 27.0566 29.2995 26.7724V23.7417C29.2976 23.4595 29.076 23.236 28.7937 23.236ZM25.2573 26.2667H23.2361V24.2455H25.2573V26.2667ZM28.2879 26.2667H26.2668V24.2455H28.2879V26.2667Z" fill="#811A74"/>
<path d="M12.6286 32.3281H18.6899C18.9722 32.3281 19.1957 32.1065 19.1957 31.8223V28.7917C19.1957 28.5094 18.9741 28.2859 18.6899 28.2859H12.6286C12.3463 28.2859 12.1228 28.5075 12.1228 28.7917V31.8223C12.1247 32.1065 12.3463 32.3281 12.6286 32.3281ZM16.165 29.2974H18.1861V31.3185H16.165V29.2974ZM13.1343 29.2974H15.1554V31.3185H13.1343V29.2974Z" fill="#811A74"/>
<path d="M28.7937 28.2878H22.7323C22.4501 28.2878 22.2266 28.5094 22.2266 28.7935V31.8242C22.2266 32.1065 22.4482 32.33 22.7323 32.33H28.7937C29.0759 32.33 29.2995 32.1084 29.2995 31.8242V28.7935C29.2976 28.5094 29.076 28.2878 28.7937 28.2878ZM25.2573 31.3185H23.2361V29.2974H25.2573V31.3185ZM28.2879 31.3185H26.2668V29.2974H28.2879V31.3185Z" fill="#811A74"/>
</g>
</svg>
