<svg width="9" height="12" viewBox="0 0 9 12" fill="none" xmlns="http://www.w3.org/2000/svg">
<g id="Group 72">
<path id="Vector" d="M4.8418 0C2.63509 0 0.841797 1.79333 0.841797 4C0.841797 4.74667 1.04851 5.47336 1.44182 6.10002L4.57064 11.2203C4.62402 11.307 4.70402 11.3604 4.79737 11.3737C4.924 11.3937 5.06406 11.3404 5.13737 11.2137L8.27515 6.04667C8.64844 5.43336 8.8418 4.72002 8.8418 4C8.8418 1.79333 7.04851 0 4.8418 0ZM4.8418 6C3.72184 6 2.8418 5.09333 2.8418 4C2.8418 2.89998 3.74177 2 4.8418 2C5.94182 2 6.8418 2.89998 6.8418 4C6.8418 5.08667 5.97511 6 4.8418 6Z" fill="#FD003A"/>
<path id="Vector_2" d="M4.8418 0V2C5.94182 2 6.8418 2.89998 6.8418 4C6.8418 5.08667 5.97511 6 4.8418 6V11.3776C4.95555 11.3802 5.07253 11.3257 5.13735 11.2137L8.27513 6.04667C8.64844 5.43336 8.8418 4.72002 8.8418 4C8.8418 1.79333 7.04851 0 4.8418 0Z" fill="#E50027"/>
</g>
</svg>
