<svg width="10" height="13" viewBox="0 0 10 13" fill="none" xmlns="http://www.w3.org/2000/svg">
<path d="M4.00641 9.91876C1.72201 10.0501 -1.14441e-05 10.6373 -1.14441e-05 11.3414C-1.14441e-05 12.1418 2.22897 12.7914 4.9801 12.7914C7.73038 12.7914 9.96021 12.1418 9.96021 11.3414C9.96021 10.6454 8.27785 10.0645 6.03368 9.92326L4.00641 9.91876Z" fill="#BDC3C7"/>
<path d="M5.02431 0.303711C2.86904 0.303711 1.1217 2.05105 1.1217 4.20689C1.1217 5.42364 2.76608 7.96518 4.00646 9.91874C4.41327 10.5596 4.77674 11.1372 5.02431 11.5839C5.26373 11.1524 5.62552 10.5731 6.03373 9.92324C7.26764 7.95983 8.92749 5.34965 8.92749 4.20689C8.92749 2.05105 7.18015 0.303711 5.02431 0.303711ZM3.28063 4.05975C3.28063 3.09873 4.06385 2.31522 5.02431 2.31522C5.98534 2.31522 6.76856 3.09873 6.76856 4.05975C6.76856 5.02021 5.98534 5.80344 5.02431 5.80344C4.06385 5.80344 3.28063 5.02021 3.28063 4.05975Z" fill="#E74C3C"/>
</svg>
