<svg width="30" height="23" viewBox="0 0 30 23" fill="none" xmlns="http://www.w3.org/2000/svg">
<path d="M14.719 22.9368C10.3985 22.8453 6.17598 21.5498 2.52382 18.6392C1.74834 18.0203 1.09372 17.2503 0.382332 16.5518C-0.0644603 16.1123 -0.103829 15.6728 0.181824 15.0869C2.07703 11.1719 3.93561 7.23872 5.80609 3.31098C6.2245 2.43113 6.63925 1.54944 7.06315 0.671419C7.40374 -0.0353915 7.63171 -0.111378 8.355 0.172444C11.1548 1.27111 14.0516 1.6172 17.0363 1.28485C18.6733 1.10174 20.2719 0.773042 21.7917 0.107432C22.331 -0.128781 22.6093 0.0158815 22.906 0.627474C23.733 2.34079 24.5546 4.05593 25.3706 5.7729C26.8538 8.88579 28.3196 11.9987 29.8276 15.1015C30.1022 15.66 30.05 16.0574 29.6618 16.517C27.8765 18.6347 25.6654 20.1572 23.1394 21.2467C20.5511 22.3582 17.8402 22.9002 14.719 22.9368ZM8.17464 1.68036L1.53502 15.6206C8.4255 23.6418 22.1772 23.1602 28.4643 15.6032L21.8228 1.68036C17.2359 3.2066 12.7341 3.2185 8.17464 1.68036Z" fill="#811A74"/>
<path d="M20.3057 15.7241C20.3433 16.191 20.4595 16.668 20.4019 17.1231C20.2288 18.4964 19.3682 19.3277 18.113 19.7782C16.9044 20.2131 15.6721 20.1179 14.4507 19.8249C11.9211 19.2179 10.0213 17.6834 8.52434 15.6298C7.46229 14.1713 7.30848 12.5673 8.07205 10.8753C7.31306 10.0156 7.00543 9.003 7.08325 7.85397C7.23432 5.631 8.94916 4.15238 11.173 4.33915C12.0154 4.40965 12.8156 4.60283 13.5343 5.06061C14.502 5.67861 15.0321 6.56212 15.1035 7.71572C15.1209 7.99772 15.131 8.28062 15.1402 8.47106C15.6895 8.73108 16.215 8.89496 16.6353 9.2035C17.1095 9.55325 17.1516 10.1383 17.0747 10.7306C18.3464 11.4246 19.6593 11.7112 21.0739 11.4832C21.2347 11.4418 21.3976 11.4091 21.5619 11.3853C22.5635 11.3349 23.2282 12.2486 22.7274 13.1047C22.2504 13.9195 21.6287 14.6547 21.0217 15.3853C20.867 15.5776 20.5328 15.6234 20.3057 15.7241ZM12.0126 12.9262C12.5949 12.9756 13.0911 12.9994 13.581 13.0653C14.0387 13.1276 14.35 12.9646 14.6174 12.6075C14.9671 12.1388 15.5137 10.8341 15.5815 10.2079C14.8875 10.0156 14.8655 10.0248 14.6219 10.6226C14.4608 11.0181 14.3171 11.421 14.1422 11.8128C13.9591 12.2221 13.7055 12.3796 13.3054 12.3201C12.8119 12.2477 12.3202 12.1598 11.8341 12.0454C11.3919 11.9447 11.1685 11.6142 11.2271 11.2214C11.2857 10.8286 11.5933 10.6162 12.0712 10.6492C12.3724 10.6702 12.6718 10.7252 12.9749 10.7654C13.4445 9.84988 13.7357 8.93982 13.6881 7.93363C13.6496 7.12061 13.2779 6.54015 12.5601 6.16843C11.9835 5.88015 11.344 5.74071 10.6997 5.76283C9.83816 5.77474 9.1753 6.13913 8.80724 6.9256C8.3925 7.8146 8.35771 8.71643 8.8988 9.58071C8.98284 9.69608 9.0882 9.79428 9.20917 9.87002C10.0176 10.4432 10.0414 10.5338 9.48384 11.3908C9.04071 12.071 8.90155 12.8218 9.13593 13.5735C9.3167 14.1374 9.59158 14.6668 9.94894 15.1391C10.6865 16.1066 11.5989 16.9274 12.6389 17.5589C13.838 18.3094 15.2365 18.6787 16.6499 18.6182C17.4565 18.588 18.1972 18.3435 18.709 17.6568C18.8417 17.4868 18.9311 17.287 18.9695 17.0747C19.008 16.8625 18.9943 16.644 18.9296 16.4382C18.8143 16.0546 18.6916 15.6911 18.1908 15.5877C17.8337 15.5144 17.6415 15.1299 17.6973 14.8223C17.7245 14.6573 17.8086 14.507 17.935 14.3976C18.0615 14.2883 18.2223 14.2266 18.3895 14.2235C18.8399 14.1969 19.2931 14.218 19.7436 14.1924C19.9212 14.1823 20.151 14.1521 20.2572 14.0386C20.5401 13.7328 20.769 13.3766 21.0867 12.949C19.4204 13.1175 17.9573 12.7842 16.5675 12.1177C16.3295 12.538 16.1802 12.9637 15.8973 13.2612C15.4395 13.7419 15.4716 14.2217 15.6959 14.76C15.7417 14.869 15.7875 14.9788 15.825 15.0924C15.9696 15.5382 15.8442 15.9109 15.5027 16.0619C15.1191 16.2304 14.7089 16.0729 14.5075 15.6389C14.3491 15.2984 14.2392 14.9349 14.0955 14.5503L11.9137 14.3151C11.9476 13.8426 11.9806 13.4444 12.0126 12.9262Z" fill="#811A74"/>
</svg>
