<svg width="39" height="43" viewBox="0 0 39 43" fill="none" xmlns="http://www.w3.org/2000/svg">
<path d="M21.5697 3.31206C21.5697 3.31206 21.3127 -0.179831 25.3422 0.00726632C25.3422 0.00726632 27.0279 0.115678 28.0114 1.00395L21.5697 3.31206Z" fill="#653D28"/>
<path d="M6.34177 10.0991L6.76492 19.6524C6.87333 20.3029 11.4205 21.7673 14.9832 21.0871C19.9762 20.1342 22.1296 19.1322 24.269 20.7199C24.269 20.7199 28.4516 24.447 24.6458 26.5916C21.7904 28.1995 6.07598 24.4059 5.3241 24.3036C3.68656 24.0868 2.12509 22.7203 2.43896 19.9576L3.90076 9.20387C3.90076 9.20387 3.00025 5.70935 4.82051 4.62436C4.82051 4.62436 5.33634 3.51402 5.56016 2.48237C5.5765 2.40217 5.61361 2.32767 5.66777 2.2663C5.72192 2.20493 5.79124 2.15885 5.86878 2.13265C6.16079 2.04085 6.48078 2.27516 5.64758 4.62611C5.64758 4.62611 6.74743 2.97634 7.21255 1.93944C7.24634 1.86559 7.30431 1.80549 7.37689 1.76906C7.44946 1.73262 7.53229 1.72204 7.61169 1.73907C7.69109 1.75609 7.76231 1.79969 7.81357 1.86267C7.86484 1.92565 7.89307 2.00424 7.89362 2.08544C7.90062 2.60214 7.67418 3.46419 6.87595 4.89714C6.87595 4.89714 7.9251 3.20103 8.33863 2.20434C8.36447 2.1417 8.41009 2.08924 8.46854 2.05496C8.52698 2.02068 8.59504 2.00647 8.66232 2.01449C8.72961 2.02252 8.79241 2.05234 8.84116 2.09941C8.8899 2.14648 8.9219 2.2082 8.93227 2.27516C8.9961 2.76826 8.81687 3.68451 7.90761 5.38762C7.90761 5.38762 8.80812 4.63136 9.28286 3.61194C9.30749 3.56252 9.34709 3.52213 9.39602 3.49653C9.44495 3.47093 9.5007 3.46143 9.55535 3.46937C9.60999 3.47732 9.66074 3.50231 9.70035 3.54078C9.73996 3.57925 9.76642 3.62924 9.77596 3.68363C9.84065 4.19159 9.6317 5.0449 8.39809 6.34496L6.83137 8.42401C6.46942 8.9047 6.29533 9.50096 6.34177 10.1009V10.0991Z" fill="#FFCEAC"/>
<path d="M29.4423 14.8483C26.1874 18.1976 19.0383 16.2716 16.5239 13.8245C14.0094 11.3773 15.4634 9.26245 18.7148 5.91307C21.9663 2.56368 25.0858 0.312397 27.6037 2.75952C30.1216 5.20664 32.6982 11.4989 29.4423 14.8483Z" fill="#FFECDB"/>
<path d="M21.0144 5.15852C21.0144 5.15852 20.4252 4.72749 18.8104 4.72137C18.631 4.72348 18.4593 4.79444 18.3307 4.91957C18.2022 5.0447 18.1266 5.21444 18.1197 5.3937C18.0993 5.68469 18.1576 5.97579 18.2884 6.23651L18.841 7.42729L21.0144 5.15852Z" fill="#FFECDB"/>
<path d="M18.7437 14.8002C18.7437 14.8002 20.723 19.266 20.0691 21.8714L26.0369 21.3118C26.0369 21.3118 23.7236 15.552 24.7552 13.2973L18.7437 14.8002Z" fill="#FFECDB"/>
<path d="M26.0372 21.3118C26.0372 21.3118 22.6082 21.9728 18.7439 23.1085C18.7439 23.1085 13.1878 29.1918 14.9119 32.271C14.9119 32.271 17.2908 36.9458 17.6292 42.8402H27.276C27.276 42.8402 27.8154 42.6706 28.2377 37.1329C28.5997 32.389 30.4567 28.0176 26.0372 21.3118Z" fill="#FFE2CC"/>
<path d="M27.576 24.0728C27.576 24.0728 24.0167 20.476 20.677 22.1345C20.677 22.1345 20.6953 29.8781 26.9071 31.2944C27.9073 31.5226 28.6443 31.2673 28.9328 29.8719C28.9328 29.8719 29.1077 30.8809 28.3803 35.7489C28.3803 35.7489 19.6558 34.7347 16.4122 36.4553C16.4122 36.4553 15.9996 35.3948 15.4505 33.954C14.9014 32.5132 13.9065 30.6877 14.2658 29.1681C14.2658 29.1681 17.0443 23.6654 19.6742 22.0069C19.6742 22.0069 24.9592 20.156 25.7478 20.5355C25.7478 20.5355 27.5392 23.5701 27.576 24.0728Z" fill="#47C0EA"/>
<path d="M26.0373 1.07913C26.0373 1.07913 22.8452 1.32131 23.1093 4.47485C23.1093 4.47485 23.5691 9.23796 25.6141 11.4097C25.6141 11.4097 24.1969 14.8141 24.7293 16.9334C24.7293 16.9334 34.537 16.7586 34.6647 9.2196C34.6647 9.2196 34.6647 -0.0460727 26.0373 1.07913Z" fill="#653D28"/>
<path d="M26.2671 11.8278C27.2098 11.6542 27.8647 10.9202 27.7299 10.1882C27.5951 9.45634 26.7217 9.00372 25.7791 9.17729C24.8364 9.35086 24.1815 10.0849 24.3163 10.8168C24.451 11.5487 25.3245 12.0013 26.2671 11.8278Z" fill="#FFECDB"/>
<path d="M33.6488 7.81028C33.6488 7.81028 39.8344 7.53138 37.8987 15.8362C37.472 17.6722 36.7508 19.7871 37.6574 22.7326C40.0914 30.3791 34.3351 30.0634 34.3351 30.0634C34.3351 30.0634 36.6257 26.3984 34.6665 23.6488C32.3208 20.3606 31.3118 15.3519 33.6488 7.81028Z" fill="#653D28"/>
<path d="M21.7368 7.36523C21.7213 7.36504 21.706 7.36269 21.6913 7.35824C21.1116 7.17726 20.7296 6.88175 20.5547 6.48395C20.3152 5.92441 20.5792 5.37536 20.5906 5.35263C20.5993 5.33489 20.6114 5.31904 20.6263 5.306C20.6411 5.29295 20.6584 5.28295 20.6771 5.27658C20.6958 5.2702 20.7156 5.26758 20.7353 5.26885C20.7551 5.27013 20.7743 5.27527 20.7921 5.284C20.8098 5.29272 20.8257 5.30486 20.8387 5.31971C20.8518 5.33456 20.8618 5.35183 20.8681 5.37054C20.8745 5.38926 20.8771 5.40904 20.8759 5.42877C20.8746 5.4485 20.8694 5.46778 20.8607 5.48552C20.8607 5.49164 20.6474 5.9384 20.8327 6.36767C20.97 6.68416 21.2874 6.92197 21.7778 7.07497C21.8127 7.08522 21.8427 7.10777 21.8623 7.13843C21.8818 7.16909 21.8896 7.20579 21.8841 7.24174C21.8787 7.27769 21.8604 7.31045 21.8327 7.33396C21.8049 7.35747 21.7696 7.37013 21.7333 7.3696L21.7368 7.36523Z" fill="#40220F"/>
<path d="M17.385 8.96011C17.6973 8.48313 17.8124 8.00604 17.6421 7.8945C17.4717 7.78296 17.0804 8.07921 16.7681 8.55619C16.4558 9.03317 16.3407 9.51027 16.5111 9.62181C16.6814 9.73334 17.0727 9.43709 17.385 8.96011Z" fill="#C30D23"/>
<path d="M16.9048 7.59607L16.0865 7.29182L16.0961 6.54693C16.1029 6.11082 15.9744 5.68333 15.7283 5.32324C15.4822 4.96315 15.1305 4.68815 14.7218 4.53607L13.5205 4.08931C13.3368 4.02107 13.1381 4.00324 12.9452 4.03768C12.7522 4.07212 12.572 4.15756 12.4233 4.28515L12.3472 4.35073C12.2259 4.45375 12.0788 4.52172 11.9218 4.54732C11.7647 4.57291 11.6037 4.55516 11.4559 4.49596C11.3082 4.43677 11.1795 4.33839 11.0836 4.21142C10.9876 4.08445 10.9282 3.93371 10.9116 3.77545C10.8914 3.57113 10.8142 3.37659 10.6889 3.21398C10.5635 3.05137 10.395 2.92723 10.2026 2.8557L3.40589 0.332513C3.15566 0.239419 2.88954 0.196532 2.62273 0.206302C2.35592 0.216072 2.09365 0.278308 1.8509 0.389454C1.60815 0.500601 1.38967 0.658481 1.20794 0.854076C1.02622 1.04967 0.884804 1.27915 0.791779 1.52941L0.127323 3.31645C-0.0604477 3.82183 -0.0398482 4.38109 0.184593 4.87129C0.409035 5.36148 0.818947 5.74249 1.32422 5.93056L8.17949 8.48085C8.35762 8.54664 8.54977 8.56512 8.73718 8.53447C8.92458 8.50382 9.10084 8.4251 9.24874 8.30599L9.30382 8.2614C9.42187 8.16871 9.56179 8.10798 9.71012 8.08504C9.85844 8.0621 10.0102 8.07774 10.1507 8.13044C10.2912 8.18314 10.4158 8.27113 10.5125 8.38594C10.6092 8.50075 10.6747 8.63852 10.7027 8.78597L10.7158 8.85679C10.7506 9.0437 10.8333 9.21836 10.9559 9.36365C11.0786 9.50895 11.2368 9.61989 11.4152 9.68561L12.6392 10.1402C13.0474 10.2922 13.4925 10.3141 13.9136 10.2029C14.3347 10.0918 14.711 9.85306 14.991 9.5195L15.4701 8.94859L16.2894 9.25284C16.2894 9.25284 16.5971 9.18202 16.8445 8.51757C17.0919 7.85311 16.9048 7.59607 16.9048 7.59607Z" fill="#D8EEF5"/>
<path d="M4.79688 6.81358L8.48636 8.23517C8.48636 8.23517 10.3224 7.6153 10.8627 8.09178C10.8627 8.09178 10.9501 9.18464 11.4852 9.37523L13.1166 9.86308C13.3197 9.92526 13.5364 9.92769 13.7408 9.87008C14.1377 9.75555 14.7742 9.44605 15.2839 8.60936L16.2622 8.95907L16.2745 8.94071C16.4982 8.6021 16.6503 8.22125 16.7212 7.82163C16.7212 7.82163 16.1862 7.66776 15.6074 7.42995C16.0148 6.16661 15.673 5.02742 14.3231 5.0213C13.4331 5.01692 13.4322 5.59045 12.6855 5.76007C12.0412 5.90695 11.0952 5.55986 10.2375 5.91219C9.33791 6.28201 8.86492 7.14756 7.26498 7.01641L4.79688 6.81358Z" fill="#98D6F6"/>
<path d="M8.10203 11.5802L8.52518 21.1335C8.63359 21.7848 13.1799 23.2492 16.7435 22.5682C21.7374 21.6152 23.8907 20.6133 26.0292 22.201C26.0292 22.201 30.2127 25.9289 26.4061 28.0727C23.5506 29.6805 7.84324 25.8091 7.08436 25.7847C5.71698 25.7409 4.19922 24.2424 4.19922 21.4386L5.66015 10.6849C5.66015 10.6849 4.76051 7.19037 6.5799 6.10538C6.5799 6.10538 7.09572 4.99504 7.32042 3.96339C7.33685 3.88336 7.37388 3.809 7.42786 3.74767C7.48183 3.68633 7.55087 3.64015 7.62816 3.61367C7.92017 3.52187 8.24016 3.75618 7.40697 6.10713C7.40697 6.10713 8.50682 4.45823 8.97281 3.42045C9.0066 3.34661 9.06457 3.28651 9.13714 3.25007C9.20972 3.21364 9.29255 3.20306 9.37195 3.22008C9.45135 3.23711 9.52257 3.28071 9.57383 3.34369C9.62509 3.40667 9.65333 3.48526 9.65388 3.56646C9.66088 4.08404 9.43356 4.94521 8.63534 6.37816C8.63534 6.37816 9.68448 4.68205 10.0989 3.68624C10.1247 3.62361 10.1702 3.57112 10.2286 3.53679C10.287 3.50246 10.355 3.48817 10.4222 3.49609C10.4895 3.50402 10.5523 3.53372 10.6011 3.58068C10.6499 3.62764 10.682 3.68927 10.6925 3.75618C10.7555 4.24928 10.5771 5.16553 9.667 6.86951C9.667 6.86951 10.5675 6.11238 11.0422 5.09296C11.0668 5.04318 11.1064 5.00246 11.1556 4.97665C11.2047 4.95085 11.2608 4.94129 11.3157 4.94936C11.3706 4.95742 11.4215 4.9827 11.4611 5.02154C11.5008 5.06038 11.527 5.1108 11.5362 5.16553C11.6009 5.67261 11.3911 6.52591 10.1583 7.82685L8.59162 9.90328C8.22938 10.3838 8.05526 10.9802 8.10203 11.5802Z" fill="#FFE2CC"/>
<path d="M23.7042 5.93144H23.6849C23.6454 5.92642 23.6095 5.90592 23.5851 5.87445C23.5607 5.84298 23.5497 5.8031 23.5547 5.76357C23.6325 5.14545 23.5389 4.66547 23.2758 4.33761C23.089 4.10915 22.8243 3.95781 22.5326 3.91271C22.493 3.90895 22.4565 3.88962 22.4311 3.85897C22.4057 3.82833 22.3935 3.78886 22.3971 3.74922C22.3987 3.72952 22.4041 3.71032 22.4131 3.69274C22.4222 3.67517 22.4346 3.65958 22.4498 3.64688C22.4649 3.63418 22.4825 3.62463 22.5013 3.61878C22.5202 3.61293 22.5401 3.61091 22.5597 3.61283C22.9312 3.66263 23.2698 3.85208 23.5066 4.14265C23.8248 4.53695 23.9437 5.09387 23.8563 5.79942C23.8516 5.83626 23.8335 5.87009 23.8054 5.89443C23.7774 5.91878 23.7413 5.93195 23.7042 5.93144Z" fill="#40220F"/>
<path d="M28.3511 2.81198C28.3511 2.81198 31.0614 5.20665 32.9909 4.23444C32.9909 4.23444 33.6851 5.1708 33.9719 6.15787C33.9719 6.15525 29.8312 5.85274 28.3511 2.81198Z" fill="#86421C"/>
</svg>
