<svg width="54" height="58" viewBox="0 0 54 58" fill="none" xmlns="http://www.w3.org/2000/svg">
<g filter="url(#filter0_d_158_1590)">
<path fill-rule="evenodd" clip-rule="evenodd" d="M9.08968 49.3232H18.986V33.3917L13.0903 32.7254L7.62598 33.3917V47.8622C7.62598 48.6651 8.28413 49.3232 9.08968 49.3232Z" fill="#80B4FB"/>
<path fill-rule="evenodd" clip-rule="evenodd" d="M15.0889 49.3232H18.9858V33.3917H14.6274V47.3734C14.6274 48.0752 14.794 48.7361 15.0889 49.3232Z" fill="#61A2F9"/>
<path fill-rule="evenodd" clip-rule="evenodd" d="M21.5721 33.3918V31.5376C21.5721 30.7347 20.914 30.0766 20.1084 30.0766H9.08968C8.28413 30.0766 7.62598 30.7348 7.62598 31.5376V33.3918H21.5721Z" fill="#B3E59F" stroke="#B3E59F" stroke-miterlimit="10"/>
<path fill-rule="evenodd" clip-rule="evenodd" d="M18.3304 37.2613H12.5411C12.1178 37.2613 11.771 37.6081 11.771 38.0314V44.6837C11.771 45.1069 12.1178 45.4538 12.5411 45.4538H18.3304C18.7537 45.4538 19.1005 45.107 19.1005 44.6837V38.0314C19.1005 37.6081 18.7537 37.2613 18.3304 37.2613Z" fill="#B3E59F" stroke="#B3E59F" stroke-miterlimit="10"/>
<path fill-rule="evenodd" clip-rule="evenodd" d="M35.223 49.3232H44.292C45.0947 49.3232 45.7529 48.6651 45.7529 47.8623V29.0034L39.6196 28.4245L33.7593 29.0034V47.8622C33.7594 48.6651 34.4174 49.3232 35.223 49.3232Z" fill="#FFE07D"/>
<path fill-rule="evenodd" clip-rule="evenodd" d="M41.8833 49.3232H44.2919C45.0947 49.3232 45.7529 48.6651 45.7529 47.8623V29.0034H43.3443V47.8622C43.3442 48.6651 42.6862 49.3232 41.8833 49.3232Z" fill="#FFD064"/>
<path fill-rule="evenodd" clip-rule="evenodd" d="M45.7529 29.0034V27.1493C45.7529 26.3464 45.0947 25.6883 44.292 25.6883H35.223C34.4174 25.6883 33.7593 26.3464 33.7593 27.1493V29.0034H45.7529Z" fill="#F37C7C"/>
<path fill-rule="evenodd" clip-rule="evenodd" d="M45.7529 29.0034V27.1493C45.7529 26.3464 45.0947 25.6883 44.2919 25.6883H41.8833C42.6862 25.6883 43.3443 26.3464 43.3443 27.1493V29.0034H45.7529Z" fill="#EE6161"/>
<path fill-rule="evenodd" clip-rule="evenodd" d="M45.7532 34.3367H41.2584C40.8352 34.3367 40.4883 34.6835 40.4883 35.1068V41.7562C40.4883 42.1822 40.8351 42.529 41.2584 42.529H45.7532V34.3367Z" fill="#F37C7C"/>
<path fill-rule="evenodd" clip-rule="evenodd" d="M21.96 21.6904H31.3102V25.3933H21.96V21.6904Z" fill="#BED8FB"/>
<path fill-rule="evenodd" clip-rule="evenodd" d="M36.2362 29.9291V47.3734C36.2362 48.4466 35.3569 49.3232 34.2865 49.3232H18.9859C17.9155 49.3232 17.0361 48.4466 17.0361 47.3734V29.9291C17.0361 27.2202 19.2536 25.0055 21.9598 25.0055H31.31C34.0189 25.0055 36.2362 27.2202 36.2362 29.9291Z" fill="#F9F7F8"/>
<path fill-rule="evenodd" clip-rule="evenodd" d="M21.296 15.8874H31.9761C33.0466 15.8874 33.9259 16.764 33.9259 17.8371V20.1282C33.9259 21.2015 33.0466 22.078 31.9761 22.078H21.296C20.2255 22.078 19.3462 21.2015 19.3462 20.1282V17.8371C19.3462 16.764 20.2255 15.8874 21.296 15.8874Z" fill="#F9F7F8"/>
<path fill-rule="evenodd" clip-rule="evenodd" d="M36.2364 29.9291V47.3734C36.2364 48.4466 35.3571 49.3232 34.2867 49.3232H31.878C32.9485 49.3232 33.8278 48.4466 33.8278 47.3734V29.9291C33.8278 27.2202 31.6104 25.0055 28.9043 25.0055H31.3102C34.0191 25.0055 36.2364 27.2202 36.2364 29.9291Z" fill="#EBE8FA"/>
<path fill-rule="evenodd" clip-rule="evenodd" d="M29.5679 15.8874H31.9764C33.0469 15.8874 33.9262 16.764 33.9262 17.8371V20.1282C33.9262 21.2015 33.0469 22.078 31.9764 22.078H29.5679C30.6383 22.078 31.5177 21.2015 31.5177 20.1282V17.8371C31.5177 16.764 30.6383 15.8874 29.5679 15.8874Z" fill="#EBE8FA"/>
<path fill-rule="evenodd" clip-rule="evenodd" d="M17.0361 34.3558H36.2363V44.8966H17.0361V34.3558Z" fill="#BED8FB"/>
<path d="M24.0519 38.8861C23.6532 38.8861 23.331 38.5638 23.331 38.1652C23.331 37.7638 23.6533 37.4415 24.0519 37.4415H29.2213C29.62 37.4415 29.9422 37.7638 29.9422 38.1652C29.9422 38.5639 29.6199 38.8861 29.2213 38.8861H24.0519ZM21.4195 41.8108C21.0207 41.8108 20.6958 41.4885 20.6958 41.0898C20.6958 40.6911 21.0207 40.3661 21.4195 40.3661H31.8538C32.2525 40.3661 32.5747 40.6911 32.5747 41.0898C32.5747 41.4885 32.2525 41.8108 31.8538 41.8108H21.4195Z" fill="#365E7D"/>
<path fill-rule="evenodd" clip-rule="evenodd" d="M16.7936 3.98392L15.1961 6.74746C14.5244 7.91079 14.9285 9.40725 16.0891 10.079C17.2497 10.748 18.7489 10.3466 19.418 9.18607L21.0155 6.41973L19.0411 4.92876L16.7936 3.98392Z" fill="#F37C7C"/>
<path fill-rule="evenodd" clip-rule="evenodd" d="M19.2104 5.37665L17.0094 9.18609C16.7854 9.57654 16.4687 9.8797 16.1001 10.0845C17.2606 10.7454 18.7517 10.3439 19.4179 9.18609L21.0155 6.41976L19.2104 5.37665Z" fill="#EE6161"/>
<path fill-rule="evenodd" clip-rule="evenodd" d="M21.7198 0.324683C20.5592 -0.344359 19.06 0.0570666 18.3883 1.21761L16.7935 3.98394L21.0153 6.41976L22.6128 3.65621C23.2819 2.49288 22.8803 0.996423 21.7198 0.324683Z" fill="#80B4FB"/>
<path fill-rule="evenodd" clip-rule="evenodd" d="M21.7196 0.324675C20.9468 -0.120486 20.0265 -0.093127 19.2973 0.316487C20.4689 0.974643 20.873 2.49567 20.2039 3.65621L19.21 5.37664L21.015 6.41975L22.6125 3.65621C23.2816 2.49287 22.8801 0.996414 21.7196 0.324675Z" fill="#61A2F9"/>
<path fill-rule="evenodd" clip-rule="evenodd" d="M34.1259 3.35852C32.3782 2.34807 30.1417 2.94891 29.1312 4.6966C28.1209 6.447 28.7216 8.68359 30.4693 9.69115C32.2197 10.7016 34.4563 10.1036 35.4638 8.35307C36.4743 6.60547 35.8763 4.36897 34.1259 3.35852Z" fill="#EBE8FA"/>
<path fill-rule="evenodd" clip-rule="evenodd" d="M34.1257 3.35855C33.1671 2.80694 32.0639 2.73594 31.0945 3.07186C31.3075 3.14835 31.515 3.24112 31.7171 3.35855C33.4675 4.3689 34.0655 6.6055 33.0552 8.3532C32.5991 9.14516 31.8919 9.69947 31.0918 9.97797C32.7194 10.5488 34.5708 9.90148 35.4637 8.3532C36.4741 6.6055 35.876 4.369 34.1257 3.35855Z" fill="#DDDAEC"/>
<path fill-rule="evenodd" clip-rule="evenodd" d="M29.5518 4.10954C29.3961 4.28709 29.2541 4.48361 29.1312 4.6967C29.0083 4.91239 28.9073 5.13088 28.8335 5.35755L35.0433 8.94302C35.199 8.76548 35.341 8.56886 35.4638 8.35317C35.5867 8.14017 35.6878 7.91899 35.7642 7.69511L29.5518 4.10954Z" fill="#BED8FB"/>
<path fill-rule="evenodd" clip-rule="evenodd" d="M48.0146 10.2046C46.3543 8.81192 43.4515 9.53838 41.529 11.8294C39.6093 14.1178 39.3963 17.1026 41.0565 18.4981C42.7168 19.8908 45.6225 19.1644 47.5421 16.8732C49.4647 14.5848 49.675 11.6001 48.0146 10.2046Z" fill="#F37C7C"/>
<path fill-rule="evenodd" clip-rule="evenodd" d="M48.0146 10.2046C47.1407 9.47278 45.9255 9.32529 44.6885 9.68577C45.0217 9.8032 45.3302 9.97526 45.606 10.2046C47.2663 11.6 47.056 14.5848 45.1336 16.8732C44.2243 17.96 43.0909 18.6947 41.9741 19.0169C43.6535 19.6068 45.9392 18.7848 47.5421 16.8732C49.4646 14.5848 49.6749 11.6001 48.0146 10.2046Z" fill="#EE6161"/>
<path fill-rule="evenodd" clip-rule="evenodd" d="M12.0255 18.9377C13.4046 17.7826 13.1452 15.2075 11.4493 13.1867C9.75345 11.1632 7.26031 10.4614 5.88398 11.6164C4.50766 12.7716 4.76708 15.3494 6.46286 17.3702C8.15873 19.3911 10.6492 20.0928 12.0255 18.9377Z" fill="#B3E59F" stroke="#B3E59F" stroke-miterlimit="10"/>
<path fill-rule="evenodd" clip-rule="evenodd" d="M12.0253 18.9377C13.4045 17.7826 13.145 15.2075 11.4492 13.1867C9.94722 11.3952 7.82266 10.6415 6.3999 11.2915C7.32288 11.6137 8.26503 12.2609 9.04052 13.1867C10.7364 15.2075 10.9958 17.7825 9.61949 18.9377C9.46112 19.0715 9.28627 19.178 9.10343 19.2627C10.2012 19.645 11.2798 19.5658 12.0253 18.9377Z" fill="#95D6A4" stroke="#95D6A4" stroke-miterlimit="10"/>
<path d="M9.08153 16.1141C8.77567 16.368 8.32241 16.3271 8.06568 16.0213C7.80905 15.7181 7.84999 15.2621 8.15585 15.0054L8.82759 14.443C9.13345 14.1863 9.5895 14.2272 9.84344 14.533C10.1002 14.8389 10.0591 15.2921 9.75327 15.5489L9.08153 16.1141Z" fill="#78C2A4" stroke="#78C2A4" stroke-miterlimit="10"/>
<path fill-rule="evenodd" clip-rule="evenodd" d="M33.8281 34.3557H36.2367V44.8966H33.8281V34.3557Z" fill="#9DC6FB"/>
<path fill-rule="evenodd" clip-rule="evenodd" d="M43.3447 34.3367H45.7533V42.529H43.3447V34.3367Z" fill="#EE6161"/>
<path fill-rule="evenodd" clip-rule="evenodd" d="M28.9043 22.0781H31.3102V25.0055H28.9043V22.0781Z" fill="#9DC6FB"/>
<path fill-rule="evenodd" clip-rule="evenodd" d="M14.6279 37.2613H17.0365V45.4536H14.6279V37.2613ZM14.6279 33.3917H17.0365V30.0766H14.6279V33.3917Z" fill="#95D6A4" stroke="#95D6A4" stroke-miterlimit="10"/>
<path fill-rule="evenodd" clip-rule="evenodd" d="M33.271 7.919L35.0433 8.94303C35.1989 8.76549 35.3409 8.56887 35.4638 8.35318C35.5867 8.14018 35.6877 7.919 35.7641 7.69512L33.544 6.41435C33.5605 6.91953 33.4731 7.4329 33.271 7.919Z" fill="#9DC6FB"/>
</g>
<defs>
<filter id="filter0_d_158_1590" x="0.5" y="0" width="52.6343" height="57.3232" filterUnits="userSpaceOnUse" color-interpolation-filters="sRGB">
<feFlood flood-opacity="0" result="BackgroundImageFix"/>
<feColorMatrix in="SourceAlpha" type="matrix" values="0 0 0 0 0 0 0 0 0 0 0 0 0 0 0 0 0 0 127 0" result="hardAlpha"/>
<feOffset dy="4"/>
<feGaussianBlur stdDeviation="2"/>
<feComposite in2="hardAlpha" operator="out"/>
<feColorMatrix type="matrix" values="0 0 0 0 0 0 0 0 0 0 0 0 0 0 0 0 0 0 0.1 0"/>
<feBlend mode="normal" in2="BackgroundImageFix" result="effect1_dropShadow_158_1590"/>
<feBlend mode="normal" in="SourceGraphic" in2="effect1_dropShadow_158_1590" result="shape"/>
</filter>
</defs>
</svg>
