<svg width="34" height="33" viewBox="0 0 34 33" fill="none" xmlns="http://www.w3.org/2000/svg">
<g filter="url(#filter0_d_162_2039)">
<path d="M17.2309 24.1586C18.6102 23.6911 19.3494 22.1939 18.8818 20.8146C18.4143 19.4353 16.9171 18.6961 15.5378 19.1637C14.1584 19.6312 13.4193 21.1284 13.8868 22.5077C14.3544 23.887 15.8516 24.6262 17.2309 24.1586Z" fill="#FFE266"/>
<path d="M16.3897 19.021C16.2218 19.021 16.0577 19.0374 15.8986 19.0674C16.6709 19.248 17.2463 19.9405 17.2463 20.768C17.2463 21.7328 16.4642 22.5149 15.4994 22.5149C14.672 22.5149 13.9794 21.9395 13.7988 21.1671C13.7688 21.3263 13.7524 21.4904 13.7524 21.6582C13.7524 23.1147 14.9332 24.2955 16.3897 24.2955C17.8462 24.2955 19.027 23.1147 19.027 21.6582C19.0269 20.2018 17.8462 19.021 16.3897 19.021Z" fill="#EFAA66"/>
<path d="M23.5272 0.659133C22.7961 0.237084 21.8614 0.48754 21.4394 1.21855L20.173 3.41194C19.751 4.14295 20.0014 5.07767 20.7325 5.49972C21.4635 5.92176 22.3982 5.67131 22.8202 4.94029L24.0866 2.74691C24.5086 2.01589 24.2582 1.08118 23.5272 0.659133Z" fill="#FFE266"/>
<path d="M22.8028 22.7199C21.7581 21.0632 25.3393 13.7313 25.3855 13.6377C27.3254 9.70654 25.8252 5.00333 22.0346 3.13277C18.2441 1.26221 13.5986 2.93266 11.6586 6.8638C11.5593 7.06519 8.10893 14.4154 6.12524 14.4899L22.8028 22.7199Z" fill="#FFE266"/>
<path d="M22.0346 3.13277C21.6226 2.92942 21.2004 2.76805 20.7728 2.64676C22.8036 4.26105 23.4801 7.1943 22.2444 9.69857C22.2261 9.73559 21.4506 11.3231 20.8647 12.9628C20.2803 14.5987 18.4082 15.3669 16.8504 14.5982L9.46092 10.9516C8.36608 12.7438 7.07697 14.4542 6.12524 14.4899L22.8028 22.7199C21.7581 21.0631 25.3393 13.7312 25.3855 13.6377C27.3254 9.70654 25.8252 5.00333 22.0346 3.13277Z" fill="#EFAA66"/>
<path d="M14.4301 7.14356C14.3215 7.14356 14.2122 7.10777 14.1212 7.03412C13.9101 6.86331 13.8774 6.55376 14.0481 6.34263C14.5087 5.77328 15.0528 5.28186 15.6651 4.88198C15.8924 4.73345 16.1971 4.79747 16.3456 5.02486C16.494 5.25221 16.4301 5.5569 16.2027 5.70533C15.6763 6.04906 15.2086 6.4715 14.8126 6.96106C14.7155 7.08122 14.5734 7.14356 14.4301 7.14356Z" fill="white"/>
<path d="M17.4314 5.06577C17.2246 5.06577 17.0322 4.93429 16.9643 4.7271C16.8797 4.46908 17.0203 4.19133 17.2784 4.10676C17.4652 4.0455 17.6573 3.99181 17.8493 3.94707C18.1137 3.88542 18.3781 4.04983 18.4397 4.3143C18.5013 4.57872 18.3369 4.84309 18.0725 4.90474C17.9084 4.943 17.7442 4.98887 17.5846 5.04118C17.5338 5.0578 17.4821 5.06577 17.4314 5.06577Z" fill="white"/>
<path d="M21.448 23.5876L6.15714 16.0419C5.56359 15.749 5.31987 15.0304 5.61276 14.4368L5.63204 14.3978C5.92492 13.8043 6.64355 13.5605 7.23709 13.8534L22.528 21.3991C23.1215 21.692 23.3652 22.4106 23.0723 23.0042L23.0531 23.0432C22.7602 23.6368 22.0416 23.8805 21.448 23.5876Z" fill="#FFE266"/>
<path d="M18.7367 22.7416C18.6637 22.7416 18.5895 22.7252 18.5195 22.6907L14.3162 20.6164C14.0727 20.4963 13.9727 20.2015 14.0929 19.9579C14.213 19.7145 14.5078 19.6144 14.7514 19.7346L18.9547 21.8088C19.1982 21.929 19.2982 22.2238 19.1781 22.4673C19.0923 22.6409 18.918 22.7416 18.7367 22.7416Z" fill="#D0844B"/>
<path d="M6.80877 4.84456L7.21263 5.98022C7.22994 6.02885 7.26416 6.06739 7.30737 6.08686L8.31633 6.54146C8.45886 6.60567 8.45886 6.83278 8.31633 6.89704L7.30737 7.35163C7.26416 7.3711 7.22994 7.4096 7.21263 7.45823L6.80877 8.59388C6.75174 8.75432 6.54991 8.75432 6.49288 8.59388L6.08902 7.45823C6.07171 7.4096 6.03749 7.37105 5.99427 7.35163L4.98532 6.89704C4.84278 6.83282 4.84278 6.60572 4.98532 6.54146L5.99427 6.08686C6.03749 6.06739 6.07171 6.02885 6.08902 5.98022L6.49288 4.84456C6.54991 4.68413 6.75169 4.68413 6.80877 4.84456Z" fill="#FEF2A8"/>
<path d="M11.8232 0.089238L12.1228 0.931615C12.1356 0.967703 12.161 0.996269 12.1931 1.01072L12.9415 1.34791C13.0472 1.39555 13.0472 1.564 12.9415 1.61164L12.1931 1.94883C12.161 1.96328 12.1356 1.99185 12.1228 2.02794L11.8232 2.87032C11.7809 2.98935 11.6312 2.98935 11.5889 2.87032L11.2893 2.02794C11.2765 1.99185 11.2511 1.96328 11.2191 1.94883L10.4706 1.61164C10.3649 1.564 10.3649 1.39555 10.4706 1.34791L11.2191 1.01072C11.2511 0.996269 11.2765 0.967703 11.2893 0.931615L11.5889 0.089238C11.6312 -0.029746 11.7809 -0.029746 11.8232 0.089238Z" fill="#FEF2A8"/>
<path d="M29.0847 4.12491C29.1904 3.64954 28.8907 3.17849 28.4154 3.0728C27.94 2.96711 27.4689 3.26679 27.3632 3.74217C27.2576 4.21754 27.5572 4.68859 28.0326 4.79428C28.508 4.89998 28.979 4.60029 29.0847 4.12491Z" fill="#FFE266"/>
<path d="M7.5557 2.80547C7.76579 2.80547 7.9361 2.63515 7.9361 2.42506C7.9361 2.21497 7.76579 2.04466 7.5557 2.04466C7.34561 2.04466 7.17529 2.21497 7.17529 2.42506C7.17529 2.63515 7.34561 2.80547 7.5557 2.80547Z" fill="#FFE266"/>
</g>
<defs>
<filter id="filter0_d_162_2039" x="0.878418" y="0" width="32.2275" height="32.2989" filterUnits="userSpaceOnUse" color-interpolation-filters="sRGB">
<feFlood flood-opacity="0" result="BackgroundImageFix"/>
<feColorMatrix in="SourceAlpha" type="matrix" values="0 0 0 0 0 0 0 0 0 0 0 0 0 0 0 0 0 0 127 0" result="hardAlpha"/>
<feOffset dy="4"/>
<feGaussianBlur stdDeviation="2"/>
<feComposite in2="hardAlpha" operator="out"/>
<feColorMatrix type="matrix" values="0 0 0 0 0 0 0 0 0 0 0 0 0 0 0 0 0 0 0.1 0"/>
<feBlend mode="normal" in2="BackgroundImageFix" result="effect1_dropShadow_162_2039"/>
<feBlend mode="normal" in="SourceGraphic" in2="effect1_dropShadow_162_2039" result="shape"/>
</filter>
</defs>
</svg>
