<svg width="30" height="30" viewBox="0 0 30 30" fill="none" xmlns="http://www.w3.org/2000/svg">
<circle cx="15" cy="15" r="15" fill="#26CBFF"/>
<path d="M18.526 19.248C18.4721 19.3016 18.407 19.3421 18.3309 19.3698L18.2542 19.3928C18.2542 19.3928 7.90673 23.5678 7.10215 22.7603C6.29757 21.9527 10.5101 11.6206 10.5101 11.6206L10.5335 11.5439C10.5615 11.468 10.6022 11.4029 10.656 11.3493C11.2997 10.708 13.5834 11.9561 15.7566 14.1372C17.9298 16.3184 19.1696 18.6067 18.526 19.248Z" fill="url(#paint0_linear_114_6931)"/>
<path d="M17.8823 19.5411C17.3377 19.757 16.2473 20.1844 14.9598 20.6629C14.1723 20.9556 13.311 21.2674 12.4558 21.5613C11.7084 21.8181 10.9655 22.0617 10.281 22.267C9.81065 21.8717 9.34325 21.443 8.88535 20.9835C8.42744 20.5239 8.00048 20.0549 7.60693 19.5832C7.81469 18.8994 8.06101 18.1574 8.32059 17.411C8.61756 16.5568 8.9325 15.6966 9.2281 14.9102C9.71123 13.6245 10.1426 12.5357 10.3605 11.9919C11.7489 12.7448 13.2325 13.8582 14.6294 15.2603C16.0264 16.6623 17.1344 18.15 17.8823 19.5411Z" fill="url(#paint1_linear_114_6931)"/>
<path d="M18.526 19.2479C18.4723 19.3017 18.4069 19.3419 18.3309 19.3698L18.2542 19.3927C18.2542 19.3927 18.1205 19.4467 17.8823 19.5411C17.3377 19.7571 16.2473 20.1845 14.9598 20.6629C14.1723 20.9557 13.311 21.2675 12.4558 21.5613C11.7124 21.0007 10.9673 20.353 10.2454 19.6284C9.52348 18.9039 8.87853 18.1564 8.32056 17.411C8.61752 16.5568 8.93247 15.6967 9.22806 14.9103C9.7112 13.6245 10.1426 12.5357 10.3605 11.992C10.4558 11.7541 10.5103 11.6205 10.5103 11.6205L10.5334 11.5439C10.5617 11.468 10.6021 11.4028 10.6561 11.3493C11.2998 10.7079 13.5833 11.9562 15.7567 14.1371C17.9298 16.3185 19.1697 18.6065 18.526 19.2479Z" fill="url(#paint2_linear_114_6931)"/>
<path d="M18.526 19.2479C18.4723 19.3017 18.407 19.3419 18.3309 19.3698L18.2543 19.3927C18.2543 19.3927 18.1205 19.4466 17.8823 19.5411C17.3377 19.7571 16.2474 20.1845 14.9598 20.6629C13.9119 19.9727 12.8383 19.0981 11.8118 18.0678C10.7852 17.0375 9.9145 15.9608 9.22815 14.9103C9.71128 13.6245 10.1427 12.5357 10.3606 11.992C10.4559 11.7541 10.5104 11.6205 10.5104 11.6205L10.5335 11.5439C10.5617 11.468 10.6022 11.4028 10.6562 11.3493C11.2999 10.7079 13.5834 11.9562 15.7568 14.1371C17.9298 16.3184 19.1697 18.6065 18.526 19.2479Z" fill="url(#paint3_linear_114_6931)"/>
<path d="M18.5258 19.248C17.882 19.8895 15.5983 18.6413 13.4251 16.4602C11.2519 14.279 10.012 11.9909 10.6558 11.3494C11.2996 10.7079 13.5833 11.9561 15.7565 14.1372C17.9297 16.3184 19.1696 18.6066 18.5258 19.248Z" fill="url(#paint4_linear_114_6931)"/>
<path d="M18.1246 18.66C17.649 19.1339 15.7227 17.9718 13.8223 16.0644C11.9218 14.157 10.7667 12.2266 11.2423 11.7527C11.7179 11.2788 13.6442 12.4409 15.5446 14.3483C17.4451 16.2557 18.6002 18.1861 18.1246 18.66Z" fill="url(#paint5_linear_114_6931)"/>
<path d="M18.5259 19.2479C19.1696 18.6065 17.9298 16.3183 15.7565 14.1372C14.4822 12.8582 13.1701 11.9003 12.1727 11.4558C12.2117 11.5275 12.2551 11.5985 12.3037 11.6686C12.3826 11.7824 12.475 11.8862 12.579 11.9798L13.1308 12.5354C13.0672 12.5643 13.0088 12.5871 12.9596 12.6045C12.8716 12.6355 12.8201 12.7265 12.8385 12.8179L13.0338 13.7879C13.0511 13.8737 13.1113 13.9388 13.1864 13.9673L18.4845 19.2846C18.4989 19.2732 18.5128 19.261 18.5259 19.2479Z" fill="url(#paint6_linear_114_6931)"/>
<path d="M15.0031 16.2342L15.545 16.882L18.0695 19.4157C18.2624 19.4102 18.4175 19.356 18.5258 19.248C19.0884 18.6875 18.2126 16.8695 16.5325 14.9642C16.0089 15.1829 15.5099 15.4691 15.049 15.821C14.9188 15.9203 14.898 16.1085 15.0031 16.2342Z" fill="url(#paint7_linear_114_6931)"/>
<path d="M15.545 16.882L15.0031 16.2342C14.898 16.1085 14.9188 15.9203 15.0489 15.8209C16.7284 14.5387 18.913 14.1222 20.9533 14.709C21.4668 14.8567 21.9584 15.0637 22.4187 15.3259C22.5611 15.407 22.6067 15.5908 22.5192 15.7294L22.0684 16.4436C21.9866 16.5731 21.818 16.6154 21.6844 16.5406C21.3312 16.3427 20.9544 16.1856 20.5611 16.0725C18.9656 15.6136 17.2579 15.9338 15.9384 16.927C15.8161 17.0191 15.6432 16.9994 15.545 16.882Z" fill="url(#paint8_linear_114_6931)"/>
<path d="M10.8622 10.1563L10.3701 9.65003C10.1471 9.42053 10.0799 9.05112 10.2102 8.77024C10.3614 8.4441 10.7243 8.34851 11.0165 8.55782C11.2683 8.73811 11.3918 9.09265 11.3108 9.40224L11.1321 10.0853C11.1005 10.206 10.9492 10.2458 10.8622 10.1563Z" fill="url(#paint9_linear_114_6931)"/>
<path d="M9.99175 10.7062L9.29305 10.6047C8.97637 10.5587 8.69797 10.3067 8.63003 10.0046C8.55115 9.6539 8.78059 9.35697 9.13986 9.3448C9.4493 9.33432 9.76334 9.54009 9.88779 9.83494L10.1624 10.4854C10.2109 10.6003 10.1152 10.7242 9.99175 10.7062Z" fill="url(#paint10_linear_114_6931)"/>
<path d="M19.3467 18.8279L20.0498 18.7642C20.3685 18.7354 20.6978 18.9157 20.8341 19.1938C20.9923 19.5165 20.8382 19.8587 20.4916 19.954C20.1931 20.0362 19.8398 19.909 19.6502 19.6512L19.232 19.0823C19.1581 18.9818 19.2224 18.8391 19.3467 18.8279Z" fill="url(#paint11_linear_114_6931)"/>
<path d="M19.4672 17.8055L19.9859 17.3265C20.221 17.1093 20.592 17.0516 20.8695 17.189C21.1917 17.3484 21.278 17.7136 21.0613 18.0005C20.8747 18.2476 20.5171 18.362 20.2097 18.2732L19.5314 18.0771C19.4116 18.0424 19.3756 17.8901 19.4672 17.8055Z" fill="url(#paint12_linear_114_6931)"/>
<path d="M13.3454 13.9715C13.2079 14.0159 13.0625 13.9297 13.0339 13.788L12.8387 12.818C12.8202 12.7265 12.8718 12.6355 12.9598 12.6045C13.0626 12.5683 13.2055 12.5086 13.3532 12.4178C12.9071 12.2705 12.544 12.0151 12.3038 11.6686C11.851 11.0153 11.8155 10.2789 12.2088 9.69877C12.5981 9.12468 13.3173 8.84461 13.9986 9.00191C14.7435 9.17386 15.2667 9.82562 15.3983 10.7454C15.4037 10.7837 15.4086 10.8218 15.4128 10.8598C15.5955 10.7527 15.7432 10.6206 15.8357 10.4728C16.0698 10.0986 16.092 9.54019 15.8923 9.05018C15.7656 8.73919 15.57 8.50136 15.3494 8.38172C15.2509 8.32838 15.1985 8.21767 15.2249 8.1089L15.4486 7.18639C15.4829 7.04511 15.6334 6.9638 15.7691 7.01581C16.3953 7.2556 16.9104 7.78891 17.2062 8.51479C17.5779 9.42706 17.5137 10.4656 17.0385 11.2252C16.6625 11.8262 15.9691 12.2744 15.1673 12.4639C14.9872 12.8405 14.7177 13.1713 14.3641 13.4423C13.9866 13.7317 13.5956 13.8909 13.3454 13.9715ZM13.6235 10.3781C13.5307 10.3779 13.4311 10.4241 13.3831 10.4949C13.3115 10.6006 13.4067 10.7693 13.4699 10.8604C13.5565 10.9854 13.7581 11.0786 14.0121 11.1203C14.0084 11.0638 14.0023 11.0058 13.9938 10.9462C13.9485 10.6293 13.831 10.4193 13.6795 10.3843C13.6615 10.3801 13.6427 10.3781 13.6235 10.3781Z" fill="url(#paint13_radial_114_6931)"/>
<path d="M16.4297 11.8804L15.4128 10.8597C15.4128 10.8597 15.4777 11.8452 15.1672 12.4639C15.6401 12.3522 16.0751 12.1503 16.4297 11.8804Z" fill="url(#paint14_linear_114_6931)"/>
<path d="M13.4699 10.8604C13.4236 10.7936 13.3604 10.6853 13.3579 10.5906L11.9373 10.588C11.9395 10.9476 12.0622 11.3199 12.3038 11.6686C12.544 12.0151 12.907 12.2705 13.3532 12.4178C13.3532 12.4178 14.0813 12.1969 14.0121 11.1203C13.7581 11.0785 13.5565 10.9853 13.4699 10.8604Z" fill="url(#paint15_linear_114_6931)"/>
<path d="M16.4823 14.0914C16.1525 14.3063 15.8711 14.5894 15.658 14.9206C15.6101 14.995 15.4995 14.9949 15.4518 14.9202C15.2399 14.5883 14.9596 14.3042 14.6306 14.088C14.5575 14.0401 14.5578 13.931 14.6309 13.8833C14.9607 13.6684 15.2421 13.3853 15.4552 13.0541C15.5031 12.9797 15.6137 12.9799 15.6614 13.0545C15.8733 13.3864 16.1536 13.6706 16.4826 13.8867C16.5557 13.9347 16.5555 14.0437 16.4823 14.0914Z" fill="url(#paint16_linear_114_6931)"/>
<path d="M22.5124 13.6578C22.1826 13.8727 21.9012 14.1558 21.6881 14.487C21.6402 14.5615 21.5296 14.5613 21.482 14.4866C21.2701 14.1547 20.9898 13.8706 20.6607 13.6544C20.5877 13.6065 20.5879 13.4974 20.6611 13.4497C20.9909 13.2348 21.2723 12.9517 21.4854 12.6206C21.5333 12.5461 21.6439 12.5463 21.6915 12.6209C21.9034 12.9529 22.1838 13.237 22.5128 13.4531C22.5858 13.501 22.5856 13.6101 22.5124 13.6578Z" fill="url(#paint17_linear_114_6931)"/>
<path d="M19.6884 8.84155C19.3587 9.05646 19.0772 9.33955 18.8642 9.6707C18.8162 9.74517 18.7057 9.74498 18.658 9.67033C18.4461 9.3384 18.1658 9.05428 17.8368 8.83816C17.7637 8.79019 17.7639 8.68111 17.8371 8.63342C18.1669 8.41851 18.4483 8.13542 18.6614 7.80427C18.7093 7.7298 18.8199 7.72999 18.8676 7.80464C19.0795 8.13657 19.3598 8.42069 19.6888 8.63681C19.7619 8.68478 19.7616 8.79387 19.6884 8.84155Z" fill="url(#paint18_linear_114_6931)"/>
<path d="M19.3829 12.1627C19.1425 12.3194 18.9374 12.5257 18.7821 12.7671C18.7471 12.8214 18.6665 12.8212 18.6318 12.7668C18.4773 12.5248 18.273 12.3177 18.0331 12.1602C17.9799 12.1252 17.98 12.0457 18.0334 12.0109C18.2738 11.8543 18.4789 11.6479 18.6343 11.4065C18.6692 11.3523 18.7498 11.3524 18.7845 11.4068C18.939 11.6488 19.1434 11.8559 19.3832 12.0134C19.4365 12.0484 19.4363 12.1279 19.3829 12.1627Z" fill="url(#paint19_linear_114_6931)"/>
<path d="M20.3619 10.2967C20.1215 10.4534 19.9164 10.6597 19.7611 10.9011C19.7261 10.9554 19.6455 10.9553 19.6108 10.9008C19.4563 10.6589 19.252 10.4518 19.0121 10.2942C18.9589 10.2593 18.959 10.1798 19.0124 10.145C19.2528 9.9883 19.4579 9.78195 19.6133 9.54057C19.6482 9.48629 19.7288 9.48641 19.7635 9.54085C19.918 9.78282 20.1224 9.98992 20.3622 10.1475C20.4154 10.1824 20.4153 10.2619 20.3619 10.2967Z" fill="url(#paint20_linear_114_6931)"/>
<defs>
<linearGradient id="paint0_linear_114_6931" x1="9.04434" y1="14.7603" x2="13.6488" y2="21.3867" gradientUnits="userSpaceOnUse">
<stop stop-color="#FFE548"/>
<stop offset="0.1758" stop-color="#FFDE50"/>
<stop offset="0.4446" stop-color="#FFCA65"/>
<stop offset="0.7709" stop-color="#FFAA87"/>
<stop offset="1" stop-color="#FF90A4"/>
</linearGradient>
<linearGradient id="paint1_linear_114_6931" x1="12.6311" y1="19.9549" x2="11.7421" y2="23.0849" gradientUnits="userSpaceOnUse">
<stop stop-color="#FBA5C2" stop-opacity="0"/>
<stop offset="0.3857" stop-color="#FCA0BA" stop-opacity="0.386"/>
<stop offset="0.9737" stop-color="#FF91A5" stop-opacity="0.974"/>
<stop offset="1" stop-color="#FF90A4"/>
</linearGradient>
<linearGradient id="paint2_linear_114_6931" x1="13.5242" y1="18.0882" x2="12.4233" y2="22.0375" gradientUnits="userSpaceOnUse">
<stop stop-color="#FBA5C2" stop-opacity="0"/>
<stop offset="0.3857" stop-color="#FCA0BA" stop-opacity="0.386"/>
<stop offset="0.9737" stop-color="#FF91A5" stop-opacity="0.974"/>
<stop offset="1" stop-color="#FF90A4"/>
</linearGradient>
<linearGradient id="paint3_linear_114_6931" x1="14.2553" y1="15.9432" x2="12.8801" y2="20.4385" gradientUnits="userSpaceOnUse">
<stop stop-color="#FBA5C2" stop-opacity="0"/>
<stop offset="0.3857" stop-color="#FCA0BA" stop-opacity="0.386"/>
<stop offset="0.9737" stop-color="#FF91A5" stop-opacity="0.974"/>
<stop offset="1" stop-color="#FF90A4"/>
</linearGradient>
<linearGradient id="paint4_linear_114_6931" x1="15.0374" y1="14.2924" x2="13.5806" y2="17.5684" gradientUnits="userSpaceOnUse">
<stop stop-color="#FFE548"/>
<stop offset="0.1758" stop-color="#FFDE50"/>
<stop offset="0.4446" stop-color="#FFCA65"/>
<stop offset="0.7709" stop-color="#FFAA87"/>
<stop offset="1" stop-color="#FF90A4"/>
</linearGradient>
<linearGradient id="paint5_linear_114_6931" x1="13.6634" y1="16.7679" x2="15.719" y2="13.6193" gradientUnits="userSpaceOnUse">
<stop stop-color="#FFD00D" stop-opacity="0"/>
<stop offset="1" stop-color="#DB722B"/>
</linearGradient>
<linearGradient id="paint6_linear_114_6931" x1="15.5678" y1="15.3872" x2="14.283" y2="11.4437" gradientUnits="userSpaceOnUse">
<stop stop-color="#FFD00D" stop-opacity="0"/>
<stop offset="1" stop-color="#DB722B"/>
</linearGradient>
<linearGradient id="paint7_linear_114_6931" x1="17.0947" y1="17.5625" x2="16.0577" y2="15.858" gradientUnits="userSpaceOnUse">
<stop stop-color="#A34A9E" stop-opacity="0"/>
<stop offset="1" stop-color="#343168"/>
</linearGradient>
<linearGradient id="paint8_linear_114_6931" x1="18.7273" y1="17.0296" x2="18.7746" y2="14.4308" gradientUnits="userSpaceOnUse">
<stop stop-color="#A34A9E"/>
<stop offset="1" stop-color="#343168"/>
</linearGradient>
<linearGradient id="paint9_linear_114_6931" x1="10.6113" y1="9.21486" x2="11.1825" y2="9.46345" gradientUnits="userSpaceOnUse">
<stop stop-color="#3FA9F5"/>
<stop offset="1" stop-color="#666AD6"/>
</linearGradient>
<linearGradient id="paint10_linear_114_6931" x1="9.23236" y1="10.107" x2="9.83647" y2="9.95609" gradientUnits="userSpaceOnUse">
<stop stop-color="#A34A9E"/>
<stop offset="1" stop-color="#343168"/>
</linearGradient>
<linearGradient id="paint11_linear_114_6931" x1="20.18" y1="19.2389" x2="18.6859" y2="20.1397" gradientUnits="userSpaceOnUse">
<stop stop-color="#FF4974"/>
<stop offset="0.4497" stop-color="#FE4773"/>
<stop offset="0.6292" stop-color="#FC406D"/>
<stop offset="0.7605" stop-color="#F73464"/>
<stop offset="0.8683" stop-color="#F12257"/>
<stop offset="0.9606" stop-color="#E80C46"/>
<stop offset="1" stop-color="#E4003D"/>
</linearGradient>
<linearGradient id="paint12_linear_114_6931" x1="20.4492" y1="17.3875" x2="19.7516" y2="19.3829" gradientUnits="userSpaceOnUse">
<stop stop-color="#C4F8B6"/>
<stop offset="1" stop-color="#3B8EAC"/>
</linearGradient>
<radialGradient id="paint13_radial_114_6931" cx="0" cy="0" r="1" gradientUnits="userSpaceOnUse" gradientTransform="translate(12.1542 8.16028) rotate(0.114591) scale(6.24473)">
<stop stop-color="#FF4974"/>
<stop offset="0.4497" stop-color="#FE4773"/>
<stop offset="0.6292" stop-color="#FC406D"/>
<stop offset="0.7605" stop-color="#F73464"/>
<stop offset="0.8683" stop-color="#F12257"/>
<stop offset="0.9606" stop-color="#E80C46"/>
<stop offset="1" stop-color="#E4003D"/>
</radialGradient>
<linearGradient id="paint14_linear_114_6931" x1="16.6014" y1="12.6125" x2="14.3504" y2="10.9843" gradientUnits="userSpaceOnUse">
<stop stop-color="#E4003D" stop-opacity="0"/>
<stop offset="0.3434" stop-color="#CD0E2D" stop-opacity="0.343"/>
<stop offset="1" stop-color="#972E07"/>
</linearGradient>
<linearGradient id="paint15_linear_114_6931" x1="13.1852" y1="11.4498" x2="13.8146" y2="12.0343" gradientUnits="userSpaceOnUse">
<stop stop-color="#E4003D" stop-opacity="0"/>
<stop offset="0.3434" stop-color="#CD0E2D" stop-opacity="0.343"/>
<stop offset="1" stop-color="#972E07"/>
</linearGradient>
<linearGradient id="paint16_linear_114_6931" x1="15.2357" y1="13.561" x2="16.2733" y2="14.9503" gradientUnits="userSpaceOnUse">
<stop stop-color="#3FA9F5"/>
<stop offset="1" stop-color="#666AD6"/>
</linearGradient>
<linearGradient id="paint17_linear_114_6931" x1="21.2659" y1="13.1284" x2="22.3036" y2="14.5177" gradientUnits="userSpaceOnUse">
<stop stop-color="#3FA9F5"/>
<stop offset="1" stop-color="#666AD6"/>
</linearGradient>
<linearGradient id="paint18_linear_114_6931" x1="18.4428" y1="8.31167" x2="19.4804" y2="9.70098" gradientUnits="userSpaceOnUse">
<stop stop-color="#A34A9E"/>
<stop offset="1" stop-color="#343168"/>
</linearGradient>
<linearGradient id="paint19_linear_114_6931" x1="18.4742" y1="11.777" x2="19.2306" y2="12.7898" gradientUnits="userSpaceOnUse">
<stop stop-color="#C4F8B6"/>
<stop offset="1" stop-color="#3B8EAC"/>
</linearGradient>
<linearGradient id="paint20_linear_114_6931" x1="19.4536" y1="9.91118" x2="20.21" y2="10.9239" gradientUnits="userSpaceOnUse">
<stop stop-color="#FFE548"/>
<stop offset="0.1758" stop-color="#FFDE50"/>
<stop offset="0.4446" stop-color="#FFCA65"/>
<stop offset="0.7709" stop-color="#FFAA87"/>
<stop offset="1" stop-color="#FF90A4"/>
</linearGradient>
</defs>
</svg>
