<svg width="134" height="134" viewBox="0 0 134 134" fill="none" xmlns="http://www.w3.org/2000/svg">
<g filter="url(#filter0_d_194_830)">
<rect x="4" width="126" height="126" rx="63" fill="white"/>
<path d="M61.6468 87.787C98.123 86.5506 103.145 45.0462 74.9377 49.4945C58.6168 10.1476 8.85534 54.4062 61.6468 87.787ZM83.3796 58.124C83.379 58.819 83.1723 59.4981 82.7857 60.0756C82.3991 60.6531 81.8499 61.103 81.2075 61.3683C80.5652 61.6336 79.8586 61.7024 79.1772 61.5661C78.4957 61.4297 77.87 61.0943 77.3792 60.6023C76.8884 60.1103 76.5545 59.4838 76.4198 58.802C76.2851 58.1202 76.3557 57.4138 76.6226 56.7721C76.8894 56.1304 77.3406 55.5823 77.919 55.1971C78.4974 54.8119 79.1771 54.6069 79.8721 54.608C80.3333 54.6084 80.7899 54.6996 81.2159 54.8765C81.6418 55.0535 82.0287 55.3126 82.3544 55.6391C82.6802 55.9657 82.9384 56.3532 83.1143 56.7796C83.2902 57.2059 83.3803 57.6628 83.3796 58.124ZM77.0496 66.5858C81.2222 56.5266 93.9504 67.8449 80.4605 76.3834C71.1176 76.0651 69.8357 65.4516 77.0496 66.5858Z" fill="url(#paint0_linear_194_830)"/>
<path d="M61.9566 33.0031C66.6519 33.0031 70.4582 29.1968 70.4582 24.5016C70.4582 19.8063 66.6519 16 61.9566 16C57.2613 16 53.4551 19.8063 53.4551 24.5016C53.4551 29.1968 57.2613 33.0031 61.9566 33.0031Z" fill="url(#paint1_linear_194_830)"/>
<path d="M38.6494 96.5857H41.4082C42.7754 96.5857 43.7324 97.5281 43.7324 98.9002C43.7324 100.277 42.7559 101.224 41.374 101.224H39.7432V103.632H38.6494V96.5857ZM39.7432 97.5086V100.306H41.1201C42.0674 100.306 42.6143 99.7937 42.6143 98.905C42.6143 98.0164 42.0723 97.5086 41.1201 97.5086H39.7432ZM45.7881 97.5037V100.038H47.3604C48.2051 100.038 48.6934 99.574 48.6934 98.7683C48.6934 97.9822 48.1758 97.5037 47.3311 97.5037H45.7881ZM45.7881 100.922V103.632H44.6943V96.5857H47.4629C48.9131 96.5857 49.8164 97.4256 49.8164 98.739C49.8164 99.6912 49.3086 100.463 48.4492 100.751L50.0312 103.632H48.7666L47.3311 100.922H45.7881ZM55.3486 102.684V103.632H50.876V96.5857H55.3486V97.5281H51.9697V99.5886H55.168V100.497H51.9697V102.684H55.3486ZM62.541 100.702C62.541 102.611 61.4131 103.749 59.5039 103.749C57.4873 103.749 56.2178 102.338 56.2178 100.077C56.2178 97.8552 57.4824 96.4685 59.4893 96.4685C61.0566 96.4685 62.2432 97.3963 62.4873 98.8025H61.3643C61.1006 97.9285 60.4121 97.4256 59.4941 97.4256C58.1465 97.4256 57.3359 98.4119 57.3359 100.067C57.3359 101.752 58.1709 102.792 59.5137 102.792C60.6562 102.792 61.4473 102.059 61.4619 100.99V100.868H59.6406V99.9841H62.541V100.702ZM66.4912 103.632H65.3975V97.5281H63.2002V96.5857H68.6836V97.5281H66.4912V103.632ZM70.6709 97.5037V100.038H72.2432C73.0879 100.038 73.5762 99.574 73.5762 98.7683C73.5762 97.9822 73.0586 97.5037 72.2139 97.5037H70.6709ZM70.6709 100.922V103.632H69.5771V96.5857H72.3457C73.7959 96.5857 74.6992 97.4256 74.6992 98.739C74.6992 99.6912 74.1914 100.463 73.332 100.751L74.9141 103.632H73.6494L72.2139 100.922H70.6709ZM80.3486 103.632L79.7041 101.727H77.0186L76.374 103.632H75.2363L77.7803 96.5857H78.9619L81.5059 103.632H80.3486ZM78.3467 97.7576L77.2969 100.848H79.4258L78.376 97.7576H78.3467ZM85.002 103.749C83.0244 103.749 81.7744 102.352 81.7744 100.106C81.7744 97.8748 83.0342 96.4685 85.002 96.4685C86.5986 96.4685 87.8047 97.45 87.9902 98.9197H86.9062C86.7109 98.0164 85.959 97.4256 85.002 97.4256C83.7227 97.4256 82.8926 98.4754 82.8926 100.106C82.8926 101.752 83.7129 102.792 85.0068 102.792C85.9883 102.792 86.6865 102.289 86.9062 101.439H87.9951C87.7266 102.894 86.623 103.749 85.002 103.749ZM90.0752 103.632H88.9814V96.5857H90.0752V99.9402H90.1191L93.0635 96.5857H94.3623L91.5693 99.7058L94.5967 103.632H93.2393L90.7979 100.458L90.0752 101.283V103.632Z" fill="#802674"/>
</g>
<defs>
<filter id="filter0_d_194_830" x="0" y="0" width="134" height="134" filterUnits="userSpaceOnUse" color-interpolation-filters="sRGB">
<feFlood flood-opacity="0" result="BackgroundImageFix"/>
<feColorMatrix in="SourceAlpha" type="matrix" values="0 0 0 0 0 0 0 0 0 0 0 0 0 0 0 0 0 0 127 0" result="hardAlpha"/>
<feOffset dy="4"/>
<feGaussianBlur stdDeviation="2"/>
<feComposite in2="hardAlpha" operator="out"/>
<feColorMatrix type="matrix" values="0 0 0 0 0 0 0 0 0 0 0 0 0 0 0 0 0 0 0.25 0"/>
<feBlend mode="normal" in2="BackgroundImageFix" result="effect1_dropShadow_194_830"/>
<feBlend mode="normal" in="SourceGraphic" in2="effect1_dropShadow_194_830" result="shape"/>
</filter>
<linearGradient id="paint0_linear_194_830" x1="37.9982" y1="60.9095" x2="93.038" y2="60.9095" gradientUnits="userSpaceOnUse">
<stop offset="0.01" stop-color="#802674"/>
<stop offset="1" stop-color="#5B67A2"/>
</linearGradient>
<linearGradient id="paint1_linear_194_830" x1="53.4579" y1="24.5016" x2="70.4582" y2="24.5016" gradientUnits="userSpaceOnUse">
<stop offset="0.01" stop-color="#802674"/>
<stop offset="1" stop-color="#5B67A2"/>
</linearGradient>
</defs>
</svg>
