<svg width="30" height="30" viewBox="0 0 30 30" fill="none" xmlns="http://www.w3.org/2000/svg">
<circle cx="15" cy="15" r="15" fill="#FE842B"/>
<path d="M13.6467 10.8523L13.899 12.4614L10.9771 12.9002V10.1282C10.9771 10.1282 10.1981 8.59593 10.1981 7.59025C10.1981 7.21468 10.272 6.84278 10.4157 6.49578C10.5594 6.14878 10.77 5.8335 11.0356 5.56793C11.3011 5.30236 11.6164 5.09171 11.9634 4.94802C12.3104 4.80432 12.6823 4.7304 13.0579 4.73047C14.6377 4.73047 15.6614 5.02829 15.9796 6.5752C16.0813 7.17268 16.1044 7.7809 16.0483 8.38437C16.0408 8.61642 16.2401 8.92142 16.2121 9.11987C15.9796 10.7655 14.9253 10.8043 13.6467 10.8523Z" fill="#FED8EA"/>
<path d="M13.2464 7.89815C13.1702 7.76631 13.0608 7.65678 12.9289 7.58052C12.7971 7.50426 12.6476 7.46395 12.4953 7.46362C12.3767 7.46126 12.2598 7.4928 12.1584 7.55453C12.057 7.61626 11.9754 7.70562 11.923 7.81213C11.8348 7.96993 11.7978 8.15121 11.8171 8.33093C11.8364 8.51065 11.911 8.67995 12.0307 8.81543C12.3015 9.09639 12.4565 9.29011 12.3876 9.67422L12.3871 9.8526C12.2091 10.77 11.6744 11.5794 10.9004 12.1032L9.54932 13.129L9.8505 7.62693C9.87242 7.22648 9.93743 6.82955 10.0444 6.44302L10.0517 6.42108C10.2708 5.85778 10.6439 5.36742 11.1283 5.00595C11.6127 4.64448 12.189 4.42645 12.7914 4.37676C13.3937 4.32707 13.9979 4.4477 14.535 4.7249C15.0722 5.0021 15.5205 5.4247 15.829 5.94448L15.9435 6.19013C15.9754 6.25845 15.9864 6.33464 15.9751 6.40918C15.9638 6.48371 15.9309 6.55327 15.8803 6.60914L15.6542 6.85871C14.235 8.08015 13.5189 8.36966 13.5189 8.36966L13.2464 7.89815Z" fill="#C25A87"/>
<path d="M20.5986 20.2262C20.5988 21.079 20.3965 21.9197 20.0081 22.6789C19.6198 23.4382 19.0566 24.0943 18.3651 24.5933C18.2684 24.6652 18.1902 24.7589 18.1366 24.8668C18.0831 24.9746 18.0558 25.0936 18.057 25.2141V25.6159C18.057 25.7005 18.0234 25.7816 17.9636 25.8414C17.9038 25.9012 17.8227 25.9348 17.7381 25.9348H10.0667C9.99797 25.9348 9.93106 25.9126 9.87598 25.8714C9.82089 25.8303 9.78057 25.7725 9.76103 25.7066L9.61313 25.2078C9.23568 23.9349 9.28986 22.5729 9.76723 21.3341C10.2132 20.1767 10.3604 18.9256 10.1953 17.6963L9.82869 14.9674C9.82867 14.5866 9.90366 14.2094 10.0494 13.8576C10.1951 13.5057 10.4087 13.186 10.678 12.9167C10.9473 12.6474 11.267 12.4338 11.6189 12.2881C11.9707 12.1424 12.3479 12.0674 12.7287 12.0674H14.5097C14.793 12.0675 15.0706 12.1479 15.3101 12.2994C15.5496 12.4509 15.7412 12.6671 15.8628 12.9231C16.287 13.8228 16.916 15.11 17.033 15.1539C18.0775 15.529 18.9806 16.2176 19.6188 17.1255C20.2571 18.0335 20.5993 19.1164 20.5986 20.2262Z" fill="#FD98C5"/>
<path d="M18.5073 21.4614L18.276 21.4919C17.7915 21.5558 17.3009 21.4302 16.9068 21.1411C13.8486 20.3115 12.0416 18.298 11.0336 15.2493L10.5415 13.7622L12.6254 13.0735L13.1168 14.5604C13.8934 16.9095 15.1249 18.3863 17.4822 19.0238C17.626 19.049 17.7724 19.0564 17.918 19.046C18.118 19.0393 18.3173 19.073 18.504 19.1451C18.6907 19.2173 18.8609 19.3263 19.0045 19.4657L19.1052 19.5637C19.2166 19.672 19.2976 19.8076 19.3401 19.957C19.3826 20.1064 19.3852 20.2644 19.3475 20.4151L19.2521 20.7969C19.2089 20.9696 19.1148 21.1253 18.982 21.2438C18.8491 21.3623 18.6838 21.4381 18.5073 21.4614ZM20.1122 16.5913L20.1451 16.5343C20.2009 16.4378 20.237 16.3313 20.2516 16.2208C20.2661 16.1104 20.2587 15.9981 20.2299 15.8905C20.2011 15.7829 20.1513 15.682 20.0835 15.5936C20.0157 15.5052 19.9311 15.4311 19.8346 15.3754L18.9815 14.8828C18.885 14.8271 18.7785 14.791 18.6681 14.7764C18.5576 14.7619 18.4454 14.7692 18.3378 14.7981C18.2301 14.8269 18.1293 14.8767 18.0409 14.9445C17.9525 15.0123 17.8783 15.0969 17.8226 15.1934L17.7897 15.2504C17.7016 15.4029 17.6445 15.5713 17.6215 15.7458C17.5985 15.9204 17.6101 16.0978 17.6557 16.2679C17.7013 16.438 17.7799 16.5974 17.8871 16.7372C17.9943 16.8769 18.128 16.9941 18.2805 17.0821C18.433 17.1702 18.6013 17.2273 18.7759 17.2503C18.9505 17.2733 19.1279 17.2617 19.298 17.2161C19.4681 17.1705 19.6275 17.0919 19.7672 16.9847C19.9069 16.8775 20.0242 16.7438 20.1122 16.5913Z" fill="#FED8EA"/>
<path d="M14.6744 16.0379L11.2989 17.5519C10.9013 16.8996 10.5798 16.2039 10.3408 15.4784L10.1939 15.0363C10.1182 14.8083 10.0881 14.5675 10.1055 14.3278C10.1229 14.0882 10.1873 13.8543 10.2952 13.6395C10.403 13.4248 10.5521 13.2334 10.734 13.0763C10.9159 12.9193 11.1269 12.7996 11.3551 12.7242C11.8155 12.572 12.3174 12.609 12.7505 12.8269C13.1836 13.0448 13.5124 13.4259 13.6646 13.8862L13.8113 14.3301C14.0142 14.9384 14.305 15.5137 14.6744 16.0379Z" fill="#C25A87"/>
<path d="M20.09 17.1814C20.2234 17.0639 20.3377 16.9263 20.4285 16.7735L20.461 16.7171C20.6216 16.4381 20.665 16.1069 20.5817 15.796C20.4984 15.4851 20.2953 15.2199 20.0168 15.0585L19.1636 14.5661C18.8921 14.4104 18.571 14.3656 18.2673 14.4411C17.9636 14.5165 17.7008 14.7063 17.5337 14.9708C17.4366 14.9279 17.3411 14.8788 17.2433 14.8419C17.1129 14.6448 16.7547 13.9589 16.1923 12.7663C16.0402 12.4485 15.8015 12.18 15.5038 11.9917C15.206 11.8033 14.8611 11.7028 14.5088 11.7017H14.1493L14.0706 11.2001C15.228 11.1376 16.3269 10.9139 16.5733 9.17072C16.5848 8.9872 16.5525 8.80358 16.479 8.63502C16.4477 8.55834 16.4254 8.47828 16.4126 8.39646L16.4233 8.1395C16.4671 7.59209 16.438 7.04129 16.3369 6.50152C16.3357 6.49543 16.3314 6.49099 16.3299 6.48503C16.3585 6.33313 16.339 6.17609 16.274 6.03582L16.1598 5.79012C16.1547 5.77883 16.149 5.76785 16.1426 5.75726C15.7985 5.17749 15.298 4.70636 14.6985 4.39784C14.099 4.08933 13.4247 3.95589 12.7529 4.01282C12.0811 4.06975 11.4388 4.31474 10.8998 4.71974C10.3608 5.12473 9.94668 5.67336 9.70499 6.30278C9.70249 6.30973 9.69285 6.33867 9.69106 6.34564C9.57742 6.75746 9.50822 7.18027 9.48464 7.60684L9.18355 13.109C9.1797 13.1787 9.19587 13.248 9.23016 13.3088C9.26445 13.3696 9.31543 13.4193 9.37706 13.452C9.4387 13.4847 9.50842 13.4991 9.57798 13.4935C9.64754 13.4879 9.71404 13.4624 9.76961 13.4202L9.92247 13.3042C9.6215 13.8068 9.46241 14.3816 9.46212 14.9675C9.46212 14.9838 9.46319 15.0001 9.46533 15.0162L9.83176 17.7452C9.98805 18.9136 9.8483 20.1024 9.42535 21.2026C8.92114 22.5172 8.86353 23.9612 9.26142 25.3118L9.40963 25.8114C9.45234 25.9523 9.53909 26.0759 9.65716 26.164C9.77523 26.252 9.9184 26.2999 10.0657 26.3007H17.7372C17.9187 26.3004 18.0927 26.2283 18.2211 26.0999C18.3494 25.9716 18.4216 25.7975 18.4218 25.616V25.2143C18.4207 25.1516 18.4343 25.0895 18.4616 25.033C18.4889 24.9766 18.5291 24.9273 18.5789 24.8893C19.3155 24.3546 19.9153 23.6536 20.3297 22.8433C20.7441 22.033 20.9612 21.1363 20.9635 20.2262C20.9647 19.1493 20.662 18.0939 20.09 17.1814ZM18.1386 15.3762C18.2026 15.2654 18.308 15.1845 18.4317 15.1514C18.5553 15.1183 18.687 15.1356 18.7979 15.1996L19.651 15.6921C19.7618 15.7563 19.8426 15.8619 19.8756 15.9857C19.9087 16.1094 19.8912 16.2412 19.8271 16.3521L19.7946 16.4085C19.7305 16.5194 19.6453 16.6165 19.5436 16.6945C19.442 16.7724 19.3261 16.8295 19.2024 16.8626C19.0787 16.8957 18.9497 16.9041 18.8227 16.8873C18.6958 16.8706 18.5734 16.829 18.4625 16.7649C18.3516 16.7008 18.2545 16.6156 18.1766 16.514C18.0986 16.4123 18.0415 16.2964 18.0084 16.1727C17.9753 16.049 17.9669 15.92 17.9837 15.793C18.0004 15.6661 18.042 15.5437 18.1061 15.4328L18.1386 15.3762ZM13.6323 10.4867C13.5807 10.4887 13.5301 10.5016 13.4838 10.5245C13.4375 10.5475 13.3966 10.5799 13.3637 10.6198C13.3309 10.6597 13.3068 10.706 13.2932 10.7559C13.2795 10.8057 13.2766 10.8578 13.2845 10.9089L13.4088 11.7017H12.7277C12.3893 11.7018 12.0529 11.7548 11.7308 11.8587C12.262 11.3321 12.6168 10.6538 12.7463 9.91715C12.7502 9.89606 12.7521 9.87466 12.752 9.85322L12.7524 9.70465C12.7813 9.49068 12.7542 9.27286 12.6736 9.0725C12.5931 8.87215 12.462 8.69612 12.2931 8.56164C12.227 8.47798 12.1879 8.37625 12.1809 8.26989C12.1739 8.16353 12.1993 8.05755 12.2538 7.96594C12.277 7.92314 12.3117 7.88767 12.354 7.86354C12.3963 7.8394 12.4444 7.82756 12.4931 7.82934H12.4938C12.582 7.82964 12.6685 7.85303 12.7448 7.89717C12.8212 7.94131 12.8846 8.00467 12.9288 8.08094L13.2013 8.55271C13.2456 8.62883 13.3159 8.68647 13.3992 8.71511C13.4825 8.74376 13.5734 8.74151 13.6552 8.70878C14.3982 8.3352 15.0861 7.86073 15.6992 7.29882C15.7135 7.58229 15.7048 7.84793 15.693 8.10593L15.6819 8.3727C15.6859 8.5457 15.722 8.71644 15.7883 8.87628C15.8125 8.93914 15.8327 9.00343 15.849 9.06877C15.6676 10.3539 15.0016 10.4355 13.6323 10.4867ZM13.7827 16.8383C14.6112 18.1174 15.9021 19.0268 17.3854 19.3766C17.5637 19.416 17.7471 19.4277 17.929 19.4112C18.0797 19.4074 18.2297 19.4335 18.3704 19.4878C18.511 19.5422 18.6396 19.6238 18.7486 19.728L18.8493 19.8259C18.9146 19.8896 18.9622 19.9693 18.9872 20.057C19.0123 20.1448 19.014 20.2376 18.9921 20.3262L18.8961 20.7083C18.8711 20.8099 18.816 20.9016 18.738 20.9714C18.66 21.0411 18.5627 21.0856 18.4589 21.099L18.2272 21.1294C17.8359 21.1818 17.4397 21.0803 17.1219 20.8462C17.0856 20.8197 17.0448 20.8001 17.0015 20.7883C15.0981 20.3197 13.4581 19.1156 12.441 17.44L13.7827 16.8383ZM11.4474 17.0842C11.1384 16.5366 10.8838 15.9602 10.6871 15.363L10.5399 14.9212C10.4793 14.7389 10.4552 14.5463 10.4691 14.3546C10.4829 14.163 10.5343 13.9759 10.6205 13.8041C10.7067 13.6323 10.8258 13.4792 10.9712 13.3535C11.1166 13.2278 11.2853 13.132 11.4677 13.0715C11.6501 13.0111 11.8427 12.9871 12.0344 13.0011C12.226 13.0151 12.4131 13.0667 12.5848 13.1531C12.7565 13.2394 12.9095 13.3587 13.0351 13.5041C13.1606 13.6496 13.2563 13.8184 13.3166 14.0009L13.4634 14.4459C13.631 14.9479 13.8553 15.4291 14.132 15.8803L11.4474 17.0842ZM10.2146 7.64702C10.235 7.2773 10.2944 6.91076 10.3917 6.55349C10.5853 6.05585 10.9144 5.62239 11.3418 5.30222C11.7691 4.98206 12.2776 4.78799 12.8095 4.74202C13.3415 4.69606 13.8758 4.80002 14.3517 5.04214C14.8276 5.28426 15.2262 5.65484 15.5023 6.1119L15.6083 6.3635L15.3976 6.59617C14.8576 7.07592 14.2759 7.50665 13.6595 7.88327L13.5623 7.71526C13.4538 7.52817 13.2982 7.37275 13.111 7.26445C12.9238 7.15615 12.7115 7.09875 12.4952 7.09795H12.4931C12.3048 7.09596 12.1198 7.14766 11.9599 7.24699C11.7999 7.34633 11.6716 7.48918 11.5899 7.65883C11.4691 7.88309 11.4212 8.13941 11.4528 8.39216C11.4844 8.64491 11.594 8.88154 11.7663 9.06913C12.0252 9.33787 12.062 9.41359 12.0267 9.60947C12.023 9.63058 12.0211 9.65197 12.0209 9.6734L12.0206 9.81875C11.8534 10.634 11.3711 11.3504 10.6785 11.8119L9.95676 12.3597L10.2146 7.64702ZM18.1497 24.2972C18.0059 24.4022 17.8896 24.5405 17.811 24.7003C17.7597 24.6953 17.7087 24.6917 17.6572 24.6857C17.6211 24.6821 17.585 24.6927 17.5566 24.7152C17.5282 24.7378 17.5097 24.7705 17.5051 24.8064C17.501 24.8426 17.5114 24.8789 17.5341 24.9074C17.5567 24.9359 17.5896 24.9543 17.6258 24.9586C17.657 24.9621 17.688 24.9641 17.7192 24.9673C17.7008 25.0484 17.6911 25.1312 17.6904 25.2143V25.5693H10.1007L9.9628 25.1039C9.61037 23.9081 9.66133 22.6295 10.1078 21.4655C10.5749 20.2506 10.7293 18.9378 10.5567 17.6477L10.4294 16.7C10.5948 17.0578 10.7805 17.4058 10.9857 17.7424C11.0319 17.8184 11.1044 17.875 11.1894 17.9013C11.2745 17.9277 11.3662 17.9221 11.4474 17.8856L11.7673 17.7421C12.3098 18.6625 13.0291 19.4663 13.8837 20.1073C14.7384 20.7483 15.7115 21.2138 16.7469 21.4769C17.2072 21.7934 17.7687 21.9279 18.3225 21.8544L18.5547 21.824C18.8041 21.792 19.038 21.6853 19.2256 21.5178C19.4132 21.3504 19.5457 21.13 19.6057 20.8858L19.7018 20.5037C19.7544 20.2909 19.7504 20.068 19.6904 19.8571C19.6303 19.6463 19.5161 19.4548 19.3593 19.3016L19.2586 19.2038C19.0798 19.0297 18.8678 18.8937 18.6351 18.8038C18.4024 18.7138 18.154 18.6719 17.9047 18.6806C17.7952 18.6885 17.6853 18.6853 17.5765 18.6709C16.3072 18.3727 15.1953 17.6109 14.4588 16.535L14.823 16.3717C14.8722 16.3496 14.9159 16.317 14.9509 16.276C14.986 16.2351 15.0116 16.1869 15.0258 16.1349C15.0401 16.083 15.0427 16.0285 15.0334 15.9754C15.0242 15.9223 15.0033 15.8719 14.9723 15.8278C14.6237 15.3329 14.3491 14.7897 14.1573 14.2155L14.0109 13.7714C13.9113 13.4711 13.7478 13.1959 13.5316 12.9648C13.3154 12.7338 13.0516 12.5524 12.7585 12.4331H14.5087C14.7227 12.4338 14.9321 12.4948 15.1129 12.6091C15.2938 12.7234 15.4387 12.8864 15.5312 13.0793C16.6211 15.3909 16.7401 15.4351 16.9086 15.4982C17.0302 15.5418 17.1504 15.5921 17.2694 15.6455C17.229 15.8893 17.2421 16.1389 17.3078 16.3771C17.3735 16.6153 17.4902 16.8364 17.6499 17.025C17.8095 17.2136 18.0082 17.3652 18.2323 17.4693C18.4564 17.5735 18.7004 17.6277 18.9475 17.6281C19.0975 17.6281 19.2469 17.6084 19.3918 17.5695C19.4137 17.5636 19.4332 17.5525 19.4548 17.5458C19.9636 18.3472 20.2332 19.277 20.2321 20.2262C20.23 21.0208 20.0403 21.8037 19.6784 22.5111C19.3165 23.2185 18.7927 23.8304 18.1497 24.2972ZM15.2483 24.2397C15.2382 24.2651 15.2206 24.2868 15.198 24.3022C15.1753 24.3175 15.1486 24.3257 15.1212 24.3257C15.1037 24.3257 15.0864 24.3223 15.0701 24.3157C14.8609 24.2318 14.6573 24.1415 14.4655 24.0475C14.4493 24.0396 14.4347 24.0286 14.4227 24.0151C14.4107 24.0016 14.4015 23.9859 14.3956 23.9688C14.3897 23.9517 14.3873 23.9336 14.3884 23.9156C14.3895 23.8976 14.3942 23.8799 14.4021 23.8637C14.4101 23.8475 14.4211 23.833 14.4347 23.821C14.4483 23.8091 14.4641 23.8 14.4812 23.7942C14.4983 23.7883 14.5164 23.786 14.5344 23.7872C14.5524 23.7883 14.57 23.7931 14.5862 23.8011C14.7719 23.8922 14.9694 23.9797 15.1723 24.0615C15.189 24.0681 15.2042 24.0781 15.2171 24.0906C15.23 24.1032 15.2402 24.1182 15.2473 24.1348C15.2543 24.1513 15.2581 24.1691 15.2583 24.1871C15.2584 24.2051 15.2551 24.223 15.2483 24.2397ZM13.7895 23.5204C13.7697 23.551 13.7387 23.5724 13.7031 23.5801C13.6676 23.5878 13.6304 23.5811 13.5998 23.5615C13.4134 23.4415 13.2309 23.3129 13.0581 23.1793C13.0438 23.1683 13.0319 23.1546 13.0229 23.139C13.014 23.1233 13.0082 23.1061 13.0059 23.0882C13.0036 23.0703 13.0048 23.0522 13.0096 23.0348C13.0143 23.0174 13.0224 23.0011 13.0334 22.9868C13.0444 22.9726 13.0582 22.9606 13.0738 22.9517C13.0894 22.9427 13.1067 22.9369 13.1246 22.9347C13.1424 22.9324 13.1606 22.9336 13.178 22.9384C13.1954 22.9431 13.2117 22.9512 13.2259 22.9622C13.3923 23.0911 13.5684 23.2151 13.7484 23.3308C13.779 23.3505 13.8005 23.3815 13.8082 23.4171C13.8159 23.4526 13.8092 23.4898 13.7895 23.5204ZM16.8111 24.6921C16.8045 24.7228 16.7876 24.7502 16.7633 24.7699C16.7389 24.7896 16.7085 24.8003 16.6772 24.8004C16.6675 24.8003 16.6578 24.7993 16.6483 24.7971C16.434 24.7511 16.2197 24.6971 16.0076 24.6364C15.9902 24.6315 15.9741 24.6232 15.9599 24.612C15.9458 24.6008 15.934 24.5869 15.9253 24.5711C15.9165 24.5554 15.911 24.538 15.9089 24.5201C15.9069 24.5022 15.9084 24.484 15.9134 24.4667C15.9184 24.4494 15.9267 24.4332 15.9379 24.4191C15.9492 24.405 15.9631 24.3933 15.9789 24.3846C15.9946 24.3758 16.012 24.3703 16.0299 24.3683C16.0478 24.3663 16.066 24.3679 16.0833 24.3729C16.2897 24.4322 16.4973 24.4843 16.7061 24.5293C16.7237 24.5331 16.7404 24.5403 16.7552 24.5505C16.77 24.5607 16.7827 24.5738 16.7924 24.5889C16.8022 24.6041 16.8089 24.621 16.8121 24.6387C16.8153 24.6564 16.815 24.6746 16.8111 24.6921ZM12.5109 22.3233C12.5361 22.3495 12.5499 22.3847 12.5491 22.4211C12.5484 22.4574 12.5332 22.492 12.507 22.5172C12.4808 22.5424 12.4456 22.5562 12.4092 22.5554C12.3729 22.5547 12.3383 22.5395 12.3131 22.5133C12.2267 22.4237 12.1429 22.3317 12.0617 22.2376C12.0381 22.21 12.0264 22.1742 12.0292 22.138C12.0319 22.1018 12.0489 22.0682 12.0764 22.0445C12.1038 22.0208 12.1396 22.0089 12.1758 22.0115C12.212 22.0141 12.2457 22.0309 12.2695 22.0583C12.3474 22.149 12.4278 22.2374 12.5109 22.3233Z" fill="#7D3856"/>
</svg>
