<svg width="18" height="24" viewBox="0 0 18 24" fill="none" xmlns="http://www.w3.org/2000/svg">
<path opacity="0.65" fill-rule="evenodd" clip-rule="evenodd" d="M2.83748 3.33979H1.49851C0.670883 3.33979 0 4.04373 0 4.90778V21.5034C0 22.3684 0.670883 23.0714 1.49851 23.0714H16.4996C17.3273 23.0714 18 22.3675 18 21.5034L17.9991 4.90778C17.9991 4.04275 17.3263 3.33979 16.4987 3.33979H15.1616V4.35908C15.1616 5.98175 13.9001 7.30264 12.3484 7.30264H5.64893C4.09629 7.30264 2.83746 5.98363 2.83746 4.35908L2.83748 3.33979ZM9.6089 14.1215V10.7191H11.0262V14.1215H9.6089ZM6.97204 14.1215V8.84551H8.39125V14.1215H6.97204ZM3.03455 19.593C3.4255 19.593 3.74274 19.925 3.74274 20.335C3.74274 20.747 3.42923 21.0771 3.01773 21.0771C2.62678 21.0771 2.30954 20.7451 2.30954 20.335C2.30954 19.923 2.62305 19.593 3.03455 19.593ZM3.03455 15.9944C3.4255 15.9944 3.74274 16.3263 3.74274 16.7364C3.74274 17.1484 3.42923 17.4784 3.01773 17.4784C2.62678 17.4784 2.30954 17.1465 2.30954 16.7364C2.30954 16.3244 2.62305 15.9944 3.03455 15.9944ZM5.4698 21.0772C5.07698 21.0772 4.75972 20.7452 4.75972 20.3351C4.75972 19.9251 5.07696 19.5931 5.4698 19.5931H14.9805C15.3715 19.5931 15.6887 19.9251 15.6887 20.3351C15.6887 20.7452 15.3715 21.0772 14.9805 21.0772H5.4698ZM5.4698 17.4785C5.07698 17.4785 4.75972 17.1466 4.75972 16.7365C4.75972 16.3264 5.07696 15.9945 5.4698 15.9945H14.9805C15.3715 15.9945 15.6887 16.3264 15.6887 16.7365C15.6887 17.1465 15.3715 17.4785 14.9805 17.4785H5.4698ZM12.2448 14.1218V9.50761H13.664V14.1218H12.2448ZM4.33423 14.1218V11.6644H5.75343V14.1218H4.33423ZM6.68463 1.61969C7.3779 0.0585255 9.2945 -0.433535 10.5961 0.660936C10.9003 0.916726 11.1485 1.24478 11.3155 1.61969H12.3484C13.1639 1.61969 13.8282 2.31483 13.8282 3.16913V4.36025C13.8282 5.2126 13.1658 5.90969 12.3484 5.90969H5.64888C4.83057 5.90969 4.16902 5.21455 4.16902 4.36025V3.16913C4.16902 2.31483 4.83336 1.61969 5.64888 1.61969H6.68463ZM8.99959 1.66362C9.68168 1.66362 10.2369 2.24259 10.2369 2.95727C10.2369 3.67196 9.68261 4.25092 8.99959 4.25092C8.31751 4.25092 7.76233 3.67196 7.76233 2.95727C7.76233 2.24259 8.31658 1.66362 8.99959 1.66362Z" fill="black"/>
</svg>
