<svg width="88" height="111" viewBox="0 0 88 111" fill="none" xmlns="http://www.w3.org/2000/svg">
<g opacity="0.5">
<path d="M86.8449 25.5883L78.5522 17.2961V4.92714C78.5522 2.21026 76.342 0 73.6249 0H5.54534C2.86245 0 0.679688 2.18277 0.679688 4.86566V86.4934C0.679688 89.1763 2.86245 91.3591 5.54534 91.3591H8.29751V94.0706C8.29751 96.7534 10.4803 98.9362 13.1634 98.9362H23.7185C24.6152 98.9362 25.3422 98.2094 25.3422 97.3125C25.3422 96.4155 24.6152 95.6887 23.7185 95.6887H13.1634C12.271 95.6887 11.545 94.9628 11.545 94.0706V28.7858C11.545 27.8889 10.818 27.1621 9.92127 27.1621C9.02452 27.1621 8.29751 27.8889 8.29751 28.7858V88.1116H5.54534C4.65314 88.1116 3.92721 87.3856 3.92721 86.4934V4.86566C3.92721 3.97345 4.65314 3.24752 5.54534 3.24752H73.6251C74.5513 3.24752 75.3049 4.00095 75.3049 4.92714V14.0488L69.3085 8.05277C69.0039 7.74837 68.591 7.57734 68.1604 7.57734H13.1634C10.4803 7.57734 8.29751 9.76011 8.29751 12.443V21.2271C8.29751 22.1241 9.02452 22.8509 9.92127 22.8509C10.818 22.8509 11.545 22.1241 11.545 21.2271V12.4428C11.545 11.5506 12.271 10.8246 13.1634 10.8246H66.5364V26.7336C66.5364 27.6304 67.2632 28.3572 68.16 28.3574L84.073 28.36V94.0703C84.073 94.9625 83.3471 95.6885 82.4549 95.6885H72.026C71.1293 95.6885 70.4023 96.4153 70.4023 97.3122C70.4023 98.2092 71.1293 98.936 72.026 98.936H82.4549C85.1378 98.936 87.3206 96.7532 87.3206 94.0703V26.7366C87.3206 26.306 87.1495 25.8931 86.8449 25.5883ZM69.7839 25.1101V13.1209L81.776 25.1122L69.7839 25.1101Z" fill="black"/>
<path d="M67.2721 37.9865H28.427C27.5302 37.9865 26.8032 38.7133 26.8032 39.6102C26.8032 40.5072 27.5302 41.234 28.427 41.234H67.2721C68.1689 41.234 68.8959 40.5072 68.8959 39.6102C68.8959 38.7133 68.1689 37.9865 67.2721 37.9865Z" fill="black"/>
<path d="M67.2721 47.5628H28.427C27.5302 47.5628 26.8032 48.2896 26.8032 49.1866C26.8032 50.0835 27.5302 50.8103 28.427 50.8103H67.2721C68.1689 50.8103 68.8959 50.0835 68.8959 49.1866C68.8959 48.2896 68.1689 47.5628 67.2721 47.5628Z" fill="black"/>
<path d="M67.2717 57.33H59.5974C58.7006 57.33 57.9736 58.0568 57.9736 58.9538C57.9736 59.8507 58.7006 60.5775 59.5974 60.5775H67.2717C68.1685 60.5775 68.8955 59.8507 68.8955 58.9538C68.8955 58.0568 68.1685 57.33 67.2717 57.33Z" fill="black"/>
<path d="M51.9559 60.5775C52.8527 60.5775 53.5797 59.8507 53.5797 58.9538C53.5797 58.0568 52.8527 57.33 51.9559 57.33H28.427C27.5302 57.33 26.8032 58.0568 26.8032 58.9538C26.8032 59.8507 27.5302 60.5775 28.427 60.5775H51.9559Z" fill="black"/>
<path d="M53.8018 88.8953L49.4731 84.5668V100.264C49.4731 101.161 48.7461 101.888 47.8493 101.888C46.9526 101.888 46.2255 101.161 46.2255 100.264V84.5668L41.8968 88.8953C41.2627 89.5292 40.2345 89.5295 39.6006 88.8951C38.9665 88.261 38.9665 87.2328 39.6006 86.5989L46.7012 79.4985C47.0182 79.1816 47.4338 79.0231 47.8493 79.0231C48.2648 79.0231 48.6805 79.1816 48.9974 79.4985L56.098 86.5989C56.7321 87.233 56.7321 88.2612 56.098 88.8951C55.4641 89.5292 54.4359 89.529 53.8018 88.8953Z" fill="black"/>
<path d="M47.8493 70.0621C36.604 70.0621 27.4551 79.2106 27.4551 90.4554C27.4551 101.7 36.604 110.849 47.8493 110.849C59.0946 110.849 68.2435 101.7 68.2435 90.4554C68.2435 79.2106 59.0946 70.0621 47.8493 70.0621ZM47.8493 107.601C38.3947 107.601 30.7026 99.9098 30.7026 90.4557C30.7026 81.0015 38.3947 73.3098 47.8493 73.3098C57.3039 73.3098 64.996 81.0015 64.996 90.4557C64.996 99.9098 57.3039 107.601 47.8493 107.601Z" fill="black"/>
</g>
</svg>
