<svg width="57" height="49" viewBox="0 0 57 49" fill="none" xmlns="http://www.w3.org/2000/svg">
<path d="M53.3563 0H3.64366C1.63129 0 0 1.63129 0 3.64366V44.7397C0 46.7519 1.63129 48.3832 3.64366 48.3832H53.3563C55.3687 48.3832 57 46.7519 57 44.7395V3.64366C57 1.63129 55.3687 0 53.3563 0Z" fill="#D9D9D9"/>
<path d="M51.8392 5.16141H5.16113V39.7823H51.8392V5.16141Z" fill="#38484A"/>
<path d="M28.5003 45.4421C29.2516 45.4421 29.8605 44.8331 29.8605 44.0819C29.8605 43.3307 29.2516 42.7217 28.5003 42.7217C27.7491 42.7217 27.1401 43.3307 27.1401 44.0819C27.1401 44.8331 27.7491 45.4421 28.5003 45.4421Z" fill="#38484A"/>
<path d="M37.2231 13.1254C36.8116 12.0831 35.5214 11.7198 34.6256 12.393C32.9194 13.6752 30.7982 14.435 28.4995 14.435C26.2008 14.435 24.0797 13.6752 22.3735 12.393C21.4776 11.7198 20.1874 12.083 19.7758 13.1254L15.2916 24.4851C14.569 26.3155 15.4079 28.3934 17.2009 29.2043C17.4075 29.2977 17.6154 29.3885 17.8247 29.4771C21.2151 30.9111 24.8065 31.6382 28.4994 31.6382C32.1922 31.6382 35.7837 30.9112 39.174 29.4771C39.3834 29.3886 39.5915 29.2975 39.798 29.2041C41.5912 28.3933 42.4301 26.3154 41.7074 24.4849L37.2231 13.1254Z" fill="#9AD48D"/>
<path d="M48.7424 23.3315C49.2174 23.3315 49.6025 22.9464 49.6025 22.4714C49.6025 21.9964 49.2174 21.6113 48.7424 21.6113H47.5381V10.1661H48.7424C49.2174 10.1661 49.6025 9.781 49.6025 9.30597C49.6025 8.83093 49.2174 8.44585 48.7424 8.44585H44.6135C44.1385 8.44585 43.7534 8.83093 43.7534 9.30597C43.7534 9.781 44.1385 10.1661 44.6135 10.1661H45.8178V21.6112H44.6135C44.1385 21.6112 43.7534 21.9963 43.7534 22.4713C43.7534 22.9463 44.1385 23.3314 44.6135 23.3314H45.8178V34.7765H44.6135C44.1385 34.7765 43.7534 35.1616 43.7534 35.6366C43.7534 36.1117 44.1385 36.4967 44.6135 36.4967H48.7424C49.2174 36.4967 49.6025 36.1117 49.6025 35.6366C49.6025 35.1616 49.2174 34.7765 48.7424 34.7765H47.5381V23.3315H48.7424Z" fill="#9AD48D"/>
<path d="M13.9917 8.44571H8.48659C8.01155 8.44571 7.62646 8.83079 7.62646 9.30583C7.62646 9.78087 8.01155 10.166 8.48659 10.166H13.9917C14.4667 10.166 14.8518 9.78087 14.8518 9.30583C14.8518 8.8309 14.4667 8.44571 13.9917 8.44571Z" fill="#9AD48D"/>
<path d="M12.8447 11.4849H8.48659C8.01155 11.4849 7.62646 11.87 7.62646 12.3451C7.62646 12.8201 8.01155 13.2052 8.48659 13.2052H12.8447C13.3198 13.2052 13.7049 12.8201 13.7049 12.3451C13.705 11.87 13.3198 11.4849 12.8447 11.4849Z" fill="#9AD48D"/>
<path d="M8.48659 16.2446H11.6978C12.1729 16.2446 12.558 15.8596 12.558 15.3845C12.558 14.9095 12.1729 14.5244 11.6978 14.5244H8.48659C8.01155 14.5244 7.62646 14.9095 7.62646 15.3845C7.62646 15.8594 8.01155 16.2446 8.48659 16.2446Z" fill="#9AD48D"/>
<path d="M12.8447 31.7373H8.48659C8.01155 31.7373 7.62646 32.1224 7.62646 32.5974C7.62646 33.0725 8.01155 33.4575 8.48659 33.4575H12.8447C13.3198 33.4575 13.7049 33.0725 13.7049 32.5974C13.705 32.1224 13.3198 31.7373 12.8447 31.7373Z" fill="#9AD48D"/>
<path d="M11.6978 34.7765H8.48659C8.01155 34.7765 7.62646 35.1616 7.62646 35.6366C7.62646 36.1117 8.01155 36.4968 8.48659 36.4968H11.6978C12.1729 36.4968 12.558 36.1117 12.558 35.6366C12.5581 35.1617 12.1729 34.7765 11.6978 34.7765Z" fill="#9AD48D"/>
<path d="M21.7268 20.0447C21.2518 20.0447 20.8667 20.4298 20.8667 20.9048V22.1308C20.8667 22.6058 21.2518 22.9909 21.7268 22.9909C22.2019 22.9909 22.5869 22.6058 22.5869 22.1308V20.9048C22.5869 20.4298 22.2019 20.0447 21.7268 20.0447Z" fill="#38484A"/>
<path d="M35.2732 20.0447C34.7982 20.0447 34.4131 20.4298 34.4131 20.9049V22.1308C34.4131 22.6058 34.7982 22.9909 35.2732 22.9909C35.7482 22.9909 36.1333 22.6058 36.1333 22.1308V20.9049C36.1334 20.4298 35.7482 20.0447 35.2732 20.0447Z" fill="#38484A"/>
<path d="M30.7377 21.3979C30.38 21.0853 29.8366 21.1215 29.524 21.4792C29.2764 21.7625 28.9031 21.9248 28.4998 21.9248C28.0965 21.9248 27.7233 21.7624 27.4756 21.4792C27.1629 21.1215 26.6195 21.0849 26.2619 21.3979C25.9042 21.7105 25.8676 22.2539 26.1805 22.6116C26.7547 23.2685 27.6001 23.6452 28.4998 23.6452C29.3994 23.6452 30.2448 23.2685 30.8191 22.6116C31.1318 22.2538 31.0953 21.7105 30.7377 21.3979Z" fill="#38484A"/>
</svg>
