<svg width="56" height="56" viewBox="0 0 56 56" fill="none" xmlns="http://www.w3.org/2000/svg">
<g filter="url(#filter0_d_601_1033)">
<circle cx="28" cy="24" r="24" fill="white"/>
<path d="M37.2945 16.3846H33.6611L33.238 15.1154C33.0341 14.4991 32.6409 13.9629 32.1145 13.5831C31.5881 13.2032 30.9552 12.9992 30.3061 13H25.0786C24.4296 12.9995 23.797 13.2037 23.2708 13.5835C22.7445 13.9632 22.3515 14.4993 22.1475 15.1154L21.7235 16.3846H18.0902C17.2709 16.3855 16.4854 16.7114 15.9061 17.2907C15.3268 17.87 15.0009 18.6555 15 19.4748V31.9133C15.0018 32.732 15.328 33.5166 15.9073 34.0952C16.4865 34.6737 17.2715 34.9991 18.0902 35H37.2979C38.1166 34.9982 38.9012 34.672 39.4798 34.0928C40.0584 33.5135 40.3838 32.7286 40.3846 31.9099V19.4714C40.3829 18.6527 40.0566 17.8681 39.4774 17.2895C38.8982 16.7109 38.1132 16.3855 37.2945 16.3846ZM38.6923 31.9099C38.6919 32.2805 38.5445 32.6358 38.2824 32.8978C38.0204 33.1599 37.6651 33.3073 37.2945 33.3077H18.0902C17.7196 33.3073 17.3643 33.1599 17.1022 32.8978C16.8402 32.6358 16.6928 32.2805 16.6923 31.9099V19.4714C16.6937 19.1014 16.8415 18.747 17.1034 18.4856C17.3654 18.2243 17.7201 18.0774 18.0902 18.0769H22.3336C22.5111 18.0768 22.6841 18.0208 22.8281 17.917C22.972 17.8131 23.0797 17.6666 23.1358 17.4982L23.7526 15.6476C23.8453 15.3693 24.0232 15.1272 24.2612 14.9557C24.4992 14.7842 24.7852 14.6921 25.0786 14.6923H30.3061C30.5996 14.692 30.8857 14.7842 31.1237 14.9559C31.3618 15.1275 31.5397 15.3699 31.632 15.6485L32.2489 17.4982C32.305 17.6666 32.4126 17.8131 32.5566 17.917C32.7005 18.0208 32.8735 18.0768 33.051 18.0769H37.2945C37.6651 18.0774 38.0204 18.2248 38.2824 18.4868C38.5445 18.7489 38.6919 19.1042 38.6923 19.4748V31.9099Z" fill="black"/>
<path d="M27.6922 18.9231C26.4371 18.9231 25.2101 19.2953 24.1665 19.9926C23.1229 20.6899 22.3095 21.6811 21.8291 22.8407C21.3488 24.0003 21.2231 25.2763 21.468 26.5073C21.7129 27.7384 22.3173 28.8691 23.2048 29.7567C24.0923 30.6442 25.2231 31.2486 26.4542 31.4935C27.6852 31.7383 28.9612 31.6127 30.1208 31.1323C31.2804 30.652 32.2716 29.8386 32.9689 28.795C33.6662 27.7514 34.0384 26.5244 34.0384 25.2693C34.0366 23.5867 33.3674 21.9736 32.1777 20.7838C30.9879 19.5941 29.3748 18.9249 27.6922 18.9231ZM27.6922 29.9231C26.7718 29.9231 25.872 29.6502 25.1067 29.1388C24.3414 28.6274 23.7449 27.9006 23.3926 27.0502C23.0404 26.1998 22.9482 25.2641 23.1278 24.3613C23.3074 23.4586 23.7506 22.6293 24.4015 21.9785C25.0523 21.3276 25.8816 20.8844 26.7843 20.7048C27.6871 20.5253 28.6228 20.6174 29.4732 20.9697C30.3236 21.3219 31.0504 21.9184 31.5618 22.6837C32.0731 23.449 32.3461 24.3488 32.3461 25.2693C32.3447 26.5031 31.854 27.6861 30.9815 28.5585C30.109 29.431 28.9261 29.9218 27.6922 29.9231Z" fill="black"/>
<path d="M36.1538 21.4616C36.6211 21.4616 36.9999 21.0828 36.9999 20.6154C36.9999 20.1481 36.6211 19.7693 36.1538 19.7693C35.6865 19.7693 35.3076 20.1481 35.3076 20.6154C35.3076 21.0828 35.6865 21.4616 36.1538 21.4616Z" fill="black"/>
</g>
<defs>
<filter id="filter0_d_601_1033" x="0" y="0" width="56" height="56" filterUnits="userSpaceOnUse" color-interpolation-filters="sRGB">
<feFlood flood-opacity="0" result="BackgroundImageFix"/>
<feColorMatrix in="SourceAlpha" type="matrix" values="0 0 0 0 0 0 0 0 0 0 0 0 0 0 0 0 0 0 127 0" result="hardAlpha"/>
<feOffset dy="4"/>
<feGaussianBlur stdDeviation="2"/>
<feComposite in2="hardAlpha" operator="out"/>
<feColorMatrix type="matrix" values="0 0 0 0 0 0 0 0 0 0 0 0 0 0 0 0 0 0 0.25 0"/>
<feBlend mode="normal" in2="BackgroundImageFix" result="effect1_dropShadow_601_1033"/>
<feBlend mode="normal" in="SourceGraphic" in2="effect1_dropShadow_601_1033" result="shape"/>
</filter>
</defs>
</svg>
