<svg width="62" height="62" viewBox="0 0 62 62" fill="none" xmlns="http://www.w3.org/2000/svg">
<path d="M36.1667 56.8333H25.8333C14.4667 56.8333 5.16666 47.5333 5.16666 36.1666V25.8333C5.16666 14.4666 14.4667 5.16663 25.8333 5.16663H36.1667C47.5333 5.16663 56.8333 14.4666 56.8333 25.8333V36.1666C56.8333 47.5333 47.5333 56.8333 36.1667 56.8333Z" fill="url(#paint0_linear_562_1511)"/>
<path d="M49.0833 11.625C49.0833 32.2916 32.2917 49.0833 11.625 49.0833C10.85 49.0833 10.3333 49.0833 9.55832 49.0833C6.97499 45.4666 5.16666 41.075 5.16666 36.1666V25.8333C5.16666 14.4666 14.4667 5.16663 25.8333 5.16663H36.1667C41.075 5.16663 45.4667 6.97496 49.0833 9.55829V11.625Z" fill="url(#paint1_linear_562_1511)"/>
<path d="M31 37.4583V39.7833C31 40.5583 31.2584 40.8167 31.775 40.8167H34.6167V42.1083V42.3667H31.2584C30.4834 42.3667 29.9667 42.625 29.7084 43.6583L29.45 43.9167C28.4167 46.7583 26.0917 48.05 22.9917 48.05C19.1167 48.05 17.3083 45.9833 17.3083 43.6583C17.3083 41.5917 18.8584 39.7833 21.4417 39.7833C22.7334 39.7833 24.8 40.5583 24.8 41.85C24.8 42.8833 23.7667 43.4 22.9917 43.4C22.7333 43.4 22.475 43.4 22.475 42.8833C21.9583 41.85 21.4417 41.075 20.925 41.075C20.15 41.075 19.1167 41.85 19.1167 43.4C19.1167 45.2083 20.6667 46.5 22.475 46.5C24.8 46.5 25.8334 45.725 26.6084 43.6583L26.8667 43.1417C27.3833 41.85 28.1583 41.075 29.7084 41.075C28.675 40.8167 27.9 40.0417 27.9 38.75V37.7167H17.825V23.7667V23.5083H20.925V36.1667H27.3834V27.125C27.3834 24.5417 29.1917 23.25 32.0333 23.25C36.425 23.25 39.2667 26.6083 39.2667 31.775C39.2667 35.3917 38.2333 37.7167 35.9083 37.7167H31V37.4583ZM35.65 36.1667C37.4583 36.1667 37.7167 34.3583 37.7167 31.775C37.7167 27.3833 35.3917 24.8 32.8083 24.8C31.5167 24.8 30.7417 25.575 30.7417 27.125V36.1667H35.65Z" fill="black"/>
<path d="M34.3584 20.15C34.3584 21.7 34.875 22.9917 35.9083 24.025H34.3584C33.5834 22.9917 32.8083 21.7 32.8083 19.8917C32.8083 16.5334 35.3917 14.2084 38.75 14.2084C42.625 14.2084 44.95 17.3084 44.95 22.2167C44.95 26.8667 44.95 33.0667 44.6917 37.4584V37.7167H43.1417C43.1417 33.0667 43.4 26.35 43.4 22.9917C43.4 18.6 41.85 16.5334 39.0084 16.5334C36.1667 16.275 34.3584 17.825 34.3584 20.15Z" fill="black"/>
<defs>
<linearGradient id="paint0_linear_562_1511" x1="5.16666" y1="31" x2="56.8333" y2="31" gradientUnits="userSpaceOnUse">
<stop stop-color="#4BA59E"/>
<stop offset="1" stop-color="#B5FCB7"/>
</linearGradient>
<linearGradient id="paint1_linear_562_1511" x1="1.74891" y1="42.1987" x2="46.7299" y2="8.03929" gradientUnits="userSpaceOnUse">
<stop stop-color="#4BA59E"/>
<stop offset="1" stop-color="#B5FCB7"/>
</linearGradient>
</defs>
</svg>
