<svg width="40" height="38" viewBox="0 0 40 38" fill="none" xmlns="http://www.w3.org/2000/svg">
<path d="M38.2359 2.16614H36.7643V0.672702C36.7643 0.301715 36.4637 0 36.0944 0H34.1053C33.7359 0 33.4354 0.301794 33.4354 0.672702V2.16606H29.2145V0.672702C29.2145 0.301715 28.9139 0 28.5445 0H26.5554C26.1859 0 25.8855 0.301794 25.8855 0.672702V2.16606H21.6646V0.672702C21.6646 0.301715 21.3641 0 20.9947 0H19.0055C18.636 0 18.3355 0.301794 18.3355 0.672702V2.16606H14.1147V0.672702C14.1147 0.301715 13.8141 0 13.4448 0H11.4556C11.0862 0 10.7857 0.301794 10.7857 0.672702V2.16606H6.56469V0.672702C6.56469 0.301715 6.26414 0 5.89477 0H3.9057C3.53625 0 3.23578 0.301794 3.23578 0.672702V2.16606H1.76406C0.791328 2.16614 0 2.96067 0 3.93752V36.2286C0 37.2053 0.791328 38 1.76406 38H9.71594C10.0395 38 10.3019 37.7366 10.3019 37.4116C10.3019 37.0866 10.0395 36.8233 9.71594 36.8233H7.64414V21.7542H12.9434V36.8233H12.4504C12.1268 36.8233 11.8645 37.0866 11.8645 37.4116C11.8645 37.7366 12.1268 38 12.4504 38H38.2359C39.2087 38 40 37.2053 40 36.2286V3.93752C40 2.96067 39.2087 2.16614 38.2359 2.16614ZM34.6073 1.17674H35.5924V4.3322H34.6073V1.17674ZM27.0573 1.17674H28.0425V4.3322H27.0573V1.17674ZM19.5073 1.17674H20.4926V4.3322H19.5073V1.17674ZM11.9575 1.17674H12.9427V4.3322H11.9575V1.17674ZM4.40758 1.17674H5.39281V4.3322H4.40758V1.17674ZM1.76406 3.34288H3.2357V4.83624C3.2357 5.20722 3.53625 5.50894 3.90563 5.50894H5.89469C6.26414 5.50894 6.56461 5.20714 6.56461 4.83624V3.34288H10.7855V4.83624C10.7855 5.20722 11.0861 5.50894 11.4555 5.50894H13.4446C13.8141 5.50894 14.1145 5.20714 14.1145 4.83624V3.34288H18.3354V4.83624C18.3354 5.20722 18.6359 5.50894 19.0053 5.50894H20.9945C21.3639 5.50894 21.6644 5.20714 21.6644 4.83624V3.34288H25.8852V4.83624C25.8852 5.20722 26.1858 5.50894 26.5552 5.50894H28.5443C28.9137 5.50894 29.2142 5.20714 29.2142 4.83624V3.34288H33.4352V4.83624C33.4352 5.20722 33.7357 5.50894 34.1051 5.50894H36.0941C36.4636 5.50894 36.7641 5.20714 36.7641 4.83624V3.34288H38.2357C38.5623 3.34288 38.8279 3.6096 38.8279 3.93752V7.58133H11.0831C10.7595 7.58133 10.4972 7.84468 10.4972 8.1697C10.4972 8.49471 10.7595 8.75807 11.0831 8.75807H12.9434V14.0795H10.8793V11.504C10.8793 11.1327 10.5784 10.8305 10.2086 10.8305H7.64414V8.75807H8.34867C8.67227 8.75807 8.93461 8.49471 8.93461 8.1697C8.93461 7.84468 8.67227 7.58133 8.34867 7.58133H1.17188V3.93752C1.17188 3.6096 1.4375 3.34288 1.76406 3.34288ZM31.3711 33.5733V31.5011H35.5918V33.5733C34.6763 33.5733 35.9941 33.5733 31.3711 33.5733ZM35.5918 30.3244H29.2141V28.2521H35.5918V30.3244ZM28.7129 27.0754C28.3431 27.0754 28.0422 27.3776 28.0422 27.7489V30.8275C28.0422 31.1989 28.3431 31.5011 28.7129 31.5011H30.1991V34.0765C30.1991 34.4479 30.5001 34.7501 30.8699 34.7501H32.3566V36.8233H27.0573V25.0032H29.6218C29.9916 25.0032 30.2925 24.701 30.2925 24.3296V21.2509C30.2925 20.8796 29.9916 20.5775 29.6218 20.5775H27.0573V8.75807H32.3566V27.0754H28.7129ZM7.64375 20.5775V18.5052H16.1785V20.5775H7.64375ZM9.70742 12.0073V14.0795H3.32969V12.0073H9.70742ZM5.48672 15.2562H12.943V17.3285H5.48672V15.2562ZM19.4145 8.75807V20.5775H17.3504V18.002C17.3504 17.6307 17.0495 17.3285 16.6797 17.3285H14.1152V8.75807H19.4145ZM24.5282 20.5775C24.2045 20.5775 23.9423 20.8408 23.9423 21.1658C23.9423 21.4908 24.2045 21.7542 24.5282 21.7542H29.1207V23.8264H17.3504V21.7542H21.7938C22.1175 21.7542 22.3798 21.4908 22.3798 21.1658C22.3798 20.8408 22.1175 20.5775 21.7938 20.5775H20.5863V8.75807H25.8855V20.5775H24.5282ZM17.3504 25.0032H22.6496V27.0754H17.3504V25.0032ZM23.1508 28.2521C23.5205 28.2521 23.8215 27.95 23.8215 27.5786V25.0032H25.8855V36.8233H20.5863V28.2521H23.1508ZM1.76406 36.8233C1.4375 36.8233 1.17188 36.5565 1.17188 36.2286V8.75807H6.47227V10.8305H2.82852C2.45867 10.8305 2.15781 11.1327 2.15781 11.504V14.5827C2.15781 14.9541 2.45875 15.2562 2.82852 15.2562H4.31484V17.8317C4.31484 18.203 4.61578 18.5052 4.98555 18.5052H6.47187C6.47187 21.7171 6.47227 23.8184 6.47227 36.8233H1.76406ZM14.1152 21.7542H16.1785V27.5786C16.1785 27.95 16.4795 28.2521 16.8492 28.2521H19.4144V36.8233H14.1152V21.7542H14.1152ZM38.8281 36.2286C38.8281 36.5565 38.5625 36.8233 38.2359 36.8233H33.5285V34.7501H36.093C36.4627 34.7501 36.7637 34.4479 36.7637 34.0765V27.7489C36.7637 27.3776 36.4627 27.0754 36.093 27.0754H33.5285V8.75807H38.8281V36.2286Z" fill="#811A74"/>
</svg>
